<?xml version="1.0" encoding="utf-8"?>
<!-- Generator: Adobe Illustrator 14.0.0, SVG Export Plug-In . SVG Version: 6.00 Build 43363)  -->
<!DOCTYPE svg PUBLIC "-//W3C//DTD SVG 1.0//EN" "http://www.w3.org/TR/2001/REC-SVG-20010904/DTD/svg10.dtd">
<svg version="1.0" id="svg2" xmlns:svg="http://www.w3.org/2000/svg"
	 xmlns="http://www.w3.org/2000/svg" xmlns:xlink="http://www.w3.org/1999/xlink" x="0px" y="0px" width="55.833px"
	 height="48.375px" viewBox="0 0 55.833 48.375" enable-background="new 0 0 55.833 48.375" xml:space="preserve">
<filter  id="AI_GaussianBlur_4">
	<feGaussianBlur  stdDeviation="1"></feGaussianBlur>
</filter>
<g>
	<g opacity="0.2" filter="url(#AI_GaussianBlur_4)">
		<path d="M21.386,47.188c4.805-3.297-1.273-5.531-3.751-10.969c-1.043-2.292,3.471-8.934,20.335-11.531
			C71.451,19.532,48.716,42.032,21.386,47.188"/>
	</g>
	<g>
		<g>
			<path fill="#FFCCFF" d="M21.177,47.45c2.199-6.595-7.977-11.063-17.352-21.938C-0.127,20.927-2.153,7.644,15.927,2.45
				C51.826-7.863,49.388,37.138,21.177,47.45"/>
			<g>
				<path d="M22.152,47.364c1.319-5.142-3.463-8.863-6.855-11.931C10.725,31.301,4.362,26.98,2.558,20.791
					C-1.712,6.143,19.685-0.404,30.575,2.205c9.601,2.301,12.104,12.542,10.519,21.088C39.086,34.11,30.873,43.048,20.762,46.926
					c-1.245,0.478-0.133,1.419,0.831,1.049c10.859-4.165,18.998-13.45,21.451-24.854c2.021-9.393-1.564-19.329-11.336-22.151
					C21.098-2.095,4.187,2.973,0.639,14.295c-1.5,4.79,0.373,9.458,3.526,13.013c3.459,3.901,7.514,7.226,11.333,10.758
					c2.701,2.498,5.724,5.495,4.705,9.47C19.977,48.414,21.948,48.161,22.152,47.364L22.152,47.364z"/>
			</g>
		</g>
		<g>
			<g>
				<g>
					<path d="M24.979,1.056c-2.496,11.804-6.043,23.379-13.065,33.354c-0.493,0.7,1.446,0.505,1.792,0.014
						c7.07-10.043,10.686-21.729,13.201-33.624C27.054,0.104,25.112,0.425,24.979,1.056L24.979,1.056z"/>
				</g>
			</g>
			<g>
				<g>
					<g>
						<path d="M20.969,22.269c1.908-1.435,4.153-2.259,6.234-3.396c1.129-0.617-0.647-0.577-1.129-0.313
							c-2.204,1.205-4.577,2.085-6.598,3.604C18.675,22.767,20.61,22.539,20.969,22.269L20.969,22.269z"/>
					</g>
				</g>
				<g>
					<g>
						<path fill="#9966FF" d="M32.893,13.391c-2.246-1.264-6.426,2.285-6.198,4.702c0.329,4.818,8.63,3.754,8.876-0.621
							C35.784,15.609,34.513,14.236,32.893,13.391"/>
						<g>
							<path d="M33.287,13.192c-4.243-1.949-10.32,5.789-4.779,7.991c1.938,0.771,4.451,0.104,6.053-1.107
								c2.729-2.063,1.331-5.422-1.214-6.855c-0.256-0.144-1.067,0.251-0.906,0.342c1.939,1.092,3.266,2.905,2.365,5.172
								c-0.742,1.872-3.13,2.541-4.939,2.212c-1.554-0.282-2.518-1.458-2.688-2.982c-0.254-2.286,3.197-5.349,5.322-4.374
								C32.723,13.693,33.609,13.34,33.287,13.192L33.287,13.192z"/>
						</g>
					</g>
					<g>
						<g>
							<path d="M33.302,16.07c-0.735,0.184-1.29,0.636-1.16,1.444c0.06,0.366,1.029,0.132,0.967-0.259
								c-0.054-0.327-0.002-0.563,0.338-0.647C34.036,16.461,33.888,15.924,33.302,16.07L33.302,16.07z"/>
						</g>
					</g>
				</g>
			</g>
		</g>
	</g>
</g>
</svg>
