<svg xmlns="http://www.w3.org/2000/svg" xml:space="preserve" id="svg2" width="55.8" height="48.4" x="0" y="0" viewBox="0 0 55.8 48.4"><style id="style1" type="text/css">.st3{fill:#b7e369;stroke:#000;stroke-width:.75;stroke-miterlimit:10}.st4{fill:none;stroke:#7fae45;stroke-width:.5;stroke-linecap:round;opacity:.7}.st5{fill:#fff;opacity:.45}.st6{fill:#8a6d3b;stroke:#5c4425;stroke-width:.22;stroke-linejoin:round}</style><filter id="gaussian4g" width="1.156" height="1.25" x="-.078" y="-.125"><feGaussianBlur id="feGaussianBlur1" stdDeviation="1"/></filter><g id="g19"><g id="g6"><g id="g1" style="opacity:.2;filter:url(#gaussian4g)"><path id="path1" d="M21.8 47.9c4.8-3.3-1.3-5.5-3.8-11-1-2.3 3.5-8.9 20.3-11.5 33.6-5.2 10.8 17.3-16.5 22.5" style="stroke:#000;stroke-miterlimit:10"/></g><g id="g5"><g id="g2"><path id="path2" d="M21.8 47.5c2.2-6.6-8-11.1-17.4-21.9-4-4.6-6-17.9 12.1-23.1 35.9-10.3 33.5 34.7 5.3 45" style="fill:#fcf;stroke:#000;stroke-miterlimit:10"/></g><g id="g4"><g id="g3"><path id="path3" d="M22.8 47.5c1.3-5.1-3.5-8.9-6.9-11.9C11.3 31.4 5 27.1 3.2 20.9-1.1 6.2 20.3-.3 31.2 2.3c9.6 2.3 12.1 12.5 10.5 21.1-2 10.8-10.2 19.8-20.3 23.6-1.2.5-.1 1.4.8 1.1 10.9-4.2 19-13.4 21.4-24.9C45.6 13.8 42 3.9 32.3 1 21.7-2 4.8 3.1 1.3 14.4c-1.5 4.8.4 9.5 3.5 13 3.5 3.9 7.5 7.2 11.3 10.8 2.7 2.5 5.7 5.5 4.7 9.5-.2.8 1.8.6 2-.2"/></g></g></g></g><ellipse id="ellipse6" cx="27.084" cy="17.442" class="st3" rx="6.439" ry="7.327"/><path id="path6" d="M27.084 10.433c-2.183 2.23-3.165 4.779-3.165 7.009s.982 4.778 3.165 7.008" class="st4"/><path id="path7" d="M27.084 10.433c1.091 2.23 1.637 4.779 1.637 7.009s-.546 4.778-1.637 7.008" class="st4"/><path id="path8" d="M27.084 10.433c2.4 2.23 3.601 4.779 3.601 7.009s-1.2 4.778-3.601 7.008" class="st4"/><ellipse id="ellipse8" cx="13.685" cy="24.988" class="st5" rx="2.06" ry="1.39" style="stroke-width:1.0767" transform="matrix(.87185 -.48978 .5103 .86 0 0)"/><path id="path9" d="M27.206 24.557c-.817.904-.817 1.937 0 2.841.816-.904.816-1.937 0-2.84z" class="st6"/><ellipse id="ellipse13" cx="20.823" cy="21.462" class="st3" rx="5.566" ry="6.372"/><path id="path14" d="M20.823 15.09c-1.855 2.018-2.728 4.248-2.728 6.372s.873 4.354 2.728 6.371" class="st4"/><path id="path15" d="M20.823 15.09c.982 2.018 1.419 4.248 1.419 6.372s-.437 4.354-1.419 6.371" class="st4"/><path id="path16" d="M20.823 15.09c2.074 2.018 3.056 4.248 3.056 6.372s-.982 4.354-3.056 6.371" class="st4"/><ellipse id="ellipse16" cx="6.367" cy="25.865" class="st5" rx="1.843" ry="1.176" style="stroke-width:1.0767" transform="matrix(.87185 -.48978 .5103 .86 0 0)"/><path id="path17" d="M20.97 27.733c-.842.962-.842 2.06 0 3.02.84-.96.84-2.058 0-3.02z" class="st6"/></g></svg>
