<?xml version="1.0" encoding="utf-8"?>
<!-- Generator: Adobe Illustrator 14.0.0, SVG Export Plug-In . SVG Version: 6.00 Build 43363)  -->
<!DOCTYPE svg PUBLIC "-//W3C//DTD SVG 1.0//EN" "http://www.w3.org/TR/2001/REC-SVG-20010904/DTD/svg10.dtd">
<svg version="1.0" id="svg2" xmlns:svg="http://www.w3.org/2000/svg"
	 xmlns="http://www.w3.org/2000/svg" xmlns:xlink="http://www.w3.org/1999/xlink" x="0px" y="0px" width="55.833px"
	 height="48.375px" viewBox="0 0 55.833 48.375" enable-background="new 0 0 55.833 48.375" xml:space="preserve">
<filter  id="AI_GaussianBlur_4">
	<feGaussianBlur  stdDeviation="1"></feGaussianBlur>
</filter>
<g>
	<g opacity="0.2" filter="url(#AI_GaussianBlur_4)">
		<path d="M21.799,47.538c4.805-3.298-1.272-5.531-3.75-10.972c-1.043-2.291,3.471-8.934,20.334-11.528
			C71.864,19.882,49.13,42.382,21.799,47.538"/>
	</g>
	<g>
		<g>
			<path fill="#FFCCFF" d="M21.799,47.548c2.198-6.595-7.979-11.063-17.354-21.938C0.493,21.025-1.532,7.743,16.549,2.547
				C52.448-7.765,50.01,37.234,21.799,47.548"/>
		</g>
		<g>
			<g>
				<path d="M22.775,47.462c1.317-5.144-3.465-8.864-6.854-11.931c-4.571-4.135-10.936-8.453-12.738-14.643
					C-1.091,6.242,20.308-0.308,31.198,2.303C40.8,4.604,43.303,14.844,41.718,23.39C39.71,34.208,31.496,43.145,21.386,47.021
					c-1.244,0.479-0.134,1.42,0.832,1.051c10.857-4.166,18.997-13.449,21.449-24.854c2.021-9.393-1.563-19.329-11.336-22.151
					C21.722-1.995,4.811,3.07,1.264,14.395c-1.501,4.79,0.372,9.457,3.524,13.013c3.459,3.9,7.515,7.227,11.333,10.758
					c2.7,2.499,5.726,5.495,4.704,9.47C20.598,48.512,22.57,48.259,22.775,47.462L22.775,47.462z"/>
			</g>
		</g>
	</g>
	<g>
		<g>
			<path fill="#FF0033" d="M24.25,9.069c1.595-1.313,4.968-1.386,5.25,1.142"/>
			<g>
				<path d="M24.626,9.105c1.516-1.171,4.056-0.924,4.392,1.232c0.038,0.243,1.012,0.026,0.968-0.259
					c-0.453-2.908-4.362-2.396-6.108-1.048C23.468,9.348,24.435,9.253,24.626,9.105L24.626,9.105z"/>
			</g>
		</g>
		<polygon fill="#FF0033" points="12.614,14.401 14.144,14.062 18.731,12.002 21.864,9.815 26.875,8.764 29.948,10.802 
			33.155,10.802 34.511,14.732 34.698,22.104 31.864,25.939 27.198,28.091 20.53,27.439 14.78,24.023 12.448,18.748 		"/>
		<g>
			<path fill="#FF0033" d="M15.367,19.922c-5.938-1.183-2.196,8.455,1.566,5.998"/>
			<g>
				<path d="M15.761,19.726c-1.069-0.188-2.44-0.201-3.291,0.611c-0.854,0.814-0.785,2.061-0.469,3.107
					c0.722,2.382,3.02,3.894,5.307,2.501c0.419-0.254-0.56-0.168-0.745-0.055c-2.813,1.709-6.154-6.585-1.591-5.772
					C15.213,20.161,16.053,19.777,15.761,19.726L15.761,19.726z"/>
			</g>
		</g>
		<g>
			<path fill="#FF0033" d="M17.845,23.098c-1.179,1.453-1.547,2.919,0.233,4.419c1.478,1.269,3.547,0.988,4.523-0.014"/>
			<g>
				<path d="M17.393,23.078c-0.531,0.683-1.102,1.545-1.021,2.458c0.097,1.128,0.88,1.953,1.786,2.56
					c1.445,0.965,3.604,0.656,4.839-0.498c0.42-0.393-0.533-0.418-0.78-0.187c-1.307,1.221-3.082,0.569-4.182-0.563
					c-1.154-1.189-0.625-2.594,0.265-3.73C18.578,22.76,17.597,22.815,17.393,23.078L17.393,23.078z"/>
			</g>
		</g>
		<g>
			<path fill="#FF0033" d="M27.174,10.456c-6.75,3.654,7.125,9.188,3.938,1.5c-0.655-1.5-1.97-2.346-3.563-1.781"/>
			<g>
				<path d="M26.956,10.158c-1.38,0.767-2.713,2.075-1.854,3.727c0.675,1.292,2.33,2.036,3.698,2.256
					c1.369,0.221,2.932-0.241,3.243-1.748c0.19-0.92-0.162-2.06-0.591-2.862c-0.815-1.53-2.32-2.226-3.998-1.698
					c-0.587,0.185-0.41,0.876,0.187,0.688c1.581-0.497,2.647,0.608,3.156,2.006c0.229,0.637,0.435,1.41,0.229,2.081
					c-0.3,1.001-1.505,0.936-2.322,0.726c-1.044-0.269-2.111-0.87-2.684-1.812c-0.729-1.202,0.382-2.219,1.367-2.766
					C27.965,10.436,27.447,9.886,26.956,10.158L26.956,10.158z"/>
			</g>
		</g>
		<g>
			<path fill="#FF0033" d="M32.049,14.111c5.438-2.904,5.344,6.938,1.875,4.688"/>
			<g>
				<path d="M32.255,14.363c0.824-0.424,1.716-0.695,2.538-0.135c0.603,0.411,0.883,1.188,1.015,1.869
					c0.192,0.998-0.01,3.363-1.506,2.44c-0.326-0.201-1.193,0.251-0.754,0.521c0.782,0.483,1.79,0.579,2.5-0.101
					c0.7-0.672,0.836-1.715,0.784-2.64c-0.058-1.034-0.507-2.085-1.379-2.681c-1.085-0.741-2.548-0.329-3.608,0.218
					C31.255,14.163,31.789,14.603,32.255,14.363L32.255,14.363z"/>
			</g>
		</g>
		<g>
			<path fill="#FF0033" d="M30.737,10.831c2.222-1.451,4.207,0.827,3.694,2.804"/>
			<g>
				<path d="M31.043,10.999c1.793-1.085,3.271,1.017,2.902,2.688c-0.088,0.403,0.893,0.255,0.972-0.104
					c0.26-1.181-0.186-2.313-1.13-3.045c-0.998-0.773-2.369-0.475-3.356,0.125C29.87,11.001,30.703,11.204,31.043,10.999
					L31.043,10.999z"/>
			</g>
		</g>
		<g>
			<path fill="#FF0033" d="M34.487,19.081c4.03,2.904-1.688,7.594-1.97,3.563"/>
			<g>
				<path d="M34.032,19.25c1.277,0.959,1.828,2.429,0.947,3.855c-0.206,0.334-0.679,0.92-1.12,0.885
					c-0.652-0.055-0.813-0.982-0.858-1.478c-0.021-0.211-0.99-0.025-0.967,0.259c0.063,0.719,0.323,1.499,1.128,1.627
					c0.729,0.117,1.53-0.213,2.086-0.674c0.63-0.521,1.097-1.296,1.146-2.125c0.069-1.136-0.577-2.032-1.453-2.688
					C34.714,18.742,33.863,19.123,34.032,19.25L34.032,19.25z"/>
			</g>
		</g>
		<g>
			<path fill="#FF0033" d="M32.892,24.236c0.396,2.444-2.657,4.821-4.418,3.454"/>
			<g>
				<path d="M32.409,24.367c0.202,1.68-1.602,4.467-3.481,3.148c-0.245-0.172-1.1,0.213-0.903,0.352
					c2.372,1.658,5.658-1.227,5.354-3.76C33.345,23.86,32.373,24.064,32.409,24.367L32.409,24.367z"/>
			</g>
		</g>
		<g>
			<path fill="#FF0033" d="M27.362,23.299c4.405,1.688-0.47,8.438-3.75,6.094c-1.405-1.031-1.125-2.906-0.375-4.219"/>
			<g>
				<path d="M27.075,23.599c2.332,0.983,1.619,3.549,0.179,5c-0.755,0.758-1.852,1.217-2.88,0.765
					c-1.704-0.751-1.384-2.83-0.682-4.151c0.241-0.456-0.734-0.408-0.914-0.072c-0.874,1.645-1.003,3.742,0.841,4.746
					c1.179,0.641,2.591,0.24,3.652-0.425c2.379-1.489,3.444-5.165,0.375-6.46C27.285,22.847,26.523,23.367,27.075,23.599
					L27.075,23.599z"/>
			</g>
		</g>
		<g>
			<path fill="#FF0033" d="M13.164,19.869c-3.397,0.378-1.884-7.062,0.854-5.39"/>
			<g>
				<path d="M13.217,19.551c-2.74,0.201-1.432-5.844,0.424-4.812c0.328,0.185,1.198-0.271,0.754-0.521
					c-3.563-1.987-5.535,6.276-1.282,5.965C13.629,20.147,13.88,19.502,13.217,19.551L13.217,19.551z"/>
			</g>
		</g>
		<g>
			<path fill="#FF0033" d="M15.88,17.059c-1.781,0.656-2.3-1.822-1.645-3.229c1.22-2.813,6.198-2.721,5.834,0.404"/>
			<g>
				<path d="M15.83,16.877c-1.126,0.33-1.384-1.221-1.382-1.986c0.003-0.98,0.568-1.861,1.35-2.412
					c1.615-1.143,3.939-0.138,3.79,1.889c-0.015,0.188,0.94,0.062,0.967-0.261c0.217-2.899-3.508-2.935-5.313-1.82
					c-1.213,0.746-1.84,1.938-1.737,3.363c0.099,1.411,1.169,1.959,2.428,1.593C16.49,17.077,16.398,16.711,15.83,16.877
					L15.83,16.877z"/>
			</g>
		</g>
		<g>
			<path fill="#FF0033" d="M18.935,11.788c0.212-1.115,2.393-2.641,3.552-2.832c2.625-0.471,5.25,2.063,1.97,3.75"/>
			<g>
				<path d="M19.413,11.706c0.447-1.634,2.689-2.842,4.255-2.497c0.689,0.149,1.338,0.579,1.688,1.192
					c0.549,0.961-0.435,1.813-1.184,2.229c-0.563,0.313,0.326,0.277,0.563,0.146c0.872-0.484,1.849-1.148,1.709-2.276
					c-0.138-1.104-1.57-1.636-2.492-1.771c-1.934-0.288-4.949,1.156-5.494,3.142C18.398,12.093,19.343,11.958,19.413,11.706
					L19.413,11.706z"/>
			</g>
		</g>
		<g>
			<path fill="#FF0033" d="M29.5,15.867c1.418,0.485,2.269,3.215,0.519,5.137c-0.741,0.813-1.771,0.621-2.467,0.57"/>
			<g>
				<path d="M29.22,16.188c0.988,0.417,1.306,1.604,1.282,2.582c-0.015,0.665-0.294,1.29-0.667,1.826
					c-0.522,0.75-1.318,0.697-2.117,0.63c-0.468-0.039-0.99,0.642-0.336,0.695c1.823,0.151,3.406-0.397,3.938-2.356
					c0.406-1.502,0.016-3.363-1.541-4.021C29.379,15.373,28.656,15.951,29.22,16.188L29.22,16.188z"/>
			</g>
		</g>
		<g>
			<path fill="#FF0033" d="M19.487,15.986c-4.827-2.353-5.813,7.313-1.03,7.031c1.405-0.094,3.437-0.664,3.718-1.883"/>
			<g>
				<path d="M19.865,15.732c-3.26-1.47-5.394,1.586-4.95,4.642c0.204,1.409,1.185,2.733,2.665,2.919
					c1.706,0.213,4.438-0.394,5.077-2.208c0.134-0.379-0.846-0.259-0.973,0.101c-0.52,1.476-3.261,1.907-4.507,1.188
					c-0.853-0.493-1.196-1.561-1.329-2.472c-0.293-2.021,0.848-4.748,3.258-3.659C19.432,16.387,20.304,15.932,19.865,15.732
					L19.865,15.732z"/>
			</g>
		</g>
		<g>
			<path fill="#FF0033" d="M25.299,19.136c5.813,0.75-0.75,8.851-3.375,4.819c-0.938-1.406,0.28-3.188,1.405-4.125"/>
			<g>
				<path d="M25.13,19.479c1,0.148,1.991,0.616,2.013,1.755c0.02,0.971-0.614,1.873-1.269,2.528
					c-0.656,0.66-1.633,1.188-2.563,0.843c-0.634-0.232-1.063-0.936-1.211-1.552c-0.267-1.124,0.778-2.337,1.55-3.01
					c0.492-0.434-0.278-0.738-0.638-0.426c-1.583,1.384-2.815,3.699-0.828,5.31c1.104,0.894,2.657,0.44,3.724-0.252
					c1.123-0.73,2.089-2.036,2.21-3.396c0.142-1.574-1.313-2.289-2.646-2.486C25.004,18.724,24.479,19.383,25.13,19.479
					L25.13,19.479z"/>
			</g>
		</g>
		<g>
			<path fill="#FF0033" d="M23.987,13.456c-1.78-1.221-4.595,0.279-4.5,2.529c0.188,2.906,5.345,5.063,6.75,1.875
				C26.987,16.174,25.58,14.206,23.987,13.456"/>
			<g>
				<path d="M24.357,13.17c-1.691-1.01-3.82-0.397-4.901,1.212c-1.232,1.833,0.188,3.845,1.813,4.778
					c1.576,0.905,3.609,0.921,4.924-0.426c1.896-1.939-0.058-4.633-1.928-5.613c-0.41-0.216-1.103,0.382-0.554,0.67
					c1.532,0.805,2.793,2.547,1.93,4.275c-0.67,1.342-2.356,1.086-3.477,0.601c-1.063-0.464-1.921-1.419-2.165-2.556
					c-0.421-1.958,2.068-3.295,3.618-2.369C23.995,13.967,24.833,13.455,24.357,13.17L24.357,13.17z"/>
			</g>
		</g>
	</g>
</g>
</svg>
