<?xml version="1.0" encoding="utf-8"?>
<!-- Generator: Adobe Illustrator 14.0.0, SVG Export Plug-In . SVG Version: 6.00 Build 43363)  -->
<!DOCTYPE svg PUBLIC "-//W3C//DTD SVG 1.0//EN" "http://www.w3.org/TR/2001/REC-SVG-20010904/DTD/svg10.dtd">
<svg version="1.0" id="svg2" xmlns:svg="http://www.w3.org/2000/svg"
	 xmlns="http://www.w3.org/2000/svg" xmlns:xlink="http://www.w3.org/1999/xlink" x="0px" y="0px" width="55.833px"
	 height="48.375px" viewBox="0 0 55.833 48.375" enable-background="new 0 0 55.833 48.375" xml:space="preserve">
<filter  id="AI_GaussianBlur_4">
	<feGaussianBlur  stdDeviation="1"></feGaussianBlur>
</filter>
<g>
	<g opacity="0.2" filter="url(#AI_GaussianBlur_4)">
		<path d="M21.799,47.538c4.805-3.298-1.272-5.531-3.75-10.971c-1.043-2.292,3.471-8.934,20.334-11.529
			C71.864,19.882,49.13,42.382,21.799,47.538"/>
	</g>
	<g>
		<g>
			<path fill="#CCFFCC" d="M21.799,47.548c2.198-6.595-7.978-11.063-17.353-21.938C0.493,21.025-1.532,7.743,16.549,2.547
				C52.448-7.765,50.01,37.235,21.799,47.548"/>
		</g>
		<g>
			<g>
				<path d="M22.775,47.462c1.317-5.144-3.465-8.864-6.855-11.931c-4.571-4.134-10.935-8.453-12.738-14.643
					C-1.091,6.242,20.308-0.308,31.198,2.303C40.8,4.604,43.303,14.844,41.718,23.39C39.71,34.208,31.496,43.144,21.386,47.022
					c-1.244,0.479-0.134,1.419,0.832,1.05c10.857-4.166,18.997-13.449,21.449-24.854c2.021-9.393-1.563-19.329-11.336-22.151
					C21.722-1.995,4.811,3.07,1.264,14.395c-1.501,4.79,0.372,9.457,3.524,13.013c3.459,3.9,7.515,7.227,11.333,10.758
					c2.701,2.499,5.726,5.495,4.704,9.47C20.598,48.512,22.57,48.259,22.775,47.462L22.775,47.462z"/>
			</g>
		</g>
	</g>
	<g>
		<g>
			<polyline fill="#00FF00" points="13.111,13.184 12.544,11.106 14.066,11.14 17.488,13.497 20.29,15.423 20.29,15.853 
				19.107,16.11 17.956,16.554 14.846,18.304 13.159,18.897 11.363,18.522 10.034,17.226 12.544,15.414 11.754,14.999 7.425,14.789 
				7.945,14.279 10.439,13.401 13.111,13.184 			"/>
			<polyline fill="#00FF00" points="22.046,15.483 23.52,10.527 24.816,8.146 25.857,7.851 25.872,9.975 27.889,8.938 31.491,8.146 
				33.384,8.317 30.825,9.664 28.62,12.381 29.116,12.746 32.044,12.833 30.876,14.608 29.792,15.43 28.178,15.853 			"/>
			<polygon fill="#00FF00" points="25.165,24.951 25.262,25.289 23.607,26.51 19.979,30.655 17.741,30.83 15.909,30.083 
				18.266,27.936 17.902,27.61 13.512,27.58 13.152,26.865 16.13,24.963 15.911,24.509 14.262,24.185 16.45,23.017 19.884,23.192 
				23.118,24.617 			"/>
			<polyline fill="#00FF00" points="26.137,24.83 26.137,24.44 29.387,19.267 31.303,17.873 31.393,18.54 30.682,20.607 
				31.176,20.815 33.305,19.767 37.116,19.021 36.838,19.49 34.064,23.181 34.43,23.453 36.928,23.289 36.012,24.83 33.803,26.473 
				30.71,26.259 			"/>
		</g>
		<g>
			<g>
				<path d="M14.446,3.158c5.444,13.52,13.305,25.254,13.688,40.293c0.022,0.91,1.962,0.532,1.942-0.199
					c-0.388-15.183-8.201-26.955-13.701-40.61C16.069,1.875,14.156,2.441,14.446,3.158L14.446,3.158z"/>
			</g>
		</g>
		<g>
			<g>
				<path d="M21.602,15.395c-3.903-0.56-5.271-5.658-9.676-4.479c-0.576,0.152-0.456,0.604,0.121,0.448
					c3.583-0.958,5.534,4.04,8.957,4.531C21.291,15.937,22.14,15.473,21.602,15.395L21.602,15.395z"/>
			</g>
		</g>
		<g>
			<g>
				<path d="M21.351,15.541c-3.758-0.513-8.105,5.939-10.798,1.41c-0.178-0.298-1.112,0.02-0.896,0.39
					c3.136,5.279,7.475-1.739,11.327-1.215C21.383,16.18,22.001,15.629,21.351,15.541L21.351,15.541z"/>
			</g>
		</g>
		<g>
			<g>
				<path d="M10.415,17.32c0.944-0.56,1.808-1.098,2.523-1.942c0.129-0.152,0.117-0.343-0.105-0.396
					c-1.861-0.424-3.835-0.392-5.733-0.393c-0.402,0-1.014,0.611-0.358,0.611c1.82,0,3.73-0.05,5.517,0.355
					c-0.035-0.131-0.07-0.262-0.104-0.394c-0.667,0.787-1.475,1.284-2.353,1.806C9.236,17.305,10.067,17.526,10.415,17.32
					L10.415,17.32z"/>
			</g>
		</g>
		<g>
			<g>
				<path d="M11.536,11.317c0.336,0.327,1.462,1.495,1.462,2.021c0.264-0.121,0.524-0.242,0.787-0.364
					c-2.59-0.161-5.076,0.434-7.246,1.871C6.108,15.132,7.085,15.09,7.3,14.949c1.759-1.166,3.783-1.636,5.879-1.505
					c0.219,0.015,0.787-0.055,0.787-0.362c0-0.54-1.119-1.723-1.525-2.117C12.223,10.752,11.321,11.108,11.536,11.317L11.536,11.317
					z"/>
			</g>
		</g>
		<g>
			<g>
				<path d="M21.863,15.858c1.153-0.832,1.64-1.947,1.872-3.321c0.319-1.896,0.19-3.924,2.396-4.632
					c0.582-0.187,0.418-0.834-0.173-0.645c-1.476,0.474-2.385,1.304-2.817,2.803c-0.553,1.908-0.081,4.049-1.914,5.369
					C20.693,15.816,21.485,16.131,21.863,15.858L21.863,15.858z"/>
			</g>
		</g>
		<g>
			<g>
				<path d="M21.635,15.983c3.4-1.187,7.033,1.773,9.877-1.503c0.402-0.464-0.52-0.631-0.812-0.295
					c-2.422,2.791-6.227,0.068-9.248,1.122C20.877,15.509,21.046,16.188,21.635,15.983L21.635,15.983z"/>
			</g>
		</g>
		<g>
			<g>
				<path d="M25.593,7.567c-0.396,0.563-0.206,2.204-0.221,2.888c-0.009,0.399,0.711,0.19,0.873,0.027
					c2.053-2.063,4.93-2.214,7.675-2.053c0.381,0.022,1.025-0.529,0.371-0.567c-3.146-0.184-6.489,0.099-8.824,2.447
					c0.291,0.01,0.582,0.021,0.873,0.029c0.013-0.593-0.169-2.283,0.154-2.739C26.758,7.228,25.781,7.301,25.593,7.567L25.593,7.567
					z"/>
			</g>
		</g>
		<g>
			<g>
				<path d="M34.031,7.86c-2.624,0.518-4.779,2.429-6.005,4.753c-0.114,0.22,0.1,0.315,0.277,0.346
					c1.229,0.199,2.444,0.345,3.687,0.186c0.5-0.063,0.771-0.704,0.108-0.619c-1.16,0.15-2.293-0.003-3.438-0.188
					c0.093,0.115,0.187,0.229,0.278,0.344c1.083-2.058,2.909-3.788,5.244-4.247C34.785,8.312,34.619,7.745,34.031,7.86L34.031,7.86z
					"/>
			</g>
		</g>
		<g>
			<g>
				<path d="M25.932,24.603c-2.214,0.453-4.046-1.132-6.063-1.748c-1.529-0.467-3.027-0.099-4.431,0.558
					c-0.584,0.271,0.304,0.349,0.582,0.219c3.568-1.667,6.197,2.161,9.758,1.433C26.2,24.977,26.6,24.467,25.932,24.603
					L25.932,24.603z"/>
			</g>
		</g>
		<g>
			<g>
				<path d="M25.609,24.98c-1.414,0.422-2.377,1.343-3.248,2.502c-1.341,1.783-2.327,3.896-4.931,2.749
					c-0.273-0.12-1.16,0.282-0.772,0.453c1.585,0.697,3.115,0.648,4.469-0.486c1.686-1.415,2.323-4.081,4.604-4.763
					C26.299,25.266,26.183,24.81,25.609,24.98L25.609,24.98z"/>
			</g>
		</g>
		<g>
			<g>
				<path d="M16.541,30.038c0.984-0.752,1.87-1.578,2.479-2.669c0.051-0.091-0.115-0.095-0.157-0.095
					c-0.88,0-1.693,0.368-2.595,0.357c-1.104-0.015-2.247-0.294-3.268-0.708c-0.259-0.105-0.976,0.293-0.911,0.317
					c1.355,0.552,2.896,0.864,4.362,0.742c0.46-0.038,1.462-0.343,1.684-0.343c-0.194,0-1.07,1.279-1.173,1.386
					c-0.392,0.408-0.843,0.762-1.289,1.104C15.487,30.271,16.366,30.171,16.541,30.038L16.541,30.038z"/>
			</g>
		</g>
		<g>
			<g>
				<path d="M12.585,27.234c0.88-0.273,1.675-0.688,2.448-1.187c0.452-0.291,1.744-0.945,1.744-1.531
					c-0.011-0.012-0.021-0.022-0.028-0.036c-0.603-0.26-1.273-0.303-1.875-0.563c-0.263-0.114-1.016,0.285-0.909,0.33
					c0.262,0.111,0.532,0.186,0.811,0.257c0.179,0.046,1.258,0.224,0.931,0.482c-0.955,0.761-2.022,1.573-3.2,1.942
					C11.951,27.104,12.025,27.41,12.585,27.234L12.585,27.234z"/>
			</g>
		</g>
		<g>
			<g>
				<path d="M26.226,24.662c2.572-1.854,2.331-5.789,5.609-6.843c0.656-0.21,0.034-0.343-0.336-0.225
					c-1.395,0.447-2.438,1.218-3.189,2.484c-0.938,1.582-1.241,3.409-2.823,4.549C25.09,24.915,26.056,24.785,26.226,24.662
					L26.226,24.662z"/>
			</g>
		</g>
		<g>
			<g>
				<path d="M25.465,25.232c2.435-0.264,4.502,1.652,6.919,1.613c1.915-0.032,3.157-0.954,4.105-2.596
					c0.092-0.158-0.811-0.094-0.955,0.158c-2.381,4.119-6.271,0.032-9.662,0.399C25.606,24.838,24.828,25.302,25.465,25.232
					L25.465,25.232z"/>
			</g>
		</g>
		<g>
			<g>
				<path d="M31.417,17.702c-0.722,1.075-1.113,2.366-1.354,3.632c-0.076,0.398,0.742,0.105,0.867,0.012
					c1.763-1.333,3.978-2.013,6.176-2.056c0.352-0.008,1.029-0.551,0.379-0.537c-2.619,0.052-5.229,0.854-7.325,2.442
					c0.289,0.006,0.579,0.01,0.868,0.014c0.23-1.211,0.597-2.46,1.289-3.493C32.56,17.35,31.589,17.444,31.417,17.702L31.417,17.702
					z"/>
			</g>
		</g>
		<g>
			<g>
				<path d="M36.887,18.872c-1.323,1.335-2.719,2.819-3.433,4.589c-0.107,0.268,0.173,0.461,0.422,0.422
					c0.942-0.147,1.894-0.022,2.834-0.17c0.534-0.084,0.735-0.827,0.082-0.727c-0.941,0.147-1.893,0.022-2.834,0.171
					c0.142,0.142,0.281,0.28,0.423,0.423c0.688-1.703,2.042-3.125,3.317-4.411C38.13,18.736,37.199,18.559,36.887,18.872
					L36.887,18.872z"/>
			</g>
		</g>
	</g>
</g>
</svg>
