<?xml version="1.0" encoding="UTF-8" standalone="no"?>
<svg
   xmlns:dc="http://purl.org/dc/elements/1.1/"
   xmlns:cc="http://creativecommons.org/ns#"
   xmlns:rdf="http://www.w3.org/1999/02/22-rdf-syntax-ns#"
   xmlns:svg="http://www.w3.org/2000/svg"
   xmlns="http://www.w3.org/2000/svg"
   xml:space="preserve"
   enable-background="new 0 0 55.833 48.375"
   viewBox="0 0 55.833 48.375"
   height="48.375px"
   width="55.833px"
   y="0px"
   x="0px"
   id="svg2"
   version="1.0"><metadata
   id="metadata4111"><rdf:RDF><cc:Work
       rdf:about=""><dc:format>image/svg+xml</dc:format><dc:type
         rdf:resource="http://purl.org/dc/dcmitype/StillImage" /><dc:title></dc:title></cc:Work></rdf:RDF></metadata><defs
   id="defs4109" />
<filter
   id="AI_GaussianBlur_4">
	<feGaussianBlur
   id="feGaussianBlur4085"
   stdDeviation="1" />
</filter>
<g
   id="g4104">
	<g
   id="g4090"
   filter="url(#AI_GaussianBlur_4)"
   opacity="0.2">
		<path
   id="path4088"
   d="M21.799,47.538c4.805-3.298-1.272-5.531-3.75-10.971c-1.043-2.292,3.471-8.934,20.334-11.529    C71.864,19.882,49.13,42.382,21.799,47.538" />
	</g>
	<g
   id="g4102">
		<g
   id="g4094">
			<path
   style="fill:#f0f0f0;fill-opacity:1"
   fill="#FFCCCC"
   id="path4092"
   d="M21.799,47.548c2.198-6.595-7.978-11.063-17.353-21.938C0.493,21.025-1.532,7.743,16.549,2.547     C52.448-7.765,50.01,37.235,21.799,47.548" />
		</g>
		<g
   id="g4100">
			<g
   id="g4098">
				<path
   id="path4096"
   d="M22.775,47.462c1.317-5.144-3.465-8.864-6.855-11.931c-4.571-4.134-10.935-8.453-12.738-14.643      C-1.091,6.242,20.308-0.308,31.198,2.303C40.8,4.604,43.303,14.844,41.718,23.39C39.71,34.208,31.496,43.144,21.386,47.022      c-1.244,0.479-0.134,1.419,0.832,1.05c10.857-4.166,18.997-13.449,21.449-24.854c2.021-9.393-1.563-19.329-11.336-22.151      C21.722-1.995,4.811,3.07,1.264,14.395c-1.501,4.79,0.372,9.457,3.524,13.013c3.459,3.9,7.515,7.227,11.333,10.758      c2.701,2.499,5.726,5.495,4.704,9.47C20.598,48.512,22.57,48.259,22.775,47.462L22.775,47.462z" />
			</g>
		</g>
	<path
   id="path6838"
   d="m 16.17912,33.448027 c -2.907851,-0.51814 -5.048097,-2.700164 -5.048097,-5.146638 0,-1.45001 0.266745,-2.245614 1.051984,-3.137693 0.79772,-0.906258 1.400641,-1.239047 2.242566,-1.237812 1.630336,0.0024 2.558609,0.681627 2.558609,1.872179 0,0.761606 -0.149695,1.080405 -1.030625,2.194865 -0.353878,0.44769 -0.686782,0.986767 -0.739785,1.197954 -0.135579,0.540187 0.351961,1.396797 0.86882,1.526521 0.934986,0.234666 2.509603,-0.563387 3.884634,-1.968824 1.061868,-1.08535 1.852879,-2.358031 2.738186,-4.405545 L 23.500805,22.50347 22.846622,22.284498 C 22.486821,22.164063 21.904826,21.76675 21.5533,21.401581 c -0.595765,-0.618887 -0.684536,-0.656258 -1.308072,-0.550677 -1.041681,0.176385 -2.191056,0.107173 -2.707049,-0.163011 -0.602604,-0.315535 -1.433061,-1.198521 -1.831331,-1.947168 -0.474161,-0.891303 -0.434645,-3.764208 0.06901,-5.016993 1.001078,-2.490075 3.636105,-4.6235392 6.727018,-5.4465673 0.731016,-0.1946495 1.71686,-0.2894364 3.010197,-0.2894214 1.674655,1.83e-5 2.236539,0.080535 4.348061,0.6230622 2.393114,0.614879 4.745059,0.911348 5.575799,0.7028453 0.234471,-0.058849 0.778031,-0.4114079 1.20791,-0.7834656 0.864093,-0.7478671 1.223454,-0.7828373 1.527417,-0.1486377 0.233777,0.4877562 -0.06066,2.2512935 -0.526162,3.1514765 -0.779898,1.508153 -2.335891,2.520608 -3.878306,2.52354 -1.036702,0.002 -3.009261,-0.520019 -6.204558,-1.641886 -2.877586,-1.010319 -4.306125,-1.201931 -5.905691,-0.792142 -1.876631,0.480771 -3.284203,1.500347 -4.096982,2.967655 -0.425414,0.767997 -0.492714,1.064836 -0.492736,2.173282 -3.1e-5,1.500759 0.310189,2.077671 1.324877,2.463864 0.805833,0.306703 1.82763,0.08931 1.894205,-0.402995 0.267889,-1.980986 0.803317,-2.977351 1.706583,-3.175741 0.550299,-0.120866 1.412467,0.248225 1.576135,0.674736 0.248065,0.646446 0.09164,1.659494 -0.387284,2.508094 l -0.491167,0.870299 0.458509,0.43928 c 0.832291,0.797385 1.075339,0.640539 2.105088,-1.358477 1.761965,-3.420444 2.990689,-4.613621 4.770655,-4.632645 0.6492,-0.0069 0.762711,0.04261 0.806833,0.35221 0.03132,0.219821 -0.212587,0.708809 -0.625634,1.254248 -0.631943,0.834494 -1.348891,2.517744 -1.348891,3.166923 0,0.241601 0.218,0.293787 1.43627,0.343818 1.291286,0.05303 1.47023,0.100926 1.772706,0.474467 0.252701,0.312072 0.315203,0.573796 0.251121,1.051563 -0.109683,0.817741 -0.41716,1.275434 -1.239833,1.845547 -0.718464,0.497895 -1.216865,0.464939 -1.216865,-0.08046 0,-0.641256 -0.316552,-0.974513 -0.925666,-0.974513 -0.526575,0 -0.579432,0.04381 -0.579432,0.480256 0,1.010685 -0.865092,3.835676 -1.695342,5.53621 -0.949512,1.944806 -2.059305,3.205064 -3.891543,4.419159 -1.884602,1.248793 -4.462835,1.807751 -6.59003,1.428714 z"
   style="fill:#813717;stroke-width:0.16723312;fill-opacity:1" /></g>
</g>
</svg>