<?xml version="1.0" encoding="utf-8"?>
<!-- Generator: Adobe Illustrator 14.0.0, SVG Export Plug-In . SVG Version: 6.00 Build 43363)  -->
<!DOCTYPE svg PUBLIC "-//W3C//DTD SVG 1.0//EN" "http://www.w3.org/TR/2001/REC-SVG-20010904/DTD/svg10.dtd">
<svg version="1.0" id="svg2" xmlns:svg="http://www.w3.org/2000/svg"
	 xmlns="http://www.w3.org/2000/svg" xmlns:xlink="http://www.w3.org/1999/xlink" x="0px" y="0px" width="55.833px"
	 height="48.375px" viewBox="0 0 55.833 48.375" enable-background="new 0 0 55.833 48.375" xml:space="preserve">
<filter  id="AI_GaussianBlur_4">
	<feGaussianBlur  stdDeviation="1"></feGaussianBlur>
</filter>
<g>
	<g opacity="0.2" filter="url(#AI_GaussianBlur_4)">
		<path d="M21.382,47.45c4.805-3.297-1.273-5.531-3.751-10.969c-1.043-2.292,3.471-8.934,20.334-11.531
			C71.446,19.793,48.711,42.294,21.382,47.45"/>
	</g>
	<g>
		<g>
			<path fill="#FFCCFF" d="M21.182,47.45c2.198-6.595-7.978-11.063-17.353-21.938C-0.123,20.927-2.149,7.644,15.932,2.45
				C51.829-7.863,49.391,37.138,21.182,47.45"/>
			<g>
				<path d="M22.157,47.364c1.318-5.142-3.464-8.863-6.856-11.931C10.729,31.301,4.367,26.98,2.563,20.791
					C-1.707,6.144,19.688-0.405,30.579,2.205c9.601,2.301,12.104,12.542,10.519,21.088C39.09,34.11,30.877,43.047,20.767,46.926
					c-1.245,0.478-0.133,1.419,0.831,1.049c10.859-4.166,18.996-13.45,21.45-24.854c2.021-9.393-1.564-19.329-11.336-22.151
					C21.102-2.096,4.191,2.973,0.643,14.295c-1.5,4.79,0.373,9.458,3.525,13.013c3.459,3.901,7.514,7.226,11.333,10.758
					c2.702,2.498,5.725,5.494,4.706,9.47C19.982,48.414,21.953,48.161,22.157,47.364L22.157,47.364z"/>
			</g>
		</g>
		<g>
			<g>
				<path d="M13.31,15.528c-0.138,1.869,0.008,3.708,0.191,5.567c0.021,0.212,0.994,0.022,0.966-0.259
					c-0.183-1.859-0.33-3.699-0.191-5.567C14.288,15.103,13.332,15.222,13.31,15.528L13.31,15.528z"/>
			</g>
		</g>
		<g>
			<g>
				<path d="M26.507,10.605c1.044,2.102,2.223,4.113,3.67,5.966c0.146,0.188,1.063-0.134,0.908-0.333
					c-1.426-1.827-2.583-3.819-3.613-5.892C27.35,10.1,26.424,10.438,26.507,10.605L26.507,10.605z"/>
			</g>
		</g>
		<g>
			<g>
				<path d="M20.021,13.141c0.525,3.529,1.822,7.036,3.008,10.389c0.084,0.238,1.039-0.054,0.966-0.259
					c-1.186-3.354-2.482-6.859-3.008-10.389C20.956,12.675,19.982,12.884,20.021,13.141L20.021,13.141z"/>
			</g>
		</g>
		<g>
			<path fill="#FF3333" d="M30.432,15.848c6.27-1.831,6.496,7.677,4.629,10.024l0,0C30.85,25.258,26.313,17.511,30.432,15.848z"/>
			<g>
				<path d="M30.506,16.126c4.893-1.254,5.807,4.887,4.84,8.343c-0.333,1.188-0.787,1.065-1.847,0.484
					c-1.021-0.56-1.851-1.447-2.565-2.346c-1.322-1.664-2.988-5.254-0.33-6.518c0.465-0.221,0.053-0.67-0.344-0.481
					c-5.167,2.456,1.149,9.87,4.675,10.556c0.151,0.029,0.354-0.039,0.445-0.166c1.438-1.986,1.312-5.069,0.653-7.308
					c-0.791-2.685-3.039-3.795-5.676-3.119C29.886,15.691,30.037,16.247,30.506,16.126z"/>
			</g>
		</g>
		<g>
			<path fill="#FF3333" d="M14.75,29.851c-4.053-1.826-5.154-8.667-0.312-8.967c1.853,0.908,2.171,1.003,2.583,1.633
				C18.598,24.936,16.522,28.063,14.75,29.851z"/>
			<g>
				<path d="M15.136,29.627c-2.497-1.234-4.517-4.852-2.815-7.472c1.34-2.063,4.03-0.251,4.645,1.427
					c0.819,2.234-1.241,4.78-2.664,6.268c-0.27,0.282,0.694,0.211,0.895,0.002c1.707-1.785,4.044-5.022,2.274-7.52
					c-1.064-1.501-2.979-1.947-4.617-1.302c-4.272,1.682-1.368,7.624,1.509,9.044C14.626,30.205,15.518,29.815,15.136,29.627z"/>
			</g>
		</g>
		<g>
			<g>
				<path d="M36.645,4.935C25.723,10.802,13.861,16.88,1.258,17.244c-1.05,0.03-1.528,1.323-0.206,1.285
					c12.987-0.375,25.171-6.544,36.414-12.584C38.631,5.319,37.57,4.438,36.645,4.935L36.645,4.935z"/>
			</g>
		</g>
		<g>
			<path fill="#FF3333" d="M23.511,23.4c-3.251,1-4.201,6.864-1.749,10.375c0.993,1.424,3.035,3.359,4.996,4.011
				C30.758,34.161,30.012,22.776,23.511,23.4"/>
			<g>
				<path d="M23.324,23.213c-2.365,0.957-3.507,3.461-3.426,5.952c0.132,4.063,2.739,7.323,6.475,8.849
					c0.226,0.093,0.597,0.016,0.771-0.156c3.886-3.864,3.82-15.049-3.442-14.721c-0.341,0.016-1.03,0.557-0.381,0.527
					c5.656-0.255,6.003,7.382,4.778,11.238c-0.12,0.378-0.911,2.675-1.691,2.356c-1.687-0.689-3.12-2.246-4.196-3.668
					c-2.014-2.662-2.113-8.547,1.487-10.003C24.327,23.333,23.75,23.041,23.324,23.213L23.324,23.213z"/>
			</g>
		</g>
	</g>
</g>
</svg>
