<?xml version="1.0" encoding="utf-8"?>
<!-- Generator: Adobe Illustrator 14.0.0, SVG Export Plug-In . SVG Version: 6.00 Build 43363)  -->
<!DOCTYPE svg PUBLIC "-//W3C//DTD SVG 1.0//EN" "http://www.w3.org/TR/2001/REC-SVG-20010904/DTD/svg10.dtd">
<svg version="1.0" id="svg2" xmlns:svg="http://www.w3.org/2000/svg"
	 xmlns="http://www.w3.org/2000/svg" xmlns:xlink="http://www.w3.org/1999/xlink" x="0px" y="0px" width="55.833px"
	 height="48.375px" viewBox="0 0 55.833 48.375" enable-background="new 0 0 55.833 48.375" xml:space="preserve">
<filter  id="AI_GaussianBlur_4">
	<feGaussianBlur  stdDeviation="1"></feGaussianBlur>
</filter>
<g>
	<g opacity="0.2" filter="url(#AI_GaussianBlur_4)">
		<path d="M21.799,47.538c4.805-3.298-1.272-5.531-3.75-10.971c-1.043-2.292,3.471-8.934,20.334-11.529
			C71.864,19.882,49.13,42.382,21.799,47.538"/>
	</g>
	<g>
		<g>
			<path fill="#FFCCFF" d="M21.799,47.548c2.198-6.595-7.978-11.063-17.353-21.938C0.493,21.025-1.532,7.743,16.549,2.547
				C52.448-7.765,50.01,37.235,21.799,47.548"/>
		</g>
		<g>
			<g>
				<path d="M22.775,47.462c1.317-5.144-3.465-8.864-6.855-11.931c-4.571-4.134-10.935-8.453-12.738-14.643
					C-1.091,6.242,20.308-0.308,31.198,2.303C40.8,4.604,43.303,14.844,41.718,23.39C39.71,34.208,31.496,43.144,21.386,47.022
					c-1.244,0.479-0.134,1.419,0.832,1.05c10.857-4.166,18.997-13.449,21.449-24.854c2.021-9.393-1.563-19.329-11.336-22.151
					C21.722-1.995,4.811,3.07,1.264,14.395c-1.501,4.79,0.372,9.457,3.524,13.013c3.459,3.9,7.515,7.227,11.333,10.758
					c2.701,2.499,5.726,5.495,4.704,9.47C20.598,48.512,22.57,48.259,22.775,47.462L22.775,47.462z"/>
			</g>
		</g>
		<g>
			<polygon fill="#FF3333" points="18.433,23.099 22.25,20.248 26.461,20.043 29.763,20.533 32.53,24.684 33.229,29.797 
				31.647,34.455 29.979,36.195 27.718,37.069 24.556,36.395 20.142,33.536 17.235,28.791 17.235,25.5 			"/>
			<g>
				<g>
					<path d="M43.734,20.821c-5.406-4.738-10.21-11.851-17.22-14.315c-8.316-2.927-6.492,10.024-5.287,13.976
						c0.121,0.397,2.043-0.151,1.933-0.518c-1.117-3.661-1.993-8.128-0.555-11.835c1.146-2.952,6.139,1.209,7.42,2.199
						c4.314,3.333,7.8,7.554,11.883,11.134C42.278,21.785,43.974,21.033,43.734,20.821L43.734,20.821z"/>
				</g>
			</g>
			<g>
				<path fill="#FF3333" d="M22.114,20.175c-2.437,0.989-5.748-0.201-8.209-0.967c1.285,3.829,6.373,4.618,8.576,1.111"/>
				<g>
					<path d="M21.943,20.05c-2.477,0.852-5.284-0.296-7.645-1.037c-0.136-0.042-0.972,0.079-0.878,0.325
						c1.604,4.207,7.096,4.457,9.536,0.902c0.085-0.123-0.79-0.078-0.955,0.161c-2.228,3.242-6.365,1.953-7.614-1.322
						c-0.293,0.106-0.586,0.216-0.878,0.323c2.858,0.898,5.815,1.915,8.773,0.896C22.934,20.077,22.322,19.92,21.943,20.05
						L21.943,20.05z"/>
				</g>
			</g>
			<g>
				<path fill="#FF3333" d="M22.106,20.3c2.038-0.636,3.436-3.188,3.313-5.446l0,0l0,0c4.27,1.996,1.054,5.694-2.364,6.377"/>
				<g>
					<path d="M22.293,20.486c2.372-0.861,3.659-3.318,3.61-5.762c-0.29,0.119-0.58,0.238-0.869,0.357
						c1.397,0.706,2.437,1.866,1.639,3.449c-0.684,1.352-2.271,2.152-3.68,2.472c-0.587,0.132-0.455,0.588,0.123,0.458
						c1.754-0.396,3.501-1.346,4.451-2.921c1.036-1.722-0.246-3.147-1.763-3.913c-0.237-0.12-0.875,0.026-0.869,0.355
						c0.043,2.063-0.97,4.387-3.02,5.13C21.281,20.346,21.866,20.642,22.293,20.486L22.293,20.486z"/>
				</g>
			</g>
			<g>
				<g>
					<path d="M18.535,22.528c-5.621,6.23,2.995,16.542,10.315,14.406c0.561-0.163,0.476-0.497-0.09-0.332
						c-3.727,1.087-7.765-2.364-9.751-5.148c-2.06-2.887-1.973-6.35,0.402-8.979C19.631,22.232,18.698,22.349,18.535,22.528
						L18.535,22.528z"/>
				</g>
			</g>
			<g>
				<g>
					<path d="M28.977,36.892c4.54-1.608,5.121-6.854,4.4-10.936c-0.813-4.633-3.891-7.126-8.384-5.667
						c-0.653,0.212-0.036,0.368,0.342,0.246c8.145-2.646,10.224,13.655,3.3,16.109C27.989,36.875,28.599,37.025,28.977,36.892
						L28.977,36.892z"/>
				</g>
			</g>
		</g>
	</g>
</g>
</svg>
