<?xml version="1.0" encoding="utf-8"?>
<!-- Generator: Adobe Illustrator 24.3.0, SVG Export Plug-In . SVG Version: 6.00 Build 0)  -->
<svg version="1.1" id="svg2" xmlns:svg="http://www.w3.org/2000/svg"
	 xmlns="http://www.w3.org/2000/svg" xmlns:xlink="http://www.w3.org/1999/xlink" x="0px" y="0px" viewBox="0 0 55.8 48.4"
	 style="enable-background:new 0 0 55.8 48.4;" xml:space="preserve">
<style type="text/css">
	.st0{opacity:0.2;filter:url(#AI_GaussianBlur_4);}
	.st1{stroke:#000000;stroke-miterlimit:10;}
	.st2{fill:#FFCCFF;stroke:#000000;stroke-miterlimit:10;}
	.st3{opacity:0.82;fill:#1A0B20;}
	.st4{opacity:0.82;}
	.st5{fill:#1A0B20;}
</style>
<filter  id="AI_GaussianBlur_4">
	<feGaussianBlur  stdDeviation="1"></feGaussianBlur>
</filter>
<g>
	<g>
		<g class="st0">
			<path class="st1" d="M21.8,47.9c4.8-3.3-1.3-5.5-3.8-11c-1-2.3,3.5-8.9,20.3-11.5C71.9,20.2,49.1,42.7,21.8,47.9"/>
		</g>
		<g>
			<g>
				<path class="st2" d="M21.8,47.5c2.2-6.6-8-11.1-17.4-21.9c-4-4.6-6-17.9,12.1-23.1C52.4-7.8,50,37.2,21.8,47.5"/>
			</g>
			<g>
				<g>
					<path d="M22.8,47.5c1.3-5.1-3.5-8.9-6.9-11.9C11.3,31.4,5,27.1,3.2,20.9C-1.1,6.2,20.3-0.3,31.2,2.3
						c9.6,2.3,12.1,12.5,10.5,21.1c-2,10.8-10.2,19.8-20.3,23.6c-1.2,0.5-0.1,1.4,0.8,1.1c10.9-4.2,19-13.4,21.4-24.9
						c2-9.4-1.6-19.3-11.3-22.2C21.7-2,4.8,3.1,1.3,14.4c-1.5,4.8,0.4,9.5,3.5,13c3.5,3.9,7.5,7.2,11.3,10.8
						c2.7,2.5,5.7,5.5,4.7,9.5C20.6,48.5,22.6,48.3,22.8,47.5L22.8,47.5z"/>
				</g>
			</g>
		</g>
	</g>
	<g>
		<path class="st3" d="M27,31.1c-0.2,0-0.4,0.1-0.5,0.2c-0.1,0-0.2,0.1-0.2,0.1c0,0-0.1-0.1-0.1-0.1c0,0,0-0.1,0-0.1
			c0,0,0-0.1,0-0.1c0-0.1,0-0.1-0.1-0.2c-0.1-0.3-0.2-0.7-0.3-1c0-0.1-0.1-0.1-0.2-0.1c0,0,0,0,0,0c-0.1-0.2-0.4-0.2-0.7-0.1
			c-0.1,0-0.1,0-0.2,0c0.1-0.5,0.1-1,0.1-1.4c0-0.1,0.2-0.2,0-0.2c0-0.2-0.2-0.2-0.2-0.4c0-0.1,0.1-0.3,0-0.3c0-0.1-0.1-0.1,0-0.2
			c0.1-0.2,0-0.3-0.3-0.2c0-0.1-0.1,0-0.1-0.1c0-0.1,0-0.3-0.3-0.3c0-0.1,0-0.1,0-0.2c0.1-0.2-0.4-0.3-0.7-0.2
			c0-0.1-0.2,0.1-0.3,0.1c0,0,0-0.1,0.1-0.1c0.1-0.1-0.1-0.2-0.3-0.2c0-0.1-0.3-0.1-0.4-0.1c0,0-0.1,0-0.1,0c0,0,0,0,0,0
			c0.1-0.1-0.2-0.2-0.4-0.1c-0.1,0-0.2,0-0.3,0c0,0-0.1-0.1-0.2-0.1c-0.1,0-0.3,0-0.4,0.1c-0.4,0-0.8,0.3-1.1,0.6
			c-0.6,0.6-0.9,1.3-0.9,2.1c-0.1,0.3-0.2,0.6-0.2,0.9c0,0.2,0.2,0.2,0.5,0.1c0,0,0,0.1-0.1,0.1c-0.1,0.2,0.3,0.2,0.3,0.2
			c0.1,0,0,0,0.1,0c-0.1,0.1,0,0.2,0,0.3c0,0.1,0.1,0.1,0.2,0.2c0,0.1-0.1,0.1-0.1,0.2c-0.1,0.2,0.2,0.2,0.4,0.1
			c0,0.1-0.1,0.1-0.1,0.2c-0.1,0.2,0.1,0.2,0.3,0.1c0,0,0,0.1,0,0.1c0,0.1,0.1,0.2,0.3,0.2c0,0,0,0,0,0.1c-0.1,0.3,0.4,0.2,0.7,0.1
			c0,0,0.1,0,0.1,0c0,0,0,0,0,0.1c0,0.1,0.1,0.2,0.2,0.2c-0.4,0.5-0.1,1.3,0.2,1.8c0.1,0.2,0.2,0.3,0.4,0.4c0,0.2,0.1,0.5,0.3,0.6
			c0.4,0.2,1,0.1,1.4-0.1c0.2-0.1,0.3-0.2,0.4-0.4c0,0.2,0.1,0.4,0.2,0.6c0.1,0.3,0.2,0.5,0.3,0.8c0.1,0.3,0.3,0.5,0.6,0.5
			c0.1,0.2,0.3,0.3,0.6,0.4c0.1,0,0.2,0,0.3,0c0.1,0.1,0.3,0.1,0.4,0c0,0,0.1,0,0.1,0c0,0,0,0,0,0c0.1,0.2,0.4,0.1,0.5,0.1
			c0.1,0,0.2-0.1,0.3-0.1c0,0,0,0,0,0c0.2,0,0.4-0.1,0.5-0.2c0.1-0.1,0.1-0.2,0.2-0.3c0.1,0,0.2-0.1,0.2-0.1c1-0.9,1.4-2.5,0.6-3.7
			C28.9,31,27.9,30.9,27,31.1z M25.4,32.2c-0.1,0.1-0.2,0.1-0.3,0.2c0,0,0,0,0,0c0,0-0.1-0.1-0.1-0.1c0.1,0,0.2,0,0.3-0.1
			C25.3,32.2,25.3,32.2,25.4,32.2z"/>
		<path d="M19.3,17c-0.1-0.3-0.2-0.5-0.3-0.8c0,0-0.1-0.1-0.1-0.1c-0.1,0-0.2,0-0.3,0c-0.1,0-0.2,0.1-0.2,0.1c0,0-0.1,0.1-0.1,0.1
			c0.1,0.3,0.2,0.6,0.4,0.9c0,0.1,0.1,0.1,0.2,0.1c0.1,0,0.2,0,0.3,0c0.1,0,0.2,0,0.3-0.1c0.1,0,0.2-0.1,0.2-0.1c0,0,0.1-0.1,0-0.1
			c-0.1,0-0.1,0-0.2,0C19.4,17,19.4,17,19.3,17z"/>
		<g class="st4">
			<path class="st5" d="M27.3,21.8c0-0.2,0.1-0.4,0.2-0.6c-0.8-0.1-1.5-0.5-2-1.1c-0.1,0.4-0.2,0.9-0.5,1.2c0,0,0,0,0,0.1
				c0.3,0.3,0.7,0.5,1.2,0.5C26.6,21.9,27,21.9,27.3,21.8z"/>
			<path class="st5" d="M31.1,19.3c-0.5,1.1-1.7,1.8-2.9,1.9c-0.3,0.6-0.3,1.4,0.1,2c0.2,0.2-0.5,0.5-0.7,0.3
				c-0.3-0.3-0.4-0.7-0.4-1.2c-0.8,0.2-1.7,0.1-2.4-0.3c-0.1,0.2-0.1,0.5-0.2,0.7c0,0,0,0,0,0c0.1,0,0.2,0,0.1,0.1
				c0,0,0,0.1-0.1,0.1c0,0,0,0,0,0c0,0.1,0,0.1,0.1,0.2c0,0.1,0.1,0.2,0.2,0.3c0.1,0.2,0.3,0.4,0.4,0.6c0.4,0.4,0.8,0.6,1.3,0.8
				c0.1,0,0.1,0,0.1,0.1c0,0,0,0,0,0c0.5-0.6,1.1-1.2,1.9-1.5c0.7-0.3,1.6-0.5,2.3-0.1c0.3,0.1,0.6,0.4,0.8,0.6
				c0.5-0.5,0.7-1.2,0.6-1.8c0,0,0,0,0,0c0,0,0-0.1,0-0.1C32.2,20.9,31.8,20,31.1,19.3z"/>
			<path class="st5" d="M30.4,23.6c-1-0.6-2,0.2-2.7,1c0,0,0,0,0,0.1c-0.7,1-0.7,2.4-0.1,3.5c0.3,0.5,0.8,0.9,1.4,0.9
				c0.5,0,1-0.1,1.4-0.3c0.4-0.2,0.7-0.6,1-0.9c0,0,0,0,0,0c0-0.1,0-0.1,0.1-0.1c0,0,0,0,0.1,0c0.2-0.4,0.4-0.9,0.4-1.4
				C31.8,25.2,31.3,24.1,30.4,23.6z"/>
			<path class="st5" d="M20.5,21c0.5,1,1.7,1.8,2.8,1.3c0.4-0.2,0.7-0.5,1-0.8c0-0.1,0-0.2,0.1-0.3c0-0.1,0.1-0.1,0.2-0.2
				c0.2-0.6,0.3-1.2,0.2-1.8c0-0.1,0.1-0.1,0.2-0.2c0,0,0-0.1,0-0.1c0-0.1,0-0.1,0-0.2c-0.1,0-0.3,0-0.3-0.2c0-0.1,0-0.2-0.1-0.3
				c0,0,0-0.1-0.1-0.1c0,0,0,0,0-0.1c0,0,0,0,0,0c0,0,0,0,0,0c-0.1-0.2-0.2-0.3-0.3-0.4c0,0-0.1-0.1-0.1-0.1c0,0-0.1-0.1,0,0
				c0,0,0,0,0,0c-0.1-0.1-0.1-0.1-0.2-0.2c0,0-0.1,0-0.1-0.1c0,0,0,0-0.1,0c0,0,0,0,0,0c0,0-0.1,0-0.1,0c0,0-0.1,0-0.1,0
				c-0.1,0-0.1-0.1-0.1-0.1c0,0.1-0.1,0.3-0.1,0.4c-0.5,1.1-1.6,1.8-2.7,1.9C20.2,19.9,20.3,20.5,20.5,21z"/>
			<path class="st5" d="M29.3,15.7c-0.9-0.5-2.1-0.3-2.8,0.6c-0.1,0.1-0.2,0.1-0.4,0.1c-0.6,0.7-0.8,1.7-0.4,2.6
				c0.4,1.1,1.5,1.8,2.6,1.6c1.2-0.1,2-1.1,2.2-2.2C30.8,17.4,30.3,16.3,29.3,15.7z M30.2,18c0,0.2,0,0.3-0.1,0.5
				c-0.1,0.2-0.1,0.3-0.3,0.5c-0.1,0.1-0.3,0.2-0.5,0.2c-0.1,0-0.2,0-0.2-0.1c0,0,0-0.1,0-0.1c0.1-0.1,0.1-0.1,0.1-0.2
				c0.1-0.2,0.1-0.4,0.1-0.6c0,0,0,0,0,0c0,0,0-0.1,0-0.1c0,0,0,0,0,0c0.1-0.1,0.2-0.1,0.2-0.1c0.1,0,0.2,0,0.3,0
				C30.1,17.9,30.2,18,30.2,18z"/>
			<path class="st5" d="M20.2,18.9c1.1,0,2.1-0.9,2.4-2c0.2-0.7,0.1-1.4-0.1-2c-0.2-0.6-0.5-1.2-1.1-1.5c-0.8-0.4-1.7-0.2-2.4,0.2
				c0,0-0.1,0.1-0.2,0.1c-1.1,0.6-1.7,2.1-1.3,3.3C17.8,18.1,19,18.9,20.2,18.9z M18.4,16.2c0.1-0.1,0.2-0.1,0.2-0.1
				c0.1,0,0.2,0,0.3,0c0,0,0.1,0,0.1,0.1c0.1,0.3,0.2,0.5,0.3,0.8c0,0,0.1,0,0.1,0c0.1,0,0.1,0,0.2,0c0,0,0,0.1,0,0.1
				c0,0.1-0.1,0.1-0.2,0.1c-0.1,0-0.2,0.1-0.3,0.1c-0.1,0-0.2,0-0.3,0c-0.1,0-0.2,0-0.2-0.1c-0.1-0.3-0.2-0.6-0.4-0.9
				C18.3,16.3,18.3,16.3,18.4,16.2z"/>
		</g>
		<g>
			<path d="M19.5,17c0,0-0.1,0-0.1,0c-0.1-0.3-0.2-0.5-0.3-0.8c0,0-0.1-0.1-0.1-0.1c-0.1,0-0.2,0-0.3,0c-0.1,0-0.2,0.1-0.2,0.1
				c0,0-0.1,0.1-0.1,0.1c0.1,0.3,0.2,0.6,0.4,0.9c0,0.1,0.1,0.1,0.2,0.1c0.1,0,0.2,0,0.3,0c0.1,0,0.2,0,0.3-0.1
				c0.1,0,0.2-0.1,0.2-0.1c0,0,0.1-0.1,0-0.1C19.6,17,19.5,17,19.5,17z"/>
			<path d="M29.4,19.2c0.2,0,0.4-0.1,0.5-0.2c0.1-0.1,0.2-0.3,0.3-0.5c0.1-0.2,0.1-0.3,0.1-0.5c0-0.1-0.1-0.1-0.1-0.1
				c-0.1,0-0.2,0-0.3,0c-0.1,0-0.2,0.1-0.2,0.1c0,0,0,0,0,0c0,0,0,0.1,0,0.1c0,0,0,0,0,0c0,0.2-0.1,0.4-0.1,0.6
				c0,0.1-0.1,0.1-0.1,0.2c0,0,0,0.1,0,0.1C29.2,19.2,29.3,19.2,29.4,19.2z"/>
			<path d="M32.5,26.3c0-0.7-0.2-1.5-0.6-2.1c0,0,0,0,0.1,0c1.8-1.4,1-4.2-0.6-5.4c0,0-0.1,0-0.2,0c0.3-1.3-0.1-2.6-1.2-3.3
				c-0.9-0.6-2.2-0.6-3.1-0.1c-2.7-2.9-4.2-6.8-4.1-10.8c0-0.4-0.7-0.3-0.7,0c-0.1,1.3,0.1,2.5,0.3,3.7c-0.1,0-0.2,0.1-0.2,0.2
				c-0.3,1.5-0.8,2.9-1.5,4.2c-1.2,0-2.5,0.6-3.4,1.3c-0.2,0.1-0.1,0.2,0,0.3c-0.5,0.7-0.8,1.5-0.6,2.4c0.2,1.4,1.6,2.4,2.9,2.5
				c0,0,0.1,0,0.1,0c-0.2,1,0.1,2.1,0.8,2.8c-0.1,0.1-0.1,0.3-0.1,0.5c0,0.1,0,0.2,0,0.3c0,0.1,0.1,0.2,0.1,0.3
				c0,0.1,0.1,0.1,0.2,0.1c0.1,0,0.2,0,0.3-0.1c0.1,0,0.2-0.1,0.2-0.2c0-0.1,0-0.1,0-0.2c0,0,0,0,0,0c0-0.1,0-0.1-0.1-0.2
				c0,0,0,0,0,0c0.9,0.4,2.1,0.2,2.9-0.3c-0.2,0.8-0.3,1.6-0.4,2.3c0,0-0.1,0-0.1,0.1c-0.2,0.3-0.3,0.6-0.5,0.9c-0.1,0-0.1,0-0.2,0
				c0,0,0,0,0-0.1c0.1-0.2-0.1-0.3-0.2-0.3c-1.5-0.2-3,0.7-3.6,2c-0.6,1.3-0.1,2.9,1,3.8c0.3,0.3,0.7,0.4,1.2,0.5
				c-0.1,0-0.3,0.1-0.3,0.2c0,0.7,0.3,1.3,0.7,1.9c0.4,0.6,1,1,1.8,1c0.3,0,0.7-0.1,1-0.3c0,0.2,0.1,0.5,0.2,0.7
				c0.6,1.1,1.8,1.8,3,1.6c0.3,0,0.6-0.1,0.9-0.3c0,0.1,0.1,0.1,0.1,0.2c0,0.1,0.1,0.1,0.2,0.1c0.1,0,0.2,0,0.3-0.1
				c0.1-0.1,0.3-0.1,0.4-0.2c0.1,0,0.2-0.1,0.2-0.1c0,0,0-0.1,0-0.2c-0.1-0.1-0.4-0.1-0.5,0c0,0,0,0,0,0c0,0,0-0.1-0.1-0.1
				c0,0,0.1,0,0.1-0.1c0.5-0.5,0.8-1.1,1-1.8c0.4-1.2-0.1-2.6-1.3-3.2c-0.8-0.4-1.6-0.4-2.4-0.1c0-0.2,0-0.4-0.1-0.6
				c-0.2-0.4-0.5-0.6-0.8-0.7c-0.1,0-0.3,0-0.4,0.1c0.3-0.8,0.3-1.6-0.1-2.4c-0.2-0.4-0.5-0.7-0.8-1c0,0,0-0.1,0-0.1
				c-0.1-0.7,0-1.4,0-2.1c0,0,0,0.1,0.1,0.1c0.4,0.5,1,0.9,1.6,1.1c0.2,0,0.4,0,0.5-0.1c0,0,0,0,0.1,0c0,0,0,0.1,0.1,0.1
				c-0.5,1-0.5,2.3,0.1,3.3c0.4,0.6,0.9,0.9,1.6,1c0.6,0.1,1.3,0,1.9-0.3c0.5-0.2,0.9-0.5,1.3-0.9c0,0,0.1,0.1,0.1,0.1
				c0.1,0,0.1,0,0.2,0c0.1,0,0.2,0,0.3-0.1c0,0,0.1,0,0.1,0c0,0,0.1-0.1,0.1-0.1c0,0,0.1-0.1,0-0.1c-0.1-0.1-0.2-0.1-0.2-0.2
				c0-0.1-0.1-0.1-0.1-0.2C32.4,27.2,32.5,26.8,32.5,26.3z M29.3,15.7c1,0.5,1.5,1.7,1.3,2.7c-0.2,1.1-1.1,2.1-2.2,2.2
				c-1.1,0.1-2.2-0.6-2.6-1.6c-0.3-0.9-0.2-1.9,0.4-2.6c0.1,0,0.3,0,0.4-0.1C27.2,15.5,28.4,15.2,29.3,15.7z M27.3,21.8
				c-0.3,0.1-0.7,0.1-1.1,0.1c-0.4-0.1-0.8-0.3-1.2-0.5c0,0,0,0,0-0.1c0.2-0.4,0.4-0.8,0.5-1.2c0.5,0.6,1.2,1,2,1.1
				C27.4,21.4,27.3,21.6,27.3,21.8z M24.1,16.8C24.1,16.8,24.1,16.8,24.1,16.8c0.6-0.8,0.9-1.6,1-2.5c0.4,0.5,0.8,1,1.2,1.4
				c-0.7,0.4-1.1,1.1-1.3,1.8C24.7,17.2,24.4,17,24.1,16.8z M21.3,12.8c0.6-1.1,1-2.2,1.4-3.4c0.4,1.4,1,2.6,1.7,3.8
				c0,1.1-0.2,2.3-0.9,3.2c0,0,0,0.1,0,0.1c-0.1,0-0.2,0.1-0.2,0.1c0.1-0.5,0.1-1,0-1.6c-0.1-0.8-0.4-1.5-1.1-2
				C21.9,13,21.6,12.9,21.3,12.8C21.3,12.8,21.3,12.8,21.3,12.8z M17.4,17c-0.4-1.2,0.2-2.7,1.3-3.3c0.1,0,0.1-0.1,0.2-0.1
				c0.8-0.4,1.6-0.6,2.4-0.2c0.6,0.3,1,0.8,1.1,1.5c0.2,0.7,0.3,1.4,0.1,2c-0.3,1-1.3,1.9-2.4,2C19,18.9,17.8,18.1,17.4,17z
				 M23.3,22.3C22.2,22.8,21,22,20.5,21c-0.2-0.5-0.3-1.1-0.2-1.7c1.2-0.1,2.2-0.9,2.7-1.9c0.1-0.1,0.1-0.3,0.1-0.4
				c0,0,0.1,0.1,0.1,0.1c0,0,0.1,0,0.1,0c0,0,0.1,0,0.1,0c0,0,0,0,0,0c0,0,0,0,0.1,0c0,0,0.1,0,0.1,0.1c0.1,0,0.1,0.1,0.2,0.2
				c0,0,0.1,0.1,0,0c0,0,0,0,0,0c0,0,0.1,0.1,0.1,0.1c0.1,0.1,0.2,0.3,0.3,0.4c0,0,0,0,0,0c0,0,0,0,0,0c0,0,0,0,0,0.1
				c0,0,0,0.1,0.1,0.1c0,0.1,0.1,0.2,0.1,0.3c0,0.1,0.2,0.2,0.3,0.2c0,0.1,0,0.1,0,0.2c0,0,0,0.1,0,0.1c-0.1,0-0.2,0.1-0.2,0.2
				c0.1,0.6,0,1.2-0.2,1.8c-0.1,0-0.2,0.1-0.2,0.2c0,0.1-0.1,0.2-0.1,0.3C24.1,21.8,23.7,22.1,23.3,22.3z M28.5,31.3
				c0.9,0.5,1.4,1.6,1.2,2.6c-0.1,0.6-0.3,1.1-0.7,1.6c-0.1-0.1-0.1-0.2-0.2-0.3c0-0.1-0.1-0.1-0.2-0.1c-0.1,0-0.2,0-0.3,0.1
				c-0.1,0.1-0.3,0.2-0.2,0.3c0.1,0.1,0.1,0.2,0.2,0.3c0,0.1,0.1,0.2,0.1,0.3c-0.2,0.1-0.4,0.2-0.6,0.2c-1,0.2-1.9-0.4-2.4-1.2
				c-0.6-1-0.3-2.4,0.5-3.2c0,0,0,0,0,0C26.5,31.1,27.6,30.8,28.5,31.3z M25.2,29.9C25.2,29.9,25.2,29.9,25.2,29.9
				C25.2,29.9,25.2,29.9,25.2,29.9C25.3,29.9,25.3,29.9,25.2,29.9c0.1,0,0.1,0.1,0.2,0.1c0,0,0,0,0,0c0,0,0,0,0,0c0,0,0.1,0,0.1,0.1
				c0.1,0.1,0.2,0.2,0.3,0.4c0.1,0.1,0.1,0.3,0.1,0.4c0,0,0,0,0,0c0,0,0,0,0,0.1c0,0,0,0.1,0,0.1c0,0,0,0.1,0,0.1c0,0,0,0,0,0
				c0,0,0,0,0,0c0,0,0,0,0,0c0,0,0,0,0,0c-0.1,0.1-0.2,0.2-0.4,0.3c0,0,0,0-0.1,0c-0.7,0.6-1,1.5-1,2.4c-0.1,0-0.1,0-0.2,0.1
				c-0.1,0.1-0.1,0.1-0.2,0.1c0,0-0.1,0-0.1,0c0,0,0,0,0,0c0,0,0,0,0,0c0,0,0,0,0,0c0,0,0,0,0,0c0,0-0.1,0,0,0c0,0,0,0-0.1,0
				c0,0-0.1,0-0.1,0c0,0,0,0,0,0c0,0,0,0,0,0c0,0-0.1,0-0.1,0c-0.1,0-0.1,0-0.2-0.1c-0.1,0-0.2-0.1-0.4-0.2
				c-0.5-0.3-0.9-0.9-1.1-1.4c-0.1-0.3-0.2-0.6-0.2-0.9c0,0,0,0,0,0c0.9,0.1,1.9-0.1,2.6-0.7C24.7,30.7,25,30.3,25.2,29.9
				C25.2,29.9,25.2,29.9,25.2,29.9z M24.2,30.4c-0.8,0.9-2.1,1.1-3.2,0.5c-1-0.6-1.6-1.9-1.4-3c0.1-0.8,0.7-1.5,1.3-1.9
				c0,0,0,0,0,0.1c0.1,0.1,0.4,0.1,0.5,0c0.4-0.2,0.9-0.2,1.4,0c0,0.1,0.1,0.2,0.2,0.2c0.1,0,0.2,0,0.3,0c0.4,0.2,0.8,0.5,1,0.9
				C25,28.1,24.9,29.5,24.2,30.4z M25.4,24c-0.2-0.2-0.3-0.4-0.4-0.6c-0.1-0.1-0.1-0.2-0.2-0.3c0-0.1,0-0.1-0.1-0.2c0,0,0,0,0,0
				c0,0,0.1-0.1,0.1-0.1c0-0.1-0.1-0.1-0.1-0.1c0,0,0,0,0,0c0.1-0.2,0.1-0.5,0.2-0.7c0.7,0.4,1.6,0.5,2.4,0.3c0,0.4,0.1,0.8,0.4,1.2
				c0.1,0.2,0.8-0.1,0.7-0.3c-0.4-0.6-0.5-1.4-0.1-2c1.2-0.1,2.3-0.8,2.9-1.9c1.2,1.1,1.8,3.3,0.6,4.5c-0.2-0.2-0.5-0.4-0.8-0.6
				c-0.7-0.4-1.6-0.2-2.3,0.1c-0.7,0.3-1.3,0.9-1.9,1.5c0,0,0-0.1-0.1-0.1C26.2,24.6,25.8,24.4,25.4,24z M30.4,28.7
				C29.9,28.9,29.5,29,29,29c-0.6-0.1-1.1-0.4-1.4-0.9C27,27,27,25.6,27.7,24.6c0,0,0,0,0-0.1c0.7-0.7,1.7-1.5,2.7-1
				c0.9,0.5,1.4,1.6,1.4,2.6c0,0.5-0.1,1-0.4,1.4c0,0,0,0-0.1,0c0,0-0.1,0.1-0.1,0.1c0,0,0,0,0,0C31.1,28.1,30.8,28.5,30.4,28.7z"/>
			<path d="M21.6,29.4c-0.1,0-0.1,0-0.2,0c-0.1-0.1-0.1-0.1-0.2-0.2c0,0,0,0,0,0c0,0,0,0,0,0c0,0,0,0-0.1-0.1c0,0-0.1,0-0.1,0
				c0,0-0.1,0-0.1,0c-0.1,0-0.2,0-0.2,0.1c-0.1,0-0.1,0.1-0.1,0.2c0,0.1,0,0.1,0,0.2c0,0,0,0.1,0.1,0.1c0,0,0,0,0,0
				c0.1,0.1,0.1,0.2,0.2,0.2c0,0,0,0.1,0.1,0.1c0,0,0,0,0,0c0,0,0.1,0.1,0.1,0.1c0.1,0.1,0.1,0.1,0.2,0.1c0.1,0,0.2,0,0.3,0
				c0.1,0,0.2-0.1,0.2-0.2c0,0,0,0,0-0.1c0,0,0-0.1,0-0.1c0-0.1,0.1-0.1,0.1-0.2c0,0,0-0.1,0-0.1c0,0,0-0.1,0-0.1
				C21.7,29.5,21.6,29.4,21.6,29.4z"/>
		</g>
	</g>
</g>
</svg>
