<?xml version="1.0" encoding="utf-8"?>
<!-- Generator: Adobe Illustrator 14.0.0, SVG Export Plug-In . SVG Version: 6.00 Build 43363)  -->
<!DOCTYPE svg PUBLIC "-//W3C//DTD SVG 1.0//EN" "http://www.w3.org/TR/2001/REC-SVG-20010904/DTD/svg10.dtd">
<svg version="1.0" id="svg2" xmlns:svg="http://www.w3.org/2000/svg"
	 xmlns="http://www.w3.org/2000/svg" xmlns:xlink="http://www.w3.org/1999/xlink" x="0px" y="0px" width="55.833px"
	 height="48.375px" viewBox="0 0 55.833 48.375" enable-background="new 0 0 55.833 48.375" xml:space="preserve">
<filter  id="AI_GaussianBlur_4">
	<feGaussianBlur  stdDeviation="1"></feGaussianBlur>
</filter>
<g>
	<g opacity="0.2" filter="url(#AI_GaussianBlur_4)">
		<path d="M21.799,47.538c4.805-3.298-1.272-5.531-3.75-10.972c-1.043-2.291,3.471-8.934,20.334-11.528
			C71.864,19.882,49.13,42.382,21.799,47.538"/>
	</g>
	<g>
		<g>
			<path fill="#FFCCFF" d="M21.799,47.548c2.198-6.595-7.979-11.063-17.354-21.938C0.493,21.025-1.532,7.743,16.549,2.547
				C52.448-7.765,50.01,37.234,21.799,47.548"/>
		</g>
		<g>
			<g>
				<path d="M22.775,47.462c1.317-5.144-3.465-8.864-6.854-11.931c-4.571-4.135-10.936-8.453-12.738-14.643
					C-1.091,6.242,20.308-0.308,31.198,2.303C40.8,4.604,43.303,14.844,41.718,23.39C39.71,34.208,31.496,43.145,21.386,47.021
					c-1.244,0.479-0.134,1.42,0.832,1.051c10.857-4.166,18.997-13.449,21.449-24.854c2.021-9.393-1.563-19.329-11.336-22.151
					C21.722-1.995,4.811,3.07,1.264,14.395c-1.501,4.79,0.372,9.457,3.524,13.013c3.459,3.9,7.515,7.227,11.333,10.758
					c2.7,2.499,5.726,5.495,4.704,9.47C20.598,48.512,22.57,48.259,22.775,47.462L22.775,47.462z"/>
			</g>
		</g>
	</g>
	<g>
		<polygon fill="#FF6600" points="31.685,17.104 33.502,21.908 35.334,22.519 36.717,22.405 38.64,21.31 39.505,18.581 
			38.647,16.083 36.797,14.934 34.49,14.98 32.713,15.856 		"/>
		
			<ellipse transform="matrix(0.549 -0.8358 0.8358 0.549 -4.2271 26.7296)" fill="#FF6600" cx="22.654" cy="17.281" rx="3.837" ry="4.563"/>
		<g>
			<g>
				<path d="M32.26,17.149c0.696-1.662,2.292-2.116,3.978-1.971c0.376,0.033,1.024-0.501,0.373-0.558
					c-2.169-0.188-4.418,0.504-5.315,2.646C31.162,17.583,32.126,17.471,32.26,17.149L32.26,17.149z"/>
			</g>
		</g>
		<g>
			<g>
				<path d="M36.115,15.112c4.646,0.315,3.516,9.878-2.355,6.625c-0.255-0.142-1.063,0.256-0.906,0.342
					c2.334,1.293,5.877,0.708,6.903-1.979c0.864-2.264-0.479-5.237-3.021-5.41C36.509,14.674,35.617,15.079,36.115,15.112
					L36.115,15.112z"/>
			</g>
		</g>
		<g>
			<g>
				<path d="M19.007,17.691c-0.203-1.02-0.12-2.029,0.374-2.957c0.682-1.272,2.148-1.417,3.416-1.101
					c0.428,0.105,1.145-0.519,0.555-0.665c-1.468-0.366-3.121-0.326-4.258,0.813c-1.101,1.104-1.35,2.688-1.055,4.169
					C18.132,18.412,19.099,18.162,19.007,17.691L19.007,17.691z"/>
			</g>
		</g>
		<g>
			<g>
				<path d="M23.731,21.068c-0.605,0.076-1.2,0.079-1.799-0.063c-0.232-0.057-0.514,0.002-0.684,0.183
					c-0.143,0.151-0.104,0.373,0.113,0.424c0.749,0.18,1.501,0.199,2.266,0.104c0.201-0.025,0.502-0.132,0.538-0.369
					C24.203,21.117,23.9,21.048,23.731,21.068L23.731,21.068z"/>
			</g>
		</g>
		<g>
			<g>
				<path d="M22.904,13.639c1.674,0.292,2.863,1.542,3.302,3.15c0.115,0.428,1.082,0.168,0.968-0.261
					c-0.521-1.908-1.981-3.227-3.927-3.563C22.788,12.885,22.257,13.526,22.904,13.639L22.904,13.639z"/>
			</g>
		</g>
		<g>
			<path fill="#FF6600" d="M12.931,14.151c-0.357-2.216-3.778-3.526-5.332-2.777c-2.775,1.432-2.732,4.595-0.838,6.139"/>
			<g>
				<path d="M13.415,14.021c-0.519-2.353-3.744-3.675-5.897-2.791c-2.707,1.112-3.45,4.475-1.21,6.443
					c0.191,0.169,1.054-0.202,0.91-0.327c-1.599-1.405-1.738-3.688-0.267-5.242c1.716-1.81,5.035,0.079,5.497,2.175
					C12.494,14.485,13.464,14.248,13.415,14.021L13.415,14.021z"/>
			</g>
		</g>
		<g>
			<g>
				<path d="M24.559,1.142c-1.619,3.919-2.805,7.962-3.719,12.103c-0.046,0.199,0.898,0.057,0.95-0.177
					c0.914-4.138,2.101-8.181,3.72-12.101C25.573,0.815,24.659,0.899,24.559,1.142L24.559,1.142z"/>
			</g>
		</g>
		<g>
			<g>
				<path d="M22.32,7.997c3.425,2.398,6.858,4.774,9.548,8.021c0.146,0.176,1.051-0.157,0.911-0.325
					c-2.688-3.247-6.124-5.622-9.547-8.021C23.012,7.519,22.195,7.908,22.32,7.997L22.32,7.997z"/>
			</g>
		</g>
		<g>
			<g>
				<path d="M22.354,7.665c-3.529,1.318-6.731,4.149-9.341,6.791c-0.403,0.409,0.544,0.422,0.78,0.182
					c2.509-2.541,5.553-5.275,8.949-6.545C23.375,7.855,22.801,7.498,22.354,7.665L22.354,7.665z"/>
			</g>
		</g>
		<g>
			<g>
				<path d="M28.032,12.014c-0.896,0.813-1.85,1.553-2.798,2.3c-0.393,0.31,0.57,0.181,0.743,0.043
					c0.993-0.779,1.994-1.554,2.932-2.403c0.168-0.152-0.146-0.18-0.23-0.174C28.459,11.795,28.198,11.862,28.032,12.014
					L28.032,12.014z"/>
			</g>
		</g>
		<g>
			<g>
				<path d="M16.416,11.487c-1.444,0.009-2.897,0.299-4.161,1.02c-0.569,0.325-0.054,0.873,0.435,0.595
					c1.121-0.64,2.368-0.874,3.649-0.88C16.899,12.217,17.072,11.483,16.416,11.487L16.416,11.487z"/>
			</g>
		</g>
		<g>
			<g>
				<path d="M16.152,11.879c0.903,0.868,1.762,1.782,2.586,2.725c0.271,0.309,1.189-0.065,0.89-0.412
					c-0.825-0.94-1.683-1.854-2.586-2.725C16.746,11.185,15.831,11.571,16.152,11.879L16.152,11.879z"/>
			</g>
		</g>
		<path fill="none" stroke="#000000" stroke-width="0.5" d="M33.304,21.908"/>
		<g>
			<path fill="#FF6600" d="M33.24,20.795c-0.988-8.103-9.682-4.245-9.396,0.341C23.924,26.199,34.278,26.979,33.24,20.795"/>
			<g>
				<path d="M33.723,20.666c-0.459-3.144-2.392-5.473-5.748-4.793c-2.594,0.522-4.755,2.931-4.604,5.604
					C23.692,27.037,34.573,27.025,33.723,20.666c-0.062-0.452-1.028-0.21-0.967,0.259c0.727,5.423-8.152,4.88-8.423,0.176
					c-0.122-2.13,1.627-3.869,3.539-4.481c2.975-0.956,4.52,1.807,4.884,4.307C32.823,21.377,33.792,21.134,33.723,20.666
					L33.723,20.666z"/>
			</g>
		</g>
		<g>
			<path fill="#FF6600" d="M15.261,17.314c-1.024-4.503-7.487-3.538-8.843,1.083c-1.181,4.063,2.319,5.875,5.302,5.218"/>
			<g>
				<path d="M15.745,17.186c-1.059-3.882-5.979-3.763-8.38-1.167c-1.367,1.479-2.383,4.112-1.146,5.979
					c1.196,1.81,3.405,2.248,5.434,1.876c0.448-0.083,0.804-0.643,0.138-0.521c-4.11,0.755-6.313-2.961-4.248-6.428
					c1.778-2.986,6.268-3.051,7.236,0.517C14.868,17.771,15.834,17.512,15.745,17.186L15.745,17.186z"/>
			</g>
		</g>
		<g>
			<path fill="#FF6600" d="M21.619,22.266c0.746-2.837-4.532-5.935-7.231-4.716c-5.215,2.167-3.062,9.144,1.992,9.819
				C19.174,27.891,21.255,25.266,21.619,22.266"/>
			<g>
				<path d="M22.104,22.211c0.502-2.854-3.135-5.021-5.59-5.195c-2.778-0.197-5.342,1.731-5.611,4.563
					c-0.275,2.897,2.112,5.327,4.747,5.991C19.211,28.473,21.598,25.398,22.104,22.211c0.063-0.408-0.913-0.245-0.97,0.107
					c-0.524,3.313-2.956,5.894-6.4,4.134c-1.813-0.929-2.895-2.994-2.861-4.983c0.043-2.623,2.597-4.271,5.03-3.719
					c1.964,0.442,4.637,2.272,4.231,4.569C21.064,22.725,22.041,22.564,22.104,22.211L22.104,22.211z"/>
			</g>
		</g>
	</g>
</g>
</svg>
