<?xml version="1.0" encoding="utf-8"?>
<!-- Generator: Adobe Illustrator 14.0.0, SVG Export Plug-In . SVG Version: 6.00 Build 43363)  -->
<!DOCTYPE svg PUBLIC "-//W3C//DTD SVG 1.0//EN" "http://www.w3.org/TR/2001/REC-SVG-20010904/DTD/svg10.dtd">
<svg version="1.0" id="svg2" xmlns:svg="http://www.w3.org/2000/svg"
	 xmlns="http://www.w3.org/2000/svg" xmlns:xlink="http://www.w3.org/1999/xlink" x="0px" y="0px" width="55.833px"
	 height="48.375px" viewBox="0 0 55.833 48.375" enable-background="new 0 0 55.833 48.375" xml:space="preserve">
<filter  id="AI_GaussianBlur_4">
	<feGaussianBlur  stdDeviation="1"></feGaussianBlur>
</filter>
<g>
	<g opacity="0.2" filter="url(#AI_GaussianBlur_4)">
		<path d="M21.799,47.538c4.805-3.298-1.272-5.531-3.75-10.972c-1.043-2.291,3.471-8.934,20.334-11.528
			C71.864,19.882,49.13,42.382,21.799,47.538"/>
	</g>
	<g>
		<g>
			<path fill="#FFCCFF" d="M21.799,47.548c2.198-6.595-7.979-11.063-17.354-21.938C0.493,21.025-1.532,7.743,16.549,2.547
				C52.448-7.765,50.01,37.234,21.799,47.548"/>
		</g>
		<g>
			<g>
				<path d="M22.775,47.462c1.317-5.144-3.465-8.864-6.854-11.931c-4.571-4.135-10.936-8.453-12.738-14.643
					C-1.091,6.242,20.308-0.308,31.198,2.303C40.8,4.604,43.303,14.844,41.718,23.39C39.71,34.208,31.496,43.145,21.386,47.021
					c-1.244,0.479-0.134,1.42,0.832,1.051c10.857-4.166,18.997-13.449,21.449-24.854c2.021-9.393-1.563-19.329-11.336-22.151
					C21.722-1.995,4.811,3.07,1.264,14.395c-1.501,4.79,0.372,9.457,3.524,13.013c3.459,3.9,7.515,7.227,11.333,10.758
					c2.7,2.499,5.726,5.495,4.704,9.47C20.598,48.512,22.57,48.259,22.775,47.462L22.775,47.462z"/>
			</g>
		</g>
	</g>
	<g>
		<g>
			<g>
				<path d="M28.4,44.42c-0.021-8.247-0.633-16.495-1.396-24.703c-0.019-0.175-0.99,0.005-0.968,0.259
					c0.765,8.208,1.376,16.456,1.396,24.704C27.433,44.829,28.4,44.689,28.4,44.42L28.4,44.42z"/>
			</g>
		</g>
		<g>
			<path fill="#CC3366" d="M24.022,5.602c-4,3.625-3.427,14.841,3.073,14.217"/>
			<g>
				<path d="M23.581,5.625c-3.853,3.818-3.875,14.74,3.313,14.411c0.282-0.015,1.051-0.464,0.406-0.436
					c-6.826,0.313-6.261-10.628-2.837-14.021C24.694,5.35,23.758,5.449,23.581,5.625L23.581,5.625z"/>
			</g>
		</g>
		<g>
			<path fill="#CC3366" d="M23.849,5.433c1.082,0.861,4.002,2.587,4.996,4.011c2.451,3.514,1.502,9.375-1.75,10.375"/>
			<g>
				<path d="M23.401,5.619c2.094,1.566,4.458,2.765,5.654,5.2c1.309,2.662,1.015,7.533-2.146,8.813
					c-0.629,0.253-0.052,0.546,0.375,0.374c2.364-0.957,3.508-3.461,3.427-5.952c-0.148-4.613-3.028-6.271-6.41-8.807
					C24.033,5.048,23.15,5.431,23.401,5.619L23.401,5.619z"/>
			</g>
		</g>
		<g>
			<g>
				<path d="M28.531,27.646c1.64-1.271,3.104-2.764,4.502-4.293c0.024-0.028-0.76-0.024-0.949,0.184
					c-1.368,1.501-2.813,2.959-4.421,4.207C27.479,27.883,28.358,27.779,28.531,27.646L28.531,27.646z"/>
			</g>
		</g>
		<g>
			<g>
				<path d="M28.298,27.643c-1.949-1.322-3.973-2.5-6.148-3.401c-0.248-0.104-1.134,0.275-0.78,0.423
					c2.135,0.885,4.116,2.04,6.024,3.334C27.648,28.167,28.502,27.78,28.298,27.643L28.298,27.643z"/>
			</g>
		</g>
		<g>
			<path fill="#CC3366" d="M8.515,19.192L8.515,19.192c2.457-1.825,15.395,0.001,13.231,5.259"/>
			<g>
				<path d="M8.805,19.3c3.004-1.921,14.208,0.175,12.463,5.222c-0.093,0.27,0.859,0.145,0.959-0.144
					c1.979-5.723-10.646-7.438-14.002-5.292C7.678,19.436,8.538,19.471,8.805,19.3L8.805,19.3z"/>
			</g>
		</g>
		<g>
			<path fill="#CC3366" d="M9.176,19.04c-1.231,1.857,2.58,4.798,3.58,5.672c3,2.25,7.67,2.204,9.069-0.791"/>
			<g>
				<path d="M8.711,18.972c-1.193,2.535,2.883,5.854,4.892,6.78c2.979,1.374,6.904,1.411,8.688-1.766
					c0.274-0.488-0.707-0.529-0.931-0.135c-1.729,3.073-6.178,2.331-8.473,0.366c-1.25-1.07-4.173-3.15-3.249-5.112
					C9.884,18.591,8.906,18.556,8.711,18.972L8.711,18.972z"/>
			</g>
		</g>
		<g>
			<path fill="#CC3366" d="M32.427,23.586c-0.897-1.858-0.959-2.271-0.896-3.021c0.253-2.876,3.813-4.059,6.313-4.372"/>
			<g>
				<path d="M32.911,23.457c-0.731-1.538-1.325-2.854-0.379-4.458c1.002-1.698,3.448-2.275,5.248-2.523
					c0.479-0.064,0.791-0.655,0.125-0.563c-2.099,0.289-4.274,0.923-5.81,2.459c-1.634,1.639-1.017,3.53-0.152,5.345
					C32.112,24.064,33.056,23.763,32.911,23.457L32.911,23.457z"/>
			</g>
		</g>
		<g>
			<path fill="#CC3366" d="M32.556,23.443c3.998,2.75,7.352-3.313,5.287-7.25"/>
			<g>
				<path d="M32.171,23.668c4.731,2.999,8.02-3.736,6.156-7.604c-0.151-0.313-1.093-0.002-0.968,0.26
					c0.762,1.578,0.775,3.275,0.207,4.921c-0.289,0.832-0.811,1.565-1.479,2.133c-0.993,0.842-2.181,0.456-3.146-0.157
					C32.697,23.063,31.798,23.432,32.171,23.668L32.171,23.668z"/>
			</g>
		</g>
		<g>
			<g>
				<path d="M10.204,18.367c0.564,0.422-0.887,1.973-1.348,1.976c0.094,0.05,0.187,0.1,0.276,0.148
					c0.107-0.875,0.684-1.521,1.125-2.25c0.141-0.229-0.606-0.087-0.653-0.067c-0.731,0.271-1.36,0.714-1.891,1.288
					c0.309-0.031,0.613-0.063,0.921-0.095c0.321-0.5,0.466-1.076,0.687-1.623c0.091-0.226-0.461-0.125-0.527-0.109
					c-0.651,0.146-1.227,0.286-1.764,0.708c0.275-0.045,0.554-0.09,0.829-0.135c-0.116-0.135-0.016-0.197,0.025-0.341
					c0.075-0.26-0.877-0.122-0.957,0.15c-0.079,0.27-0.172,0.313,0.025,0.537c0.158,0.182,0.686-0.021,0.829-0.135
					c0.335-0.265,0.705-0.326,1.106-0.417c-0.177-0.036-0.354-0.072-0.527-0.109c-0.222,0.547-0.363,1.124-0.687,1.624
					c-0.132,0.203,0.78,0.058,0.921-0.094c0.385-0.417,0.82-0.764,1.355-0.962c-0.219-0.023-0.438-0.045-0.653-0.068
					c-0.443,0.73-1.019,1.372-1.125,2.25c-0.021,0.151,0.17,0.15,0.276,0.149c0.842-0.006,1.565-0.464,2.119-1.069
					c0.282-0.308,1.06-1.314,0.533-1.704C10.872,17.843,10.01,18.224,10.204,18.367L10.204,18.367z"/>
			</g>
		</g>
		<g>
			<g>
				<path d="M25.406,6.541c-0.348,0.305-0.871,0.341-1.313,0.375c-0.3,0.021-0.603,0.002-0.896-0.042
					c-0.271-0.04-0.391-0.019-0.155-0.244c0.785-0.763,2.061-0.983,2.983-1.55c0.375-0.229-0.289-0.192-0.408-0.162
					c-0.688,0.173-1.361,0.458-2.084,0.391c0.041,0.053,0.081,0.106,0.123,0.159c0.583-0.629,1.235-1.18,1.875-1.751
					c0.119-0.107-0.027-0.155-0.123-0.159c-0.865-0.038-1.69,0.168-2.534,0.33c-0.381,0.073-0.856,0.485-0.181,0.355
					c0.69-0.135,1.377-0.324,2.087-0.294c-0.041-0.054-0.081-0.105-0.124-0.158c-0.639,0.569-1.292,1.122-1.875,1.751
					c-0.104,0.114,0.02,0.147,0.124,0.159c0.973,0.092,1.861-0.255,2.791-0.486c-0.138-0.054-0.271-0.108-0.408-0.162
					c-1.106,0.679-2.496,0.913-3.382,1.926c-0.063,0.074-0.056,0.118,0.041,0.149c1.268,0.421,3.297,0.251,4.334-0.662
					c0.169-0.147-0.146-0.163-0.229-0.156C25.838,6.329,25.574,6.394,25.406,6.541L25.406,6.541z"/>
			</g>
		</g>
		<g>
			<g>
				<path d="M35.685,16.44c0.702,0.245,1.501,0.389,1.966,1.021c0.205-0.181,0.409-0.36,0.614-0.541
					c-0.372-0.03-0.713-0.173-0.838-0.55c-0.175-0.521,0.521-0.159,0.758-0.057c0.229,0.102,1.049-0.215,0.729-0.518
					c-0.394-0.37-0.644-0.85-1.067-1.188c-0.099,0.193-0.193,0.388-0.292,0.579c0.555-0.166,1.106-0.209,1.684-0.165
					c0.447,0.035,0.998-0.614,0.345-0.667c-0.741-0.057-1.479-0.002-2.191,0.21c-0.238,0.072-0.585,0.349-0.292,0.579
					c0.373,0.296,0.587,0.738,0.934,1.063c0.241-0.172,0.482-0.346,0.728-0.52c-0.683-0.296-1.958-0.498-2.272,0.438
					c-0.298,0.881,0.732,1.396,1.442,1.456c0.231,0.019,0.861-0.203,0.614-0.541c-0.545-0.746-1.459-0.941-2.284-1.229
					C35.865,15.685,35.115,16.242,35.685,16.44L35.685,16.44z"/>
			</g>
		</g>
	</g>
</g>
</svg>
