<?xml version="1.0" encoding="utf-8"?>
<!-- Generator: Adobe Illustrator 14.0.0, SVG Export Plug-In . SVG Version: 6.00 Build 43363)  -->
<!DOCTYPE svg PUBLIC "-//W3C//DTD SVG 1.0//EN" "http://www.w3.org/TR/2001/REC-SVG-20010904/DTD/svg10.dtd">
<svg version="1.0" id="svg2" xmlns:svg="http://www.w3.org/2000/svg"
	 xmlns="http://www.w3.org/2000/svg" xmlns:xlink="http://www.w3.org/1999/xlink" x="0px" y="0px" width="55.833px"
	 height="48.375px" viewBox="0 0 55.833 48.375" enable-background="new 0 0 55.833 48.375" xml:space="preserve">
<filter  id="AI_GaussianBlur_4">
	<feGaussianBlur  stdDeviation="1"></feGaussianBlur>
</filter>
<g>
	<g opacity="0.2" filter="url(#AI_GaussianBlur_4)">
		<path d="M21.799,47.538c4.805-3.298-1.272-5.531-3.75-10.971c-1.043-2.292,3.471-8.934,20.334-11.529
			C71.864,19.882,49.13,42.382,21.799,47.538"/>
	</g>
	<g>
		<g>
			<path fill="#CCFFCC" d="M21.799,47.548c2.198-6.595-7.978-11.063-17.353-21.938C0.493,21.025-1.532,7.743,16.549,2.547
				C52.448-7.765,50.01,37.235,21.799,47.548"/>
			<g>
				<path d="M22.775,47.462c1.317-5.144-3.465-8.864-6.855-11.931c-4.571-4.134-10.935-8.453-12.738-14.643
					C-1.091,6.242,20.308-0.308,31.198,2.303C40.8,4.604,43.303,14.844,41.718,23.39C39.71,34.208,31.496,43.144,21.386,47.022
					c-1.244,0.479-0.134,1.419,0.832,1.05c10.857-4.166,18.997-13.449,21.449-24.854c2.021-9.393-1.563-19.329-11.336-22.151
					C21.722-1.995,4.811,3.07,1.264,14.395c-1.501,4.79,0.372,9.457,3.524,13.013c3.459,3.9,7.515,7.227,11.333,10.758
					c2.701,2.499,5.726,5.495,4.704,9.47C20.598,48.512,22.57,48.259,22.775,47.462L22.775,47.462z"/>
			</g>
		</g>
		<g>
			<polygon fill="#FFFFFF" points="15.033,12.587 18.397,9.213 24.315,8.935 32.772,10.761 34.231,15.336 33.067,22.477 
				24.815,24.286 16.731,21.976 13.522,16.306 15.647,14.143 			"/>
			<g>
				<path fill="#FFCC00" d="M27.617,15.313c-0.545-3.026-5.994-2.422-8.112-0.909c-5.693,4.239,3.147,8.66,7.146,5.451
					C28.405,18.4,28.035,17.055,27.617,15.313"/>
				<g>
					<path d="M28.583,15.054c-1.238-5.063-13.38-1.813-11.751,3.31c0.807,2.53,4.659,3.324,6.913,3.035
						c1.536-0.195,2.915-0.736,4.063-1.789C29.204,18.335,28.981,16.716,28.583,15.054c-0.143-0.596-2.078-0.097-1.932,0.518
						c0.24,1.011,0.48,1.966,0.159,2.983c-0.423,1.344-1.96,1.871-3.205,1.903c-1.739,0.044-3.873-0.794-4.74-2.379
						c-2.018-3.688,6.779-6.617,7.786-2.509C26.798,16.169,28.733,15.666,28.583,15.054L28.583,15.054z"/>
				</g>
			</g>
			<g>
				<g>
					<path fill="#FFFFFF" d="M16.414,10.892c-1.998-1.815-1.147-3.693,1.576-3.573c2.543,0.121,3.271,2.061,3.813,4.239"/>
					<g>
						<path d="M16.871,10.732C16.309,10.19,15.851,9.6,15.8,8.801c-0.1-1.545,2.111-1.41,3.104-1.025
							c1.545,0.603,2.053,2.473,2.42,3.912c0.048,0.188,1.017-0.064,0.967-0.259c-0.624-2.445-1.833-4.614-4.726-4.276
							c-0.798,0.096-1.895,0.293-2.406,0.997c-0.755,1.038,0.02,2.146,0.801,2.901C16.127,11.215,16.99,10.849,16.871,10.732
							L16.871,10.732z"/>
					</g>
				</g>
				<g>
					<path fill="#FFFFFF" d="M21.804,11.558c-1.938-4.359,5.435-7.218,4.103-1.465"/>
					<g>
						<path d="M22.288,11.429c-0.662-1.569-0.209-3.34,1.313-4.208c0.521-0.298,1.119-0.157,1.532,0.255
							c0.661,0.662,0.475,1.904,0.299,2.705c-0.042,0.193,0.9,0.05,0.951-0.177c0.21-0.964,0.36-2.151-0.403-2.917
							c-0.588-0.586-1.604-0.441-2.313-0.22c-2.083,0.653-3.208,2.767-2.344,4.817C21.414,11.907,22.354,11.586,22.288,11.429
							L22.288,11.429z"/>
					</g>
				</g>
				<g>
					<path fill="#FFFFFF" d="M25.801,10.71c-0.121-1.395,1.453-3.938,3.332-3.754c4.237,0.482,0.481,4.602-1.151,5.631"/>
					<g>
						<path d="M26.291,10.679c-0.032-1.063,0.547-2.078,1.306-2.789c0.775-0.727,2.681-0.852,2.982,0.431
							c0.347,1.459-1.884,3.35-2.924,4.029c-0.546,0.358,0.238,0.744,0.649,0.477c1.323-0.868,4.515-3.819,2.813-5.535
							c-0.925-0.935-2.587-0.862-3.646-0.256c-1.222,0.697-2.207,2.288-2.162,3.707C25.326,11.27,26.305,11.137,26.291,10.679
							L26.291,10.679z"/>
					</g>
				</g>
				<g>
					<path fill="#FFFFFF" d="M30.285,10.649c1.828-1.344,2.313-1.599,4.22-1.214c2.555,0.519,1.055,3.001-1.078,3.938"/>
					<g>
						<path d="M30.6,10.852c0.641-0.468,1.338-1.082,2.145-1.219c0.709-0.121,1.707,0.045,2.298,0.444
							c1.354,0.91-1.152,2.72-1.824,3.031c-0.603,0.281-0.063,0.752,0.418,0.529c1.091-0.509,3.881-2.612,2.275-3.997
							c-0.737-0.637-1.959-0.733-2.894-0.695c-1.158,0.05-2.156,0.849-3.049,1.5C29.44,10.835,30.236,11.12,30.6,10.852L30.6,10.852
							z"/>
					</g>
				</g>
				<g>
					<path fill="#FFFFFF" d="M29.313,14.403c1.573-0.423,3.331-0.969,5.088-0.784c2.664,0.302,5.813,2.604,1.453,3.329
						c-1.757,0.304-3.634,0.121-5.271-0.484"/>
					<g>
						<path d="M29.374,14.634c2.527-0.687,5.282-1.372,7.567,0.319c1.233,0.912,0.066,1.531-1.02,1.737
							c-1.656,0.314-3.373,0.088-4.953-0.457c-0.282-0.098-1.159,0.322-0.771,0.455c1.954,0.674,4.112,0.901,6.143,0.407
							c0.794-0.194,2.389-0.608,2.118-1.736c-0.257-1.069-2.047-1.601-2.927-1.843c-2.071-0.567-4.284,0.114-6.281,0.656
							C28.675,14.331,28.797,14.79,29.374,14.634L29.374,14.634z"/>
					</g>
				</g>
				<g>
					<path fill="#FFFFFF" d="M16.476,14.403c-1.092-0.182-10.778,0.667-7.935,3.394c1.211,1.148,4.757-0.303,6.025-0.666"/>
					<g>
						<path d="M16.782,14.178c-1.286-0.163-2.699,0.093-3.967,0.283c-1.566,0.232-3.294,0.562-4.624,1.474
							c-1.068,0.732-0.604,1.849,0.415,2.351c1.704,0.84,4.386-0.477,6.013-0.967c0.563-0.169,0.466-0.551-0.103-0.38
							c-1.567,0.475-3.481,1.432-5.129,0.931c-1.603-0.487-0.644-1.846,0.305-2.243c1.813-0.766,4.505-1.246,6.479-0.997
							C16.418,14.661,17.297,14.242,16.782,14.178L16.782,14.178z"/>
					</g>
				</g>
				<g>
					<path fill="#FFFFFF" d="M16.051,19.854c-1.028,0.666-4.358,2.906-4.541,4.541c-0.604,4.663,6.179-1.453,7.086-2.604"/>
					<g>
						<path d="M15.741,19.674c-1.631,1.062-3.442,2.284-4.451,3.993c-0.484,0.823-0.555,2.65,0.732,2.758
							c1.362,0.112,2.697-0.875,3.736-1.632c1.146-0.834,2.327-1.791,3.23-2.893c0.378-0.46-0.551-0.512-0.791-0.22
							c-1.3,1.583-3.331,3.375-5.282,4.048c-1.639,0.565-0.707-2.099-0.271-2.651c0.979-1.246,2.397-2.187,3.716-3.042
							C16.91,19.677,16.091,19.446,15.741,19.674L15.741,19.674z"/>
					</g>
				</g>
				<g>
					<path fill="#FFFFFF" d="M22.551,22.208c-0.017,2.602,2.342,7.151,5.129,6.548c3.392-0.666,1.634-4.604,0.181-6.54"/>
					<g>
						<path d="M22.064,22.252c0.063,2.796,2.137,7.378,5.565,6.832c3.934-0.626,2.227-4.947,0.674-7.073
							c-0.238-0.328-1.165,0.032-0.89,0.411c1.101,1.506,3.246,5.54,0.046,6.049c-1.411,0.225-2.578-1.38-3.214-2.405
							c-0.707-1.139-1.179-2.556-1.209-3.899C23.028,21.685,22.054,21.855,22.064,22.252L22.064,22.252z"/>
					</g>
				</g>
				<g>
					<path fill="#FFFFFF" d="M28.467,23.125c1.938,3.451,10.33,1.04,4.817-2.17"/>
					<g>
						<path d="M28.027,23.342c1.158,1.927,3.986,2.226,5.931,1.472c0.764-0.296,1.537-0.816,1.661-1.687
							c0.16-1.115-1.174-1.985-1.963-2.46c-0.383-0.23-1.22,0.288-0.74,0.574c0.646,0.388,1.678,0.982,1.728,1.844
							c0.039,0.671-0.757,1.011-1.278,1.172c-1.55,0.479-3.574,0.114-4.455-1.351C28.671,22.515,27.756,22.893,28.027,23.342
							L28.027,23.342z"/>
					</g>
				</g>
				<g>
					<path fill="#FFFFFF" d="M16.84,14.525c-0.604,0-3.091-0.906-3.815-1.454c-2.906-2.117,1.756-2.725,3.571-1.997
						c0.851,0.425,1.696,1.029,2.181,1.878"/>
					<g>
						<path d="M17.014,14.203c-0.824-0.06-4.905-1.293-4.398-2.574c0.253-0.64,1.901-0.536,2.413-0.51
							c1.385,0.068,2.562,0.883,3.303,2.034c0.213,0.332,1.144-0.014,0.89-0.406c-0.877-1.363-2.251-2.143-3.843-2.273
							c-1.081-0.09-2.498-0.001-3.373,0.72c-2.033,1.678,3.655,3.585,4.66,3.655C17.098,14.879,17.671,14.248,17.014,14.203
							L17.014,14.203z"/>
					</g>
				</g>
				<g>
					<path fill="#FFFFFF" d="M30.041,16.463c1.755,0.424,7.146,0.545,7.568,2.967c0.545,3.513-6.902,0.787-8.177-0.424"/>
					<g>
						<path d="M29.877,16.826c1.646,0.361,8.169,0.512,7.191,3.452c-0.617,1.862-6.354-0.765-7.266-1.558
							c-0.336-0.293-1.17,0.196-0.739,0.57c1.678,1.463,7.021,3.607,8.784,1.371c1.056-1.343-0.532-2.754-1.625-3.275
							c-1.862-0.891-4.037-0.849-6.02-1.286C29.717,15.992,29.239,16.684,29.877,16.826L29.877,16.826z"/>
					</g>
				</g>
				<g>
					<path fill="#FFFFFF" d="M18.426,21.976c-0.528,0.508-1.283,2.117-1.586,2.904c-1.517,4.479,3.448,2.967,5.024,0.424
						c0.604-0.969,1.028-2.12,0.787-3.271"/>
					<g>
						<path d="M17.979,21.978c-1.174,1.279-3.498,6.051-0.146,6.015c2.966-0.033,5.73-3.195,5.305-6.088
							c-0.044-0.292-1.017-0.07-0.968,0.261c0.335,2.259-1.607,5.297-4.111,5.325c-2.502,0.027,0.198-4.845,0.814-5.517
							C19.135,21.688,18.172,21.769,17.979,21.978L17.979,21.978z"/>
					</g>
				</g>
				<g>
					<path fill="#FFFFFF" d="M14.658,17.129c-1.635,0.424-5.024,1.998-5.449,3.813c-0.786,3.089,5.693-0.361,6.902-1.09"/>
					<g>
						<path d="M14.577,16.829c-1.745,0.484-3.421,1.321-4.787,2.518c-0.708,0.619-1.794,2.274-0.657,3.005
							c0.943,0.607,2.592-0.113,3.493-0.448c1.315-0.487,2.593-1.138,3.8-1.853c0.563-0.333-0.258-0.608-0.627-0.39
							c-1.573,0.932-3.409,1.917-5.23,2.195C8.86,22.12,9.999,20.17,10.59,19.589c1.078-1.063,2.712-1.758,4.151-2.159
							C15.327,17.267,15.168,16.664,14.577,16.829L14.577,16.829z"/>
					</g>
				</g>
			</g>
		</g>
	</g>
</g>
</svg>
