<?xml version="1.0" encoding="utf-8"?>
<!-- Generator: Adobe Illustrator 14.0.0, SVG Export Plug-In . SVG Version: 6.00 Build 43363)  -->
<!DOCTYPE svg PUBLIC "-//W3C//DTD SVG 1.0//EN" "http://www.w3.org/TR/2001/REC-SVG-20010904/DTD/svg10.dtd">
<svg version="1.0" id="svg2" xmlns:svg="http://www.w3.org/2000/svg"
	 xmlns="http://www.w3.org/2000/svg" xmlns:xlink="http://www.w3.org/1999/xlink" x="0px" y="0px" width="55.833px"
	 height="48.375px" viewBox="0 0 55.833 48.375" enable-background="new 0 0 55.833 48.375" xml:space="preserve">
<filter  id="AI_GaussianBlur_4">
	<feGaussianBlur  stdDeviation="1"></feGaussianBlur>
</filter>
<g>
	<g opacity="0.2" filter="url(#AI_GaussianBlur_4)">
		<path d="M21.282,47.45c4.805-3.297-1.273-5.531-3.751-10.969c-1.043-2.292,3.471-8.934,20.335-11.531
			C71.346,19.793,48.612,42.294,21.282,47.45"/>
	</g>
	<g>
		<g>
			<path fill="#CCFFCC" d="M21.282,47.45c2.199-6.595-7.977-11.063-17.352-21.938C-0.023,20.928-2.048,7.644,16.032,2.45
				C51.93-7.863,49.493,37.138,21.282,47.45"/>
			<g>
				<path d="M22.257,47.364c1.319-5.142-3.463-8.863-6.855-11.931C10.83,31.301,4.467,26.98,2.663,20.792
					C-1.607,6.144,19.789-0.405,30.679,2.205c9.601,2.301,12.104,12.542,10.519,21.088C39.191,34.11,30.977,43.048,20.866,46.926
					c-1.245,0.478-0.133,1.419,0.831,1.049c10.859-4.165,18.998-13.45,21.451-24.854c2.021-9.393-1.564-19.329-11.336-22.151
					C21.202-2.096,4.291,2.973,0.743,14.296c-1.5,4.79,0.373,9.458,3.526,13.013c3.459,3.901,7.514,7.226,11.333,10.758
					c2.701,2.498,5.724,5.495,4.705,9.47C20.081,48.414,22.052,48.161,22.257,47.364L22.257,47.364z"/>
			</g>
		</g>
		<g>
			<g>
				<g>
					<path fill="#33CC66" d="M27.148,44.605c1.188-14.968-7.27-19.62-8.864-28.467c-1.398-7.756,0.584-5.668-0.961-9.878l0,0
						c3.524,3.383,7.462,3.127,11.295,10.294c3.681,6.883,2.166,13.083-0.28,27.283"/>
					<g>
						<path d="M27.631,44.477c0.457-8.072-2.052-14.201-5.924-21.07c-2.879-5.108-2.891-9.568-3.311-15.169
							c-0.097-1.291-1.32-1.539,0.128-0.458c1.351,1.008,2.911,1.754,4.318,2.683c3.38,2.233,5.554,6.011,6.763,9.795
							c2.348,7.342-0.482,16.353-1.748,23.652c-0.053,0.306,0.911,0.132,0.959-0.146c1.276-7.357,3.52-15.372,1.991-22.857
							c-0.642-3.145-2.404-5.989-4.402-8.44c-2.294-2.814-5.947-4.023-8.631-6.382c-0.166-0.146-1.031,0.025-0.935,0.306
							c0.62,1.81,0.5,3.189,0.429,5.044c-0.139,3.615,0.967,7.256,2.529,10.467c3.809,7.829,7.384,13.706,6.867,22.833
							C26.653,44.949,27.612,44.808,27.631,44.477L27.631,44.477z"/>
					</g>
				</g>
			</g>
			<g>
				<path d="M28.596,43.721c1.815-12.86-1.828-22.486-8.235-33.574c0.821,1.422,1.019,3.215,1.846,4.646
					c4.774,8.262,5.953,19.769,4.578,29.511C26.58,45.756,27.159,44.877,28.596,43.721L28.596,43.721z"/>
			</g>
		</g>
	</g>
</g>
</svg>
