<?xml version="1.0" encoding="utf-8"?>
<!-- Generator: Adobe Illustrator 14.0.0, SVG Export Plug-In . SVG Version: 6.00 Build 43363)  -->
<!DOCTYPE svg PUBLIC "-//W3C//DTD SVG 1.0//EN" "http://www.w3.org/TR/2001/REC-SVG-20010904/DTD/svg10.dtd">
<svg version="1.0" id="svg2" xmlns:svg="http://www.w3.org/2000/svg"
	 xmlns="http://www.w3.org/2000/svg" xmlns:xlink="http://www.w3.org/1999/xlink" x="0px" y="0px" width="55.833px"
	 height="48.375px" viewBox="0 0 55.833 48.375" enable-background="new 0 0 55.833 48.375" xml:space="preserve">
<filter  id="AI_GaussianBlur_4">
	<feGaussianBlur  stdDeviation="1"></feGaussianBlur>
</filter>
<g>
	<g opacity="0.2" filter="url(#AI_GaussianBlur_4)">
		<path d="M21.799,47.538c4.805-3.298-1.272-5.531-3.75-10.971c-1.043-2.292,3.471-8.934,20.334-11.529
			C71.864,19.882,49.13,42.382,21.799,47.538"/>
	</g>
	<g>
		<g>
			<path fill="#FFFFCC" d="M21.799,47.548c2.198-6.595-7.978-11.063-17.353-21.938C0.493,21.025-1.532,7.743,16.549,2.547
				C52.448-7.765,50.01,37.235,21.799,47.548"/>
		</g>
		<g>
			<g>
				<path d="M22.775,47.462c1.317-5.144-3.465-8.864-6.855-11.931c-4.571-4.134-10.935-8.453-12.738-14.643
					C-1.091,6.242,20.308-0.308,31.198,2.303C40.8,4.604,43.303,14.844,41.718,23.39C39.71,34.208,31.496,43.144,21.386,47.022
					c-1.244,0.479-0.134,1.419,0.832,1.05c10.857-4.166,18.997-13.449,21.449-24.854c2.021-9.393-1.563-19.329-11.336-22.151
					C21.722-1.995,4.811,3.07,1.264,14.395c-1.501,4.79,0.372,9.457,3.524,13.013c3.459,3.9,7.515,7.227,11.333,10.758
					c2.701,2.499,5.726,5.495,4.704,9.47C20.598,48.512,22.57,48.259,22.775,47.462L22.775,47.462z"/>
			</g>
		</g>
	</g>
	<g>
		<g>
			<path fill="#CC9933" d="M18.677,25.367c-2.767-1.934-4.129-5.457-3.959-7.847c0.342-2.896,3.239-4.093,2.897-7.163v-0.34
				c3.582,4.436,8.699-0.683,12.621,4.093c4.604,5.8,1.022,10.916-5.457,11.938C21.881,26.561,20.972,27.186,18.677,25.367"/>
			<g>
				<path d="M19.36,25.117c-2.695-2.114-4.817-5.839-3.46-9.282c0.899-2.285,2.441-3.383,2.441-6.011
					c-0.47,0.147-0.938,0.297-1.406,0.443c1.312,1.393,2.589,1.906,4.462,2.035c3.591,0.247,6.258-0.538,8.72,2.826
					c1.571,2.146,1.915,4.807,0.665,7.167C28.959,25.733,22.422,27.331,19.36,25.117c-0.335-0.242-1.592,0.335-1.363,0.5
					c4.043,2.926,11.556,0.293,14.217-3.569c2.179-3.164-0.087-7.449-2.723-9.492c-3.393-2.629-7.938,0.667-11.19-2.787
					c-0.229-0.243-1.406,0.084-1.406,0.444c0,3.043-2.862,4.679-2.897,7.504c-0.039,3.186,1.536,5.966,4.002,7.9
					C18.318,25.867,19.592,25.298,19.36,25.117L19.36,25.117z"/>
			</g>
		</g>
		<g>
			<g>
				<path d="M20.82,25.959c-5.116-1.53,4.098-7.167,6.271-7.527c0.429-0.071,0.824-0.569,0.151-0.458
					c-2.407,0.397-13.083,6.654-7.204,8.413C20.301,26.465,21.171,26.064,20.82,25.959L20.82,25.959z"/>
			</g>
		</g>
	</g>
</g>
</svg>
