<?xml version="1.0" encoding="utf-8"?>
<!-- Generator: Adobe Illustrator 14.0.0, SVG Export Plug-In . SVG Version: 6.00 Build 43363)  -->
<!DOCTYPE svg PUBLIC "-//W3C//DTD SVG 1.0//EN" "http://www.w3.org/TR/2001/REC-SVG-20010904/DTD/svg10.dtd">
<svg version="1.0" id="svg2" xmlns:svg="http://www.w3.org/2000/svg"
	 xmlns="http://www.w3.org/2000/svg" xmlns:xlink="http://www.w3.org/1999/xlink" x="0px" y="0px" width="55.833px"
	 height="48.375px" viewBox="0 0 55.833 48.375" enable-background="new 0 0 55.833 48.375" xml:space="preserve">
<filter  id="AI_GaussianBlur_4">
	<feGaussianBlur  stdDeviation="1"></feGaussianBlur>
</filter>
<g>
	<g opacity="0.2" filter="url(#AI_GaussianBlur_4)">
		<path d="M21.799,47.538c4.805-3.298-1.272-5.531-3.75-10.971c-1.043-2.292,3.471-8.934,20.334-11.529
			C71.864,19.882,49.13,42.382,21.799,47.538"/>
	</g>
	<g>
		<g>
			<path fill="#FFFFCC" d="M21.799,47.548c2.198-6.595-7.978-11.063-17.353-21.938C0.493,21.025-1.532,7.743,16.549,2.547
				C52.448-7.765,50.01,37.235,21.799,47.548"/>
		</g>
		<g>
			<g>
				<path d="M22.775,47.462c1.317-5.144-3.465-8.864-6.855-11.931c-4.571-4.134-10.935-8.453-12.738-14.643
					C-1.091,6.242,20.308-0.308,31.198,2.303C40.8,4.604,43.303,14.844,41.718,23.39C39.71,34.208,31.496,43.144,21.386,47.022
					c-1.244,0.479-0.134,1.419,0.832,1.05c10.857-4.166,18.997-13.449,21.449-24.854c2.021-9.393-1.563-19.329-11.336-22.151
					C21.722-1.995,4.811,3.07,1.264,14.395c-1.501,4.79,0.372,9.457,3.524,13.013c3.459,3.9,7.515,7.227,11.333,10.758
					c2.701,2.499,5.726,5.495,4.704,9.47C20.598,48.512,22.57,48.259,22.775,47.462L22.775,47.462z"/>
			</g>
		</g>
	</g>
	<g>
		<g>
			<path fill="#996600" d="M28.498,8.144c-6.09,3.653-22.618,4.175-15.834,15.313c4.523,7.307,21.054,12.525,22.619,0
				c0.521-5.567-4.854-8.369-7.653-12.645C27.201,10.16,27.802,8.84,28.498,8.144"/>
			<g>
				<path d="M28.037,7.888c-5.173,2.888-12.155,2.924-16.37,7.473c-4.343,4.688,1.99,11.066,5.841,13.426
					c4.124,2.525,11.121,4.29,15.27,0.815c2.085-1.745,3.656-4.781,3.252-7.58c-0.302-2.073-1.06-3.559-2.288-5.222
					c-1.517-2.051-6.862-5.485-4.562-8.618c0.421-0.571-1.054-0.499-1.36-0.078c-1.53,2.08-0.98,2.978,0.587,4.887
					c2.748,3.349,6.228,5.755,6.15,10.542c-0.148,9.458-11.402,7.266-16.659,4.044c-5.521-3.384-8.872-10.612-1.845-14.238
					c4.109-2.121,8.854-2.675,12.906-4.938C29.814,7.923,28.554,7.599,28.037,7.888L28.037,7.888z"/>
			</g>
		</g>
		<g>
			<g>
				<path d="M12.282,21.843c0.002-6.005,5.795-4.4,9.434-2.418c1.544,0.842,8.73,5.665,5.543,7.896
					c-0.539,0.378,0.268,0.639,0.625,0.388c5.495-3.847-16.57-19.07-16.575-5.773C11.307,22.407,12.282,22.233,12.282,21.843
					L12.282,21.843z"/>
			</g>
		</g>
	</g>
</g>
</svg>
