<?xml version="1.0" encoding="utf-8"?>
<!-- Generator: Adobe Illustrator 14.0.0, SVG Export Plug-In . SVG Version: 6.00 Build 43363)  -->
<!DOCTYPE svg PUBLIC "-//W3C//DTD SVG 1.0//EN" "http://www.w3.org/TR/2001/REC-SVG-20010904/DTD/svg10.dtd">
<svg version="1.0" id="svg2" xmlns:svg="http://www.w3.org/2000/svg"
	 xmlns="http://www.w3.org/2000/svg" xmlns:xlink="http://www.w3.org/1999/xlink" x="0px" y="0px" width="55.833px"
	 height="48.375px" viewBox="0 0 55.833 48.375" enable-background="new 0 0 55.833 48.375" xml:space="preserve">
<filter  id="AI_GaussianBlur_4">
	<feGaussianBlur  stdDeviation="1"></feGaussianBlur>
</filter>
<g>
	<g opacity="0.2" filter="url(#AI_GaussianBlur_4)">
		<path d="M21.282,47.45c4.805-3.297-1.273-5.531-3.751-10.969c-1.043-2.292,3.471-8.934,20.335-11.531
			C71.346,19.793,48.612,42.294,21.282,47.45"/>
	</g>
	<g>
		<g>
			<g>
				<path fill="#FFFFCC" d="M21.282,47.45c2.198-6.595-7.978-11.063-17.353-21.938C-0.023,20.928-2.049,7.644,16.032,2.45
					C51.929-7.863,49.492,37.138,21.282,47.45"/>
				<g>
					<path d="M22.257,47.364c1.318-5.142-3.464-8.863-6.856-11.931C10.829,31.301,4.466,26.98,2.662,20.792
						C-1.607,6.144,19.789-0.405,30.678,2.205c9.601,2.301,12.104,12.542,10.519,21.088C39.19,34.11,30.977,43.047,20.866,46.926
						c-1.245,0.478-0.133,1.419,0.831,1.049c10.859-4.165,18.997-13.45,21.451-24.854c2.021-9.393-1.564-19.329-11.336-22.151
						C21.202-2.096,4.291,2.973,0.743,14.296c-1.5,4.79,0.373,9.458,3.525,13.013c3.459,3.901,7.514,7.226,11.333,10.758
						c2.702,2.498,5.725,5.494,4.706,9.47C20.082,48.414,22.053,48.161,22.257,47.364L22.257,47.364z"/>
				</g>
			</g>
		</g>
	</g>
</g>
</svg>
