<?xml version="1.0" encoding="utf-8"?>
<!-- Generator: Adobe Illustrator 14.0.0, SVG Export Plug-In . SVG Version: 6.00 Build 43363)  -->
<!DOCTYPE svg PUBLIC "-//W3C//DTD SVG 1.0//EN" "http://www.w3.org/TR/2001/REC-SVG-20010904/DTD/svg10.dtd">
<svg version="1.0" id="svg2" xmlns:svg="http://www.w3.org/2000/svg"
	 xmlns="http://www.w3.org/2000/svg" xmlns:xlink="http://www.w3.org/1999/xlink" x="0px" y="0px" width="55.833px"
	 height="48.375px" viewBox="0 0 55.833 48.375" enable-background="new 0 0 55.833 48.375" xml:space="preserve">
<filter  id="AI_GaussianBlur_4">
	<feGaussianBlur  stdDeviation="1"></feGaussianBlur>
</filter>
<g>
	<g opacity="0.2" filter="url(#AI_GaussianBlur_4)">
		<path d="M21.799,47.538c4.805-3.298-1.272-5.531-3.75-10.971c-1.043-2.292,3.471-8.934,20.334-11.529
			C71.864,19.882,49.13,42.382,21.799,47.538"/>
	</g>
	<g>
		<g>
			<path fill="#FFCCCC" d="M21.799,47.548c2.198-6.595-7.978-11.063-17.353-21.938C0.493,21.025-1.532,7.743,16.549,2.547
				C52.448-7.765,50.01,37.235,21.799,47.548"/>
		</g>
		<g>
			<polygon fill="#CC0033" points="39.013,6.337 31.856,11.712 25.399,16.504 20.796,19.004 16.731,20.381 19.31,23.566 
				21.399,23.566 23.955,24.772 25.511,27.498 32.856,21.879 42.356,11.629 			"/>
			<g>
				<path fill="#CCFF99" d="M19.408,23.756c-0.563-1.125-1.688-3.188-3.188-3.375c-2.063,3.75,0.375,12.188,5.813,9.375
					C29.533,26.006,21.377,22.852,19.408,23.756"/>
				<g>
					<path d="M20.133,23.562c-0.735-1.441-1.627-3.053-3.314-3.456c-0.323-0.078-1.143,0.072-1.312,0.406
						c-1.245,2.462-0.876,5.661,0.502,7.987c1.311,2.211,3.658,2.455,5.88,1.599c1.916-0.739,5.358-2.855,3.278-5.134
						c-1.351-1.479-4.156-2.048-6.008-1.361c-0.97,0.36-0.047,0.512,0.496,0.312c1.216-0.452,3.297,0.76,4.146,1.54
						c2.427,2.229-2.595,5.088-4.507,4.343c-3.283-1.278-3.718-6.862-2.359-9.543c-0.438,0.135-0.874,0.271-1.313,0.406
						c1.563,0.373,2.387,1.971,3.061,3.294C18.862,24.298,20.242,23.777,20.133,23.562L20.133,23.562z"/>
				</g>
			</g>
			<g>
				<g>
					<path d="M38.361,6.024c-7.222,5.807-12.896,11.725-22.194,14.151c-0.844,0.22-0.73,0.63,0.109,0.41
						c9.757-2.547,15.729-8.529,23.392-14.689C39.957,5.664,38.622,5.814,38.361,6.024L38.361,6.024z"/>
				</g>
			</g>
			<g>
				<g>
					<path d="M25.438,28.016c6.639-3.889,11.912-10.142,17.033-15.771c0.572-0.633-0.84-0.592-1.162-0.236
						c-5.036,5.541-10.24,11.757-16.771,15.582C23.694,28.083,24.97,28.289,25.438,28.016L25.438,28.016z"/>
				</g>
			</g>
		</g>
		<g>
			<g>
				<path d="M22.775,47.462c1.317-5.144-3.465-8.864-6.855-11.931c-4.571-4.134-10.935-8.453-12.738-14.643
					C-1.091,6.242,20.308-0.308,31.198,2.303C40.8,4.604,43.303,14.844,41.718,23.39C39.71,34.208,31.496,43.144,21.386,47.022
					c-1.244,0.479-0.134,1.419,0.832,1.05c10.857-4.166,18.997-13.449,21.449-24.854c2.021-9.393-1.563-19.329-11.336-22.151
					C21.722-1.995,4.811,3.07,1.264,14.395c-1.501,4.79,0.372,9.457,3.524,13.013c3.459,3.9,7.515,7.227,11.333,10.758
					c2.701,2.499,5.726,5.495,4.704,9.47C20.598,48.512,22.57,48.259,22.775,47.462L22.775,47.462z"/>
			</g>
		</g>
	</g>
</g>
</svg>
