<?xml version="1.0" encoding="utf-8"?>
<!-- Generator: Adobe Illustrator 14.0.0, SVG Export Plug-In . SVG Version: 6.00 Build 43363)  -->
<!DOCTYPE svg PUBLIC "-//W3C//DTD SVG 1.0//EN" "http://www.w3.org/TR/2001/REC-SVG-20010904/DTD/svg10.dtd">
<svg version="1.0" id="svg2" xmlns:svg="http://www.w3.org/2000/svg"
	 xmlns="http://www.w3.org/2000/svg" xmlns:xlink="http://www.w3.org/1999/xlink" x="0px" y="0px" width="55.833px"
	 height="48.375px" viewBox="0 0 55.833 48.375" enable-background="new 0 0 55.833 48.375" xml:space="preserve">
<filter  id="AI_GaussianBlur_4">
	<feGaussianBlur  stdDeviation="1"></feGaussianBlur>
</filter>
<g>
	<g opacity="0.2" filter="url(#AI_GaussianBlur_4)">
		<path d="M21.799,47.538c4.805-3.298-1.272-5.531-3.75-10.971c-1.043-2.292,3.471-8.934,20.334-11.529
			C71.864,19.882,49.13,42.382,21.799,47.538"/>
	</g>
	<g>
		<g>
			<path fill="#FFCCCC" d="M21.799,47.548c2.198-6.595-7.978-11.063-17.353-21.938C0.493,21.025-1.532,7.743,16.549,2.547
				C52.448-7.765,50.01,37.235,21.799,47.548"/>
		</g>
		<g>
			<g>
				<path d="M22.775,47.462c1.317-5.144-3.465-8.864-6.855-11.931c-4.571-4.134-10.935-8.453-12.738-14.643
					C-1.091,6.242,20.308-0.308,31.198,2.303C40.8,4.604,43.303,14.844,41.718,23.39C39.71,34.208,31.496,43.144,21.386,47.022
					c-1.244,0.479-0.134,1.419,0.832,1.05c10.857-4.166,18.997-13.449,21.449-24.854c2.021-9.393-1.563-19.329-11.336-22.151
					C21.722-1.995,4.811,3.07,1.264,14.395c-1.501,4.79,0.372,9.457,3.524,13.013c3.459,3.9,7.515,7.227,11.333,10.758
					c2.701,2.499,5.726,5.495,4.704,9.47C20.598,48.512,22.57,48.259,22.775,47.462L22.775,47.462z"/>
			</g>
		</g>
	</g>
	<g>
		<g>
			<g>
				<path fill="#CC3333" d="M31.115,20.854c1.961-3.93,8.42,0.84,4.86,5.669c-3.567,4.846-10.655,2.024-9.512-3.833
					C26.935,20.683,29.342,19.13,31.115,20.854"/>
				<g>
					<path d="M31.792,20.876c1.346-2.35,3.691-0.036,4.306,1.595c0.834,2.217-0.802,4.701-2.732,5.699
						c-1.776,0.918-3.855,0.187-5.145-1.186c-0.596-0.634-0.895-1.46-1.071-2.293c-0.287-1.335,0.479-5.84,3.296-3.551
						c0.408,0.333,1.756-0.239,1.344-0.574c-1.18-0.959-2.806-1.218-4.139-0.313c-1.583,1.071-2.115,2.544-2.007,4.419
						c0.199,3.394,3.926,5.379,7.002,4.565c3.191-0.842,6.557-4.562,4.548-7.953c-1.496-2.525-5.133-3.281-6.753-0.452
						C30.09,21.44,31.549,21.301,31.792,20.876L31.792,20.876z"/>
				</g>
			</g>
			<g>
				<path fill="#CC3333" d="M18.446,19.651c3.479-2.678,7.207,4.437,1.896,7.226c-5.326,2.797-10.472-2.835-6.882-7.605
					C14.76,17.672,17.604,17.328,18.446,19.651"/>
				<g>
					<path d="M19.097,19.585c1.585-1.118,2.942,1.688,3.137,2.855c0.482,2.937-2.434,5.255-5.21,4.812
						c-2.222-0.356-3.788-2.345-4.021-4.494c-0.145-1.334,0.442-2.813,1.328-3.796c1.209-1.345,2.802-0.48,3.391,0.884
						c0.142,0.325,1.547-0.162,1.449-0.389c-0.684-1.581-2.101-1.931-3.682-1.617c-1.737,0.343-2.892,1.453-3.579,3.049
						c-1.606,3.729,1.952,7.427,5.698,6.983c3.265-0.389,6.821-2.604,5.97-6.351c-0.654-2.88-3.624-3.331-5.785-1.806
						C17.51,19.917,18.826,19.776,19.097,19.585L19.097,19.585z"/>
				</g>
			</g>
		</g>
		<g>
			<g>
				<path d="M31.458,7.788c-6.893,0.876-11.521,5.34-13.499,11.909c-0.125,0.413,0.858,0.289,0.974-0.093
					c1.823-6.053,6.003-10.359,12.424-11.177C31.864,8.363,32.12,7.704,31.458,7.788L31.458,7.788z"/>
			</g>
		</g>
		<g>
			<g>
				<path d="M31.526,20.193c-2.846-2.345-4.628-10.075-0.25-11.862c0.622-0.254,0.058-0.628-0.396-0.444
					c-4.789,1.956-3.578,9.955-0.25,12.699C30.914,20.817,31.817,20.434,31.526,20.193L31.526,20.193z"/>
			</g>
		</g>
	</g>
</g>
</svg>
