<?xml version="1.0" encoding="utf-8"?>
<!-- Generator: Adobe Illustrator 14.0.0, SVG Export Plug-In . SVG Version: 6.00 Build 43363)  -->
<!DOCTYPE svg PUBLIC "-//W3C//DTD SVG 1.0//EN" "http://www.w3.org/TR/2001/REC-SVG-20010904/DTD/svg10.dtd">
<svg version="1.0" id="svg2" xmlns:svg="http://www.w3.org/2000/svg"
	 xmlns="http://www.w3.org/2000/svg" xmlns:xlink="http://www.w3.org/1999/xlink" x="0px" y="0px" width="55.833px"
	 height="48.375px" viewBox="0 0 55.833 48.375" enable-background="new 0 0 55.833 48.375" xml:space="preserve">
<filter  id="AI_GaussianBlur_4">
	<feGaussianBlur  stdDeviation="1"></feGaussianBlur>
</filter>
<g>
	<g opacity="0.2" filter="url(#AI_GaussianBlur_4)">
		<path d="M21.799,47.538c4.805-3.298-1.272-5.531-3.75-10.971c-1.043-2.292,3.471-8.934,20.334-11.529
			C71.864,19.882,49.13,42.382,21.799,47.538"/>
	</g>
	<g>
		<g>
			<path fill="#FFCCCC" d="M21.799,47.548c2.198-6.595-7.978-11.063-17.353-21.938C0.493,21.025-1.532,7.743,16.549,2.547
				C52.448-7.765,50.01,37.235,21.799,47.548"/>
		</g>
		<g>
			<g>
				<path d="M22.775,47.462c1.317-5.144-3.465-8.864-6.855-11.931c-4.571-4.134-10.935-8.453-12.738-14.643
					C-1.091,6.242,20.308-0.308,31.198,2.303C40.8,4.604,43.303,14.844,41.718,23.39C39.71,34.208,31.496,43.144,21.386,47.022
					c-1.244,0.479-0.134,1.419,0.832,1.05c10.857-4.166,18.997-13.449,21.449-24.854c2.021-9.393-1.563-19.329-11.336-22.151
					C21.722-1.995,4.811,3.07,1.264,14.395c-1.501,4.79,0.372,9.457,3.524,13.013c3.459,3.9,7.515,7.227,11.333,10.758
					c2.701,2.499,5.726,5.495,4.704,9.47C20.598,48.512,22.57,48.259,22.775,47.462L22.775,47.462z"/>
			</g>
		</g>
	</g>
	<g>
		<g>
			<path fill="#CCFF66" d="M24.244,11.798c0.25-2.125,2-5.375,5-5.625l0,0l0,0C28.119,9.298,27.869,12.048,24.244,11.798"/>
			<g>
				<path d="M24.727,11.669c0.309-2.22,1.87-5.011,4.31-5.298c-0.09-0.038-0.179-0.075-0.27-0.113
					c-0.784,2.223-1.206,5.476-4.211,5.341c-0.207-0.009-1.106,0.378-0.625,0.399c1.391,0.062,2.783-0.206,3.782-1.239
					c1.154-1.195,1.473-3.158,2.007-4.669c0.047-0.132-0.202-0.121-0.27-0.113c-3.095,0.365-5.271,2.926-5.69,5.952
					C23.744,12.05,24.685,11.966,24.727,11.669L24.727,11.669z"/>
			</g>
		</g>
		<g>
			<path fill="#CCFF66" d="M24.049,14.589c-4.699-2.344-3.291,3.212-5.171,5.729c-2.235,2.993-4.268,7.132,0.939,10.156
				c6.166,3.581,14.787-2.431,9.721-8.377C27.008,19.129,28.845,11.811,24.049,14.589"/>
			<g>
				<path d="M24.635,14.273c-5.416-2.375-4.634,3.594-6.836,6.641c-1.423,1.965-2.928,5.081-1.315,7.385
					c1.728,2.471,4.833,3.924,7.858,3.563c5.205-0.615,9.696-5.011,5.875-10.028c-2.349-3.082-0.853-10.354-6.603-7.398
					c-0.862,0.443,0.463,0.518,0.867,0.311c2.794-1.438,3.032,5.018,3.719,6.595c0.693,1.598,1.925,2.616,2.141,4.453
					c0.429,3.643-4.108,5.557-6.982,5.36c-2.629-0.178-5.23-2.114-5.99-4.625c-0.584-1.934,0.743-4.133,1.763-5.653
					c0.716-1.069,1.162-1.961,1.477-3.23c0.392-1.592,0.518-3.765,2.857-2.738C23.829,15.064,25.16,14.504,24.635,14.273
					L24.635,14.273z"/>
			</g>
		</g>
	</g>
</g>
</svg>
