<?xml version="1.0" encoding="utf-8"?>
<!-- Generator: Adobe Illustrator 14.0.0, SVG Export Plug-In . SVG Version: 6.00 Build 43363)  -->
<!DOCTYPE svg PUBLIC "-//W3C//DTD SVG 1.0//EN" "http://www.w3.org/TR/2001/REC-SVG-20010904/DTD/svg10.dtd">
<svg version="1.0" id="svg2" xmlns:svg="http://www.w3.org/2000/svg"
	 xmlns="http://www.w3.org/2000/svg" xmlns:xlink="http://www.w3.org/1999/xlink" x="0px" y="0px" width="55.833px"
	 height="48.375px" viewBox="0 0 55.833 48.375" enable-background="new 0 0 55.833 48.375" xml:space="preserve">
<filter  id="AI_GaussianBlur_4">
	<feGaussianBlur  stdDeviation="1"></feGaussianBlur>
</filter>
<g>
	<g opacity="0.2" filter="url(#AI_GaussianBlur_4)">
		<path d="M21.799,47.538c4.805-3.298-1.272-5.531-3.75-10.971c-1.043-2.292,3.471-8.934,20.334-11.529
			C71.864,19.882,49.13,42.382,21.799,47.538"/>
	</g>
	<g>
		<g>
			<path fill="#FFCCCC" d="M21.799,47.548c2.198-6.595-7.978-11.063-17.353-21.938C0.493,21.025-1.532,7.743,16.549,2.547
				C52.448-7.765,50.01,37.235,21.799,47.548"/>
		</g>
		<g>
			<g>
				<path d="M22.775,47.462c1.317-5.144-3.465-8.864-6.855-11.931c-4.571-4.134-10.935-8.453-12.738-14.643
					C-1.091,6.242,20.308-0.308,31.198,2.303C40.8,4.604,43.303,14.844,41.718,23.39C39.71,34.208,31.496,43.144,21.386,47.022
					c-1.244,0.479-0.134,1.419,0.832,1.05c10.857-4.166,18.997-13.449,21.449-24.854c2.021-9.393-1.563-19.329-11.336-22.151
					C21.722-1.995,4.811,3.07,1.264,14.395c-1.501,4.79,0.372,9.457,3.524,13.013c3.459,3.9,7.515,7.227,11.333,10.758
					c2.701,2.499,5.726,5.495,4.704,9.47C20.598,48.512,22.57,48.259,22.775,47.462L22.775,47.462z"/>
			</g>
		</g>
	</g>
	<g>
		<g>
			<path fill="#FFFF66" d="M24.244,10.077c0.25-2.125,2-5.375,5-5.625l0,0l0,0C28.119,7.576,27.869,10.327,24.244,10.077"/>
			<g>
				<path d="M24.727,9.946c0.309-2.219,1.87-5.011,4.31-5.298c-0.09-0.038-0.179-0.074-0.27-0.111
					c-0.784,2.223-1.206,5.476-4.211,5.341c-0.207-0.009-1.106,0.378-0.625,0.397c1.391,0.063,2.783-0.206,3.782-1.237
					c1.154-1.195,1.473-3.158,2.007-4.669c0.047-0.134-0.202-0.121-0.27-0.113c-3.095,0.365-5.271,2.926-5.69,5.952
					C23.744,10.328,24.685,10.245,24.727,9.946L24.727,9.946z"/>
			</g>
		</g>
		<g>
			<path fill="#FFFF66" d="M24.099,13.943c-1.313-5.417-3.088,0.485-6.586,3.86c-4.032,3.89-3.435,8.932,1.004,12.31
				c3.261,2.482,3.942,5.761,5.767,5.768c1.437,0.005,1.651-2.244,4.412-4.617c4.094-3.521,7.141-6.484,3.037-11.656
				c-1.479-1.806-2.791-3.037-3.693-5.253c-0.819-1.888-1.063-3.316-2.873-1.97C24.692,12.737,24.345,13.452,24.099,13.943"/>
			<g>
				<path d="M24.824,13.749c-0.484-1.578-0.926-2.793-2.668-2.116c-0.931,0.361-1.563,1.431-2.114,2.175
					c-1.574,2.134-3.468,4.047-4.938,6.238c-2.492,3.714-0.182,7.816,2.735,10.332c1.534,1.323,3.924,6.201,6.324,5.831
					c2.677-0.413,4.338-4.217,6.184-5.828c3.191-2.789,5.061-5.53,3.057-9.609c-1.188-2.417-3.447-4.13-4.641-6.609
					c-0.254-0.528-0.694-2.466-1.583-2.55c-1.856-0.178-2.944,0.854-3.8,2.443c-0.162,0.301,1.222,0.18,1.438-0.222
					c1.493-2.776,3.41,2.557,3.807,3.069c1.65,2.146,3.534,3.991,4.27,6.692c0.838,3.079-2.847,5.925-4.765,7.601
					c-0.845,0.737-3.112,4.764-4.38,3.864c-1.35-0.957-2.315-3.025-3.444-4.251c-1.92-2.08-3.87-3.366-4.66-6.264
					c-0.849-3.111,1.529-5.694,3.445-7.737c1.104-1.178,3.255-6.022,4.284-2.671C23.504,14.554,24.946,14.146,24.824,13.749
					L24.824,13.749z"/>
			</g>
		</g>
	</g>
</g>
</svg>
