<?xml version="1.0" standalone="no"?>
<!DOCTYPE svg PUBLIC "-//W3C//DTD SVG 20010904//EN"
 "http://www.w3.org/TR/2001/REC-SVG-20010904/DTD/svg10.dtd">
<svg version="1.0" xmlns="http://www.w3.org/2000/svg"
 width="166.000000pt" height="166.000000pt" viewBox="0 0 166.000000 166.000000"
 preserveAspectRatio="xMidYMid meet">
<metadata>
Created by potrace 1.11, written by Peter Selinger 2001-2013
</metadata>
<g transform="translate(0.000000,166.000000) scale(0.100000,-0.100000)"
fill="#000000" stroke="none">
<path d="M682 1570 c-160 -42 -324 -166 -383 -290 -51 -105 -61 -229 -25 -315
19 -45 84 -115 123 -132 38 -16 104 -17 153 -3 32 9 37 8 60 -20 32 -40 79
-70 108 -70 12 0 22 -6 22 -13 0 -21 -47 -133 -93 -222 -49 -95 -169 -223
-238 -254 -94 -43 -169 -18 -169 58 0 26 11 49 46 93 25 32 50 73 55 91 19 70
-20 122 -104 138 -61 11 -102 -2 -150 -48 -52 -51 -78 -105 -84 -173 -11 -123
59 -230 193 -296 66 -33 84 -38 172 -42 108 -5 174 9 267 55 59 30 158 107
207 161 70 77 148 264 178 425 12 67 12 67 46 67 35 0 68 -33 62 -61 -2 -8 7
-15 20 -17 17 -3 36 9 68 41 39 39 44 49 44 89 0 69 -22 83 -126 83 -56 0 -84
4 -84 11 0 42 46 150 87 204 53 71 51 96 -8 94 -102 -4 -177 -78 -276 -271
-52 -101 -61 -113 -85 -113 -14 0 -41 12 -58 26 -28 24 -29 28 -16 43 25 27
56 104 56 139 0 44 -38 82 -82 82 -59 -1 -91 -43 -108 -142 -10 -54 -16 -67
-33 -72 -70 -19 -136 6 -162 60 -23 50 -19 149 9 209 29 63 109 138 184 173
52 25 68 27 172 26 110 0 121 -2 235 -43 298 -107 366 -121 452 -96 112 33
193 146 196 272 2 64 1 68 -22 71 -16 3 -35 -7 -60 -31 -74 -71 -149 -72 -412
-6 -186 46 -311 52 -437 19z"/>
</g>
</svg>
