<?xml version="1.0" encoding="utf-8"?>
<!-- Generator: Adobe Illustrator 14.0.0, SVG Export Plug-In . SVG Version: 6.00 Build 43363)  -->
<!DOCTYPE svg PUBLIC "-//W3C//DTD SVG 1.0//EN" "http://www.w3.org/TR/2001/REC-SVG-20010904/DTD/svg10.dtd">
<svg version="1.0" id="svg2" xmlns:svg="http://www.w3.org/2000/svg"
	 xmlns="http://www.w3.org/2000/svg" xmlns:xlink="http://www.w3.org/1999/xlink" x="0px" y="0px" width="55.833px"
	 height="48.375px" viewBox="0 0 55.833 48.375" enable-background="new 0 0 55.833 48.375" xml:space="preserve">
<filter  id="AI_GaussianBlur_4">
	<feGaussianBlur  stdDeviation="1"></feGaussianBlur>
</filter>
<g>
	<g opacity="0.2" filter="url(#AI_GaussianBlur_4)">
		<path d="M21.799,47.538c4.805-3.298-1.272-5.531-3.75-10.972c-1.043-2.291,3.471-8.934,20.334-11.528
			C71.864,19.882,49.13,42.382,21.799,47.538"/>
	</g>
	<g>
		<g>
			<path fill="#FFCCFF" d="M21.799,47.548c2.198-6.595-7.979-11.063-17.354-21.938C0.493,21.025-1.532,7.743,16.549,2.547
				C52.448-7.765,50.01,37.234,21.799,47.548"/>
		</g>
		<g>
			<g>
				<path d="M22.775,47.462c1.317-5.144-3.465-8.864-6.854-11.931c-4.571-4.135-10.936-8.453-12.738-14.643
					C-1.091,6.242,20.308-0.308,31.198,2.303C40.8,4.604,43.303,14.844,41.718,23.39C39.71,34.208,31.496,43.145,21.386,47.021
					c-1.244,0.479-0.134,1.42,0.832,1.051c10.857-4.166,18.997-13.449,21.449-24.854c2.021-9.393-1.563-19.329-11.336-22.151
					C21.722-1.995,4.811,3.07,1.264,14.395c-1.501,4.79,0.372,9.457,3.524,13.013c3.459,3.9,7.515,7.227,11.333,10.758
					c2.7,2.499,5.726,5.495,4.704,9.47C20.598,48.512,22.57,48.259,22.775,47.462L22.775,47.462z"/>
			</g>
		</g>
	</g>
	<g>
		<g>
			<path fill="#330033" d="M24.25,9.069c1.595-1.313,4.968-1.386,5.25,1.142"/>
			<g>
				<path d="M24.637,9.15c1.487-1.148,4.046-0.946,4.379,1.188c0.054,0.333,1.022,0.104,0.968-0.259
					c-0.46-2.943-4.349-2.464-6.121-1.094C23.424,9.327,24.391,9.342,24.637,9.15L24.637,9.15z"/>
			</g>
		</g>
		<polygon fill="#330033" points="12.614,14.401 14.144,14.062 18.731,12.002 21.864,9.815 26.875,8.764 29.948,10.802 
			33.155,10.802 34.511,14.732 34.698,22.104 31.864,25.939 27.198,28.091 20.53,27.439 14.78,24.023 12.448,18.748 		"/>
		<g>
			<path fill="#330033" d="M15.367,19.922c-5.938-1.183-2.196,8.455,1.566,5.998"/>
			<g>
				<path d="M15.659,19.646c-1.156-0.206-2.493-0.176-3.332,0.771c-0.729,0.822-0.619,2.054-0.324,3.027
					c0.689,2.279,2.966,4.016,5.235,2.635c0.562-0.341-0.277-0.521-0.605-0.318c-2.969,1.804-6.196-6.388-1.558-5.563
					C15.403,20.256,16.218,19.746,15.659,19.646L15.659,19.646z"/>
			</g>
		</g>
		<g>
			<path fill="#330033" d="M17.845,23.098c-1.179,1.453-1.547,2.919,0.233,4.419c1.478,1.269,3.547,0.988,4.523-0.014"/>
			<g>
				<path d="M17.447,22.974c-0.574,0.737-1.06,1.519-1.079,2.479c-0.023,1.063,0.792,1.898,1.563,2.512
					c1.465,1.157,3.762,0.896,5.075-0.334c0.435-0.404-0.513-0.52-0.8-0.248c-1.173,1.098-2.859,0.669-3.944-0.305
					c-1.306-1.173-0.987-2.606-0.017-3.854C18.617,22.745,17.697,22.653,17.447,22.974L17.447,22.974z"/>
			</g>
		</g>
		<g>
			<path fill="#330033" d="M27.174,10.456c-6.75,3.654,7.125,9.188,3.938,1.5c-0.655-1.5-1.97-2.346-3.563-1.781"/>
			<g>
				<path d="M26.882,10.341c-1.273,0.707-2.653,1.977-1.782,3.523c0.705,1.251,2.284,1.97,3.65,2.161
					c1.288,0.184,2.979-0.213,3.284-1.672c0.202-0.973-0.195-2.096-0.646-2.938c-0.79-1.481-2.357-1.935-3.896-1.45
					c-0.563,0.176-0.459,0.595,0.109,0.416c2.231-0.701,3.926,2.329,3.434,4.276c-0.275,1.096-1.436,1.005-2.31,0.765
					c-1.063-0.292-2.213-0.948-2.737-1.955c-0.667-1.28,0.429-2.317,1.478-2.898C28.034,10.254,27.162,10.186,26.882,10.341
					L26.882,10.341z"/>
			</g>
		</g>
		<g>
			<path fill="#330033" d="M32.049,14.111c5.438-2.904,5.344,6.938,1.875,4.688"/>
			<g>
				<path d="M32.244,14.328c0.822-0.425,1.763-0.716,2.567-0.1c0.58,0.444,0.859,1.174,0.993,1.868
					c0.134,0.687,0.095,1.465-0.184,2.113c-0.304,0.708-0.689,0.731-1.317,0.346c-0.287-0.177-1.174,0.233-0.765,0.485
					c0.809,0.499,1.752,0.518,2.498-0.109c0.725-0.605,0.84-1.736,0.792-2.611c-0.058-1.033-0.503-2.066-1.374-2.66
					c-1.073-0.733-2.558-0.306-3.604,0.233C31.26,14.201,31.804,14.554,32.244,14.328L32.244,14.328z"/>
			</g>
		</g>
		<g>
			<path fill="#330033" d="M30.737,10.831c2.222-1.451,4.207,0.827,3.694,2.804"/>
			<g>
				<path d="M30.952,11.121c1.798-1.089,3.391,0.729,2.989,2.548c-0.105,0.48,0.884,0.366,0.979-0.07
					c0.25-1.132-0.152-2.226-1.007-2.99c-0.959-0.855-2.372-0.688-3.396-0.067C29.963,10.878,30.474,11.41,30.952,11.121
					L30.952,11.121z"/>
			</g>
		</g>
		<g>
			<path fill="#330033" d="M34.487,19.081c4.03,2.904-1.688,7.594-1.97,3.563"/>
			<g>
				<path d="M34.104,19.324c1.288,0.966,1.756,2.507,0.772,3.865c-0.221,0.307-0.688,0.79-1.113,0.724
					c-0.598-0.097-0.722-0.926-0.764-1.398c-0.03-0.347-1.001-0.132-0.967,0.259c0.067,0.771,0.371,1.569,1.226,1.706
					c0.774,0.124,1.536-0.267,2.101-0.77c0.638-0.57,1.033-1.42,1.046-2.273c0.017-1.106-0.692-1.966-1.535-2.598
					C34.597,18.634,33.711,19.028,34.104,19.324L34.104,19.324z"/>
			</g>
		</g>
		<g>
			<path fill="#330033" d="M32.892,24.236c0.396,2.444-2.657,4.821-4.418,3.454"/>
			<g>
				<path d="M32.409,24.367c0.204,1.697-1.729,4.336-3.562,3.056c-0.327-0.229-1.188,0.229-0.75,0.537
					c2.441,1.709,5.582-1.319,5.275-3.854C33.325,23.689,32.357,23.924,32.409,24.367L32.409,24.367z"/>
			</g>
		</g>
		<g>
			<path fill="#330033" d="M27.362,23.299c4.405,1.688-0.47,8.438-3.75,6.094c-1.405-1.031-1.125-2.906-0.375-4.219"/>
			<g>
				<path d="M26.979,23.543c2.271,0.957,1.857,3.363,0.438,4.92c-0.778,0.854-1.914,1.413-3.039,0.917
					c-1.702-0.751-1.395-2.86-0.688-4.188c0.229-0.426-0.745-0.338-0.903-0.039c-0.837,1.572-1.022,3.521,0.638,4.606
					c1.12,0.735,2.576,0.388,3.658-0.215c2.393-1.333,3.78-5.176,0.663-6.491C27.435,22.926,26.557,23.365,26.979,23.543
					L26.979,23.543z"/>
			</g>
		</g>
		<g>
			<path fill="#330033" d="M13.164,19.869c-3.397,0.378-1.884-7.062,0.854-5.39"/>
			<g>
				<path d="M13.226,19.588c-2.729,0.2-1.475-5.917,0.408-4.867c0.289,0.161,1.176-0.252,0.767-0.48
					c-3.521-1.964-5.567,6.223-1.3,5.908C13.588,20.113,13.894,19.539,13.226,19.588L13.226,19.588z"/>
			</g>
		</g>
		<g>
			<path fill="#330033" d="M15.88,17.059c-1.781,0.656-2.3-1.822-1.645-3.229c1.22-2.813,6.198-2.721,5.834,0.404"/>
			<g>
				<path d="M15.796,16.748c-1.201,0.352-1.385-1.207-1.324-2.021c0.071-0.978,0.708-1.796,1.552-2.246
					c1.526-0.814,3.705-0.168,3.561,1.798c-0.034,0.479,0.944,0.326,0.978-0.085c0.215-2.874-3.325-3.265-5.26-2.072
					c-1.14,0.699-1.913,1.906-1.815,3.279c0.103,1.448,0.998,2.402,2.479,1.97C16.549,17.198,16.386,16.576,15.796,16.748
					L15.796,16.748z"/>
			</g>
		</g>
		<g>
			<path fill="#330033" d="M18.935,11.788c0.212-1.115,2.393-2.641,3.552-2.832c2.625-0.471,5.25,2.063,1.97,3.75"/>
			<g>
				<path d="M19.413,11.708c0.445-1.625,2.693-2.838,4.257-2.495c0.688,0.151,1.335,0.574,1.688,1.188
					c0.551,0.962-0.438,1.805-1.186,2.222c-0.563,0.313,0.32,0.302,0.564,0.165c0.875-0.487,1.847-1.158,1.707-2.287
					c-0.125-1.017-1.447-1.623-2.321-1.753c-2.002-0.297-5.085,1.007-5.665,3.118C18.391,12.107,19.342,11.97,19.413,11.708
					L19.413,11.708z"/>
			</g>
		</g>
		<g>
			<path fill="#330033" d="M29.5,15.867c1.418,0.485,2.269,3.215,0.519,5.137c-0.741,0.813-1.771,0.621-2.467,0.57"/>
			<g>
				<path d="M29.11,16.076c0.897,0.379,1.271,1.313,1.392,2.222c0.221,1.634-0.87,3.193-2.646,3.046
					c-0.253-0.021-1.125,0.416-0.608,0.459c1.801,0.151,3.15-0.241,3.96-1.983c0.656-1.417,0.202-3.522-1.314-4.165
					C29.643,15.551,28.759,15.928,29.11,16.076L29.11,16.076z"/>
			</g>
		</g>
		<g>
			<path fill="#330033" d="M19.487,15.986c-4.827-2.353-5.813,7.313-1.03,7.031c1.405-0.094,3.437-0.664,3.718-1.883"/>
			<g>
				<path d="M19.942,15.824c-3.102-1.398-5.362,1.327-5.059,4.337c0.155,1.531,1.123,2.841,2.698,3.036
					c1.592,0.198,4.471-0.455,5.063-2.146c0.063-0.173-0.866-0.07-0.951,0.173c-0.576,1.641-3.255,2.058-4.604,1.128
					c-0.725-0.5-1.058-1.409-1.214-2.234c-0.378-1.997,0.629-5.103,3.149-3.965C19.289,16.266,20.038,15.867,19.942,15.824
					L19.942,15.824z"/>
			</g>
		</g>
		<g>
			<path fill="#330033" d="M25.299,19.136c5.813,0.75-0.75,8.851-3.375,4.819c-0.938-1.406,0.28-3.188,1.405-4.125"/>
			<g>
				<path d="M25,19.388c1.068,0.159,2.058,0.629,2.146,1.814c0.072,0.976-0.602,1.972-1.254,2.628
					c-0.685,0.686-1.637,1.242-2.6,0.813c-2.219-0.991-0.868-3.619,0.421-4.745c0.413-0.361-0.548-0.332-0.771-0.138
					c-1.471,1.285-2.854,3.848-0.659,5.199c1.138,0.698,2.55,0.313,3.6-0.368c1.089-0.708,2.03-1.901,2.214-3.212
					c0.218-1.562-1.166-2.299-2.5-2.496C25.309,18.842,24.461,19.308,25,19.388L25,19.388z"/>
			</g>
		</g>
		<g>
			<path fill="#330033" d="M23.987,13.456c-1.78-1.221-4.595,0.279-4.5,2.529c0.188,2.906,5.345,5.063,6.75,1.875
				C26.987,16.174,25.58,14.206,23.987,13.456"/>
			<g>
				<path d="M24.365,13.196c-1.538-0.917-3.772-0.462-4.796,1.058c-1.28,1.906-0.083,3.859,1.688,4.881
					c1.369,0.788,3.539,0.979,4.735-0.247C27.909,16.926,26.46,14.297,24.365,13.196c-0.33-0.173-1.2,0.284-0.757,0.52
					c1.428,0.749,2.597,2.16,2.265,3.854c-0.375,1.908-2.561,1.702-3.856,1.049c-0.999-0.505-1.779-1.406-2.018-2.506
					c-0.428-1.988,2.021-3.346,3.609-2.396C23.93,13.905,24.802,13.458,24.365,13.196L24.365,13.196z"/>
			</g>
		</g>
	</g>
</g>
</svg>
