<?xml version="1.0" encoding="utf-8"?>
<!-- Generator: Adobe Illustrator 14.0.0, SVG Export Plug-In . SVG Version: 6.00 Build 43363)  -->
<!DOCTYPE svg PUBLIC "-//W3C//DTD SVG 1.0//EN" "http://www.w3.org/TR/2001/REC-SVG-20010904/DTD/svg10.dtd">
<svg version="1.0" id="svg2" xmlns:svg="http://www.w3.org/2000/svg"
	 xmlns="http://www.w3.org/2000/svg" xmlns:xlink="http://www.w3.org/1999/xlink" x="0px" y="0px" width="55.833px"
	 height="48.375px" viewBox="0 0 55.833 48.375" enable-background="new 0 0 55.833 48.375" xml:space="preserve">
<filter  id="AI_GaussianBlur_4">
	<feGaussianBlur  stdDeviation="1"></feGaussianBlur>
</filter>
<g>
	<g opacity="0.2" filter="url(#AI_GaussianBlur_4)">
		<path d="M21.799,47.538c4.805-3.298-1.272-5.531-3.75-10.972c-1.043-2.291,3.471-8.934,20.334-11.528
			C71.864,19.882,49.13,42.382,21.799,47.538"/>
	</g>
	<g>
		<g>
			<path fill="#FFCCFF" d="M21.799,47.548c2.198-6.595-7.979-11.063-17.354-21.938C0.493,21.025-1.532,7.743,16.549,2.547
				C52.448-7.765,50.01,37.234,21.799,47.548"/>
		</g>
		<g>
			<g>
				<path d="M22.775,47.462c1.317-5.144-3.465-8.864-6.854-11.931c-4.571-4.135-10.936-8.453-12.738-14.643
					C-1.091,6.242,20.308-0.308,31.198,2.303C40.8,4.604,43.303,14.844,41.718,23.39C39.71,34.208,31.496,43.145,21.386,47.021
					c-1.244,0.479-0.134,1.42,0.832,1.051c10.857-4.166,18.997-13.449,21.449-24.854c2.021-9.393-1.563-19.329-11.336-22.151
					C21.722-1.995,4.811,3.07,1.264,14.395c-1.501,4.79,0.372,9.457,3.524,13.013c3.459,3.9,7.515,7.227,11.333,10.758
					c2.7,2.499,5.726,5.495,4.704,9.47C20.598,48.512,22.57,48.259,22.775,47.462L22.775,47.462z"/>
			</g>
		</g>
	</g>
	<g>
		<polygon fill="#330033" points="31.685,17.104 33.502,21.908 35.334,22.519 36.717,22.405 38.64,21.31 39.505,18.581 
			38.647,16.083 36.797,14.934 34.49,14.98 32.713,15.856 		"/>
		
			<ellipse transform="matrix(0.549 -0.8358 0.8358 0.549 -4.2271 26.7296)" fill="#330033" cx="22.654" cy="17.281" rx="3.837" ry="4.563"/>
		<g>
			<g>
				<path d="M32.255,17.125c0.688-1.645,2.144-2.174,3.855-2.026c0.207,0.02,1.108-0.354,0.625-0.396
					C34.6,14.517,32.2,15.149,31.3,17.294C31.231,17.461,32.15,17.373,32.255,17.125L32.255,17.125z"/>
			</g>
		</g>
		<g>
			<g>
				<path d="M36.261,15.271c4.604,0.313,3.042,9.465-2.588,6.349c-0.395-0.219-1.228,0.31-0.738,0.579
					c2.417,1.339,6.187,0.737,6.909-2.3c0.556-2.327-0.62-5.188-3.26-5.367C36.092,14.497,35.61,15.227,36.261,15.271L36.261,15.271
					z"/>
			</g>
		</g>
		<g>
			<g>
				<path d="M19.007,17.691c-0.2-1.005-0.144-2.001,0.296-2.938c0.651-1.399,1.979-1.622,3.372-1.275
					c0.212,0.054,1.046-0.292,0.799-0.354c-1.467-0.365-3.042-0.222-4.268,0.727c-1.219,0.943-1.446,2.688-1.167,4.101
					C18.075,18.126,19.048,17.899,19.007,17.691L19.007,17.691z"/>
			</g>
		</g>
		<g>
			<g>
				<path d="M23.729,21.062c-0.604,0.076-1.2,0.081-1.798-0.061c-0.235-0.059-0.514-0.002-0.684,0.183
					c-0.142,0.153-0.104,0.383,0.115,0.437c0.751,0.179,1.501,0.2,2.267,0.104c0.204-0.026,0.502-0.135,0.536-0.374
					C24.201,21.117,23.904,21.04,23.729,21.062L23.729,21.062z"/>
			</g>
		</g>
		<g>
			<g>
				<path d="M22.899,13.622c1.676,0.292,2.869,1.561,3.307,3.167c0.109,0.402,1.075,0.145,0.968-0.261
					c-0.521-1.909-1.979-3.21-3.922-3.548C22.816,12.907,22.254,13.51,22.899,13.622L22.899,13.622z"/>
			</g>
		</g>
		<g>
			<path fill="#330033" d="M12.931,14.151c-0.357-2.216-3.778-3.526-5.332-2.777c-2.775,1.432-2.732,4.595-0.838,6.139"/>
			<g>
				<path d="M13.415,14.021c-0.53-2.414-3.813-3.82-6.022-2.914c-2.813,1.155-3.164,4.771-1.005,6.67
					c0.299,0.265,1.156-0.177,0.75-0.533c-1.686-1.482-1.576-3.949,0.188-5.312c1.729-1.337,4.708,0.45,5.125,2.349
					C12.541,14.703,13.509,14.452,13.415,14.021L13.415,14.021z"/>
			</g>
		</g>
		<g>
			<g>
				<path d="M24.574,1.001c-1.634,3.95-2.825,8.021-3.747,12.189c-0.104,0.473,0.886,0.351,0.979-0.073
					c0.907-4.106,2.084-8.121,3.689-12.012C25.708,0.596,24.736,0.608,24.574,1.001L24.574,1.001z"/>
			</g>
		</g>
		<g>
			<g>
				<path d="M22.4,8.099c3.397,2.383,6.811,4.74,9.479,7.963c0.259,0.313,1.182-0.056,0.889-0.41
					c-2.707-3.27-6.167-5.664-9.614-8.082C22.832,7.346,21.966,7.795,22.4,8.099L22.4,8.099z"/>
			</g>
		</g>
		<g>
			<g>
				<path d="M22.341,7.615c-3.543,1.323-6.721,4.152-9.338,6.806c-0.421,0.426,0.52,0.541,0.802,0.254
					c2.495-2.527,5.568-5.268,8.952-6.531C23.381,7.908,22.824,7.434,22.341,7.615L22.341,7.615z"/>
			</g>
		</g>
		<g>
			<g>
				<path d="M28.147,11.748c-0.914,0.833-1.894,1.588-2.862,2.353c-0.518,0.406,0.256,0.778,0.646,0.47
					c0.973-0.764,1.949-1.52,2.862-2.353C29.279,11.776,28.519,11.408,28.147,11.748L28.147,11.748z"/>
			</g>
		</g>
		<g>
			<g>
				<path d="M16.572,11.604c-1.529,0.008-3.058,0.317-4.395,1.08c-0.564,0.322,0.301,0.4,0.586,0.237
					c1.048-0.599,2.224-0.813,3.419-0.818C16.51,12.102,17.221,11.601,16.572,11.604L16.572,11.604z"/>
			</g>
		</g>
		<g>
			<g>
				<path d="M16.151,11.873c0.903,0.867,1.761,1.78,2.586,2.725c0.251,0.287,1.175-0.076,0.892-0.398
					c-0.824-0.941-1.683-1.855-2.586-2.726C16.765,11.209,15.851,11.586,16.151,11.873L16.151,11.873z"/>
			</g>
		</g>
		<path fill="none" stroke="#000000" stroke-width="0.5" d="M33.304,21.908"/>
		<g>
			<path fill="#330033" d="M33.24,20.795c-0.988-8.103-9.682-4.245-9.396,0.341C23.924,26.199,34.278,26.979,33.24,20.795"/>
			<g>
				<path d="M33.723,20.666c-0.442-3.036-2.404-5.483-5.7-4.62c-2.409,0.63-4.72,2.542-4.66,5.219
					C23.487,26.872,34.555,26.895,33.723,20.666c-0.027-0.211-1.002-0.009-0.967,0.259c0.736,5.513-7.746,5.035-8.411,0.387
					c-0.311-2.166,1.429-4.094,3.329-4.816c3.046-1.16,4.723,1.962,5.082,4.431C32.788,21.138,33.761,20.93,33.723,20.666
					L33.723,20.666z"/>
			</g>
		</g>
		<g>
			<path fill="#330033" d="M15.261,17.314c-1.024-4.503-7.487-3.538-8.843,1.083c-1.181,4.063,2.319,5.875,5.302,5.218"/>
			<g>
				<path d="M15.745,17.186c-1.13-4.147-6.146-3.608-8.581-0.979c-1.305,1.408-2.081,4.08-0.941,5.8
					c1.198,1.811,3.407,2.271,5.438,1.898c0.475-0.088,0.78-0.702,0.118-0.581c-4.104,0.755-6.306-2.905-4.232-6.381
					c1.762-2.958,6.265-3.056,7.23,0.5C14.88,17.813,15.844,17.553,15.745,17.186L15.745,17.186z"/>
			</g>
		</g>
		<g>
			<path fill="#330033" d="M21.619,22.266c0.746-2.837-4.532-5.935-7.231-4.716c-5.215,2.167-3.062,9.144,1.992,9.819
				C19.174,27.891,21.255,25.266,21.619,22.266"/>
			<g>
				<path d="M22.097,22.19c0.536-3.046-3.374-4.958-5.88-5.135c-2.638-0.187-5.063,1.974-5.312,4.543
					c-0.264,2.748,2.074,5.458,4.729,5.917C19.208,28.135,21.559,25.592,22.097,22.19c0.048-0.296-0.915-0.117-0.957,0.15
					c-0.201,1.271-0.59,2.374-1.344,3.432c-1.382,1.938-3.702,1.533-5.346,0.537c-1.575-0.955-2.479-2.747-2.589-4.542
					c-0.178-2.917,2.689-4.758,5.371-3.961c1.863,0.554,4.293,2.328,3.904,4.535C21.089,22.633,22.051,22.461,22.097,22.19
					L22.097,22.19z"/>
			</g>
		</g>
	</g>
</g>
</svg>
