<?xml version="1.0" encoding="utf-8"?>
<!-- Generator: Adobe Illustrator 14.0.0, SVG Export Plug-In . SVG Version: 6.00 Build 43363)  -->
<!DOCTYPE svg PUBLIC "-//W3C//DTD SVG 1.0//EN" "http://www.w3.org/TR/2001/REC-SVG-20010904/DTD/svg10.dtd">
<svg version="1.0" id="svg2" xmlns:svg="http://www.w3.org/2000/svg"
	 xmlns="http://www.w3.org/2000/svg" xmlns:xlink="http://www.w3.org/1999/xlink" x="0px" y="0px" width="55.833px"
	 height="48.375px" viewBox="0 0 55.833 48.375" enable-background="new 0 0 55.833 48.375" xml:space="preserve">
<filter  id="AI_GaussianBlur_4">
	<feGaussianBlur  stdDeviation="1"></feGaussianBlur>
</filter>
<g>
	<g opacity="0.2" filter="url(#AI_GaussianBlur_4)">
		<path d="M21.282,47.53c4.805-3.297-1.273-5.531-3.751-10.969c-1.043-2.292,3.471-8.934,20.335-11.531
			C71.346,19.874,48.612,42.374,21.282,47.53"/>
	</g>
	<g>
		<g>
			<path fill="#FFCCFF" d="M21.282,47.369c2.199-6.595-7.978-11.063-17.353-21.938C-0.023,20.849-2.048,7.563,16.032,2.369
				C51.929-7.943,49.492,37.057,21.282,47.369"/>
			<g>
				<path d="M22.257,47.283c1.319-5.142-3.464-8.864-6.856-11.931C10.829,31.22,4.466,26.899,2.662,20.711
					C-1.607,6.063,19.789-0.485,30.678,2.125c9.601,2.301,12.104,12.542,10.519,21.087c-2.007,10.817-10.22,19.755-20.331,23.633
					c-1.245,0.478-0.133,1.419,0.831,1.049c10.859-4.165,18.997-13.45,21.451-24.854c2.021-9.393-1.564-19.329-11.336-22.151
					C21.202-2.176,4.291,2.893,0.743,14.216c-1.501,4.79,0.372,9.457,3.525,13.012c3.459,3.901,7.514,7.226,11.333,10.758
					c2.702,2.498,5.725,5.494,4.706,9.47C20.081,48.333,22.052,48.08,22.257,47.283L22.257,47.283z"/>
			</g>
		</g>
		<g>
			<g>
				<path fill="#330033" d="M14.784,24.011c-1.895-0.515-4.066-3.096-2.533-4.705"/>
				<g>
					<path d="M15.06,23.764c-1.639-0.508-3.846-2.733-2.389-4.447c0.26-0.305-0.651-0.246-0.841-0.022
						c-1.671,1.965,0.816,4.386,2.678,4.963C14.797,24.348,15.569,23.921,15.06,23.764L15.06,23.764z"/>
				</g>
			</g>
			<polygon fill="#330033" points="27.484,32.885 24.533,29.118 20.249,26.686 16.793,25.455 12.924,22.139 12.372,18.634 
				10.351,16.142 12.162,12.927 17.042,8.732 21.427,8.825 25.824,11.269 31.506,17.297 33.806,23.785 31.778,29.403 			"/>
			<g>
				<path fill="#330033" d="M32.252,25.517c1.727,0.116,2.953-0.403,2.849-2.611c-0.072-1.843-1.563-3.298-2.858-3.507"/>
				<g>
					<path d="M32.09,25.824c1.554,0.072,3.011-0.32,3.411-1.992c0.487-2.033-0.994-4.276-2.994-4.721
						c-0.357-0.08-1.069,0.454-0.529,0.574c1.447,0.322,2.368,1.573,2.639,2.978c0.322,1.668-0.579,2.623-2.202,2.546
						C32.004,25.19,31.479,25.795,32.09,25.824L32.09,25.824z"/>
				</g>
			</g>
			<g>
				<path fill="#330033" d="M13.882,20.978c7.091,4.15,1.742-10.584-1.462-3.884C11.816,18.429,12.452,20.14,13.882,20.978z"/>
				<g>
					<path d="M13.519,21.18c1.131,0.65,3.26,1.41,4.074-0.146c0.633-1.211,0.04-2.91-0.556-4.015
						c-0.623-1.155-1.694-2.242-3.112-1.83c-0.795,0.231-1.339,0.856-1.736,1.552c-0.795,1.394-0.42,2.946,0.732,4.016
						c0.163,0.151,0.353,0.271,0.54,0.388c0.25,0.157,1.046-0.208,0.843-0.336c-1.226-0.771-1.965-2.159-1.509-3.597
						c0.185-0.583,0.687-1.411,1.287-1.652c0.824-0.331,1.814,1.254,2.098,1.781c0.521,0.966,0.913,2.212,0.697,3.315
						c-0.287,1.468-1.774,0.61-2.631,0.118C14.021,20.646,13.182,20.986,13.519,21.18z"/>
				</g>
			</g>
			<g>
				<path fill="#330033" d="M13.292,15.181c-5.395-2.626,1.339-7.964,1.997-4.032"/>
				<g>
					<path d="M13.648,14.954c-1.592-0.807-2.614-2.325-1.438-3.953c0.339-0.469,0.891-0.901,1.478-0.976
						c0.711-0.09,1.041,0.68,1.149,1.245c0.064,0.333,0.97,0.108,0.902-0.242c-0.406-2.114-2.662-1.709-3.916-0.577
						c-0.633,0.572-1.113,1.447-1.062,2.319c0.076,1.275,1.112,2.101,2.172,2.639C13.214,15.549,14.039,15.152,13.648,14.954
						L13.648,14.954z"/>
				</g>
			</g>
			<g>
				<path fill="#330033" d="M11.893,18.004c-2.382-0.927-2.087-3.722-0.426-4.41"/>
				<g>
					<path d="M12.152,17.696c-1.502-0.643-2.295-2.988-0.484-3.831c0.56-0.26,0.062-0.759-0.402-0.543
						c-0.964,0.449-1.542,1.359-1.56,2.42c-0.021,1.226,0.869,2.117,1.927,2.57C12.02,18.478,12.683,17.923,12.152,17.696
						L12.152,17.696z"/>
				</g>
			</g>
			<g>
				<path fill="#330033" d="M15.125,10.557c-0.569-4.729,6.21-2.862,3.654-0.429"/>
				<g>
					<path d="M15.577,10.436c-0.138-1.329,0.425-2.766,1.985-2.499c1.145,0.196,1.764,1.2,0.853,2.104
						c-0.383,0.38,0.504,0.399,0.73,0.175c0.497-0.493,0.91-1.204,0.489-1.878c-0.376-0.603-1.133-0.888-1.811-0.959
						c-0.805-0.084-1.69,0.104-2.317,0.64c-0.788,0.673-0.934,1.676-0.832,2.659C14.708,11.004,15.614,10.799,15.577,10.436
						L15.577,10.436z"/>
				</g>
			</g>
			<g>
				<path fill="#330033" d="M19.625,8.961c1.409-1.648,4.942-0.583,5.124,1.535"/>
				<g>
					<path d="M19.999,9.081c1.328-1.405,4.049-0.271,4.299,1.537c0.054,0.391,0.959,0.169,0.902-0.242
						c-0.364-2.636-4.288-3.291-5.949-1.534C18.864,9.25,19.738,9.356,19.999,9.081L19.999,9.081z"/>
				</g>
			</g>
			<g>
				<path fill="#330033" d="M22.553,14.255c-1.896-5.044,5.935-4.755,6.411-0.918c0.187,1.659-1.262,2.471-2.624,2.61"/>
				<g>
					<path d="M23.004,14.134c-0.742-2.131,0.367-3.73,2.678-3.326c0.871,0.152,1.665,0.603,2.242,1.267
						c1.274,1.469,0.331,3.344-1.527,3.605c-0.448,0.063-0.736,0.622-0.114,0.535c1.71-0.24,3.417-1.238,3.099-3.205
						c-0.223-1.379-1.528-2.242-2.761-2.624c-1.206-0.373-2.608-0.241-3.687,0.418c-1.283,0.784-1.274,2.302-0.832,3.572
						C22.22,14.714,23.117,14.456,23.004,14.134L23.004,14.134z"/>
				</g>
			</g>
			<g>
				<path fill="#330033" d="M27.45,15.7c1.402-4.023,7.819,1.197,5.77,4.097c-0.903,1.24-2.646,0.807-3.887-0.021"/>
				<g>
					<path d="M27.902,15.648c0.856-2.208,3.2-0.615,4.242,0.574c0.579,0.66,1.012,1.516,1.022,2.407
						c0.006,0.498-0.199,0.948-0.519,1.321c-0.748,0.875-2.243,0.046-2.959-0.402c-0.268-0.168-1.096,0.215-0.713,0.455
						c1.318,0.826,3.619,1.437,4.666-0.188c0.771-1.198,0.358-2.525-0.398-3.619c-1.422-2.053-5.07-3.48-6.247-0.445
						C26.873,16.072,27.78,15.963,27.902,15.648L27.902,15.648z"/>
				</g>
			</g>
			<g>
				<path fill="#330033" d="M30.987,29.867c2.396,2.431-3.6,5.342-4.189,2.298"/>
				<g>
					<path d="M30.569,30.047c1.997,2.155-2.718,4.619-3.32,1.997c-0.076-0.33-0.98-0.097-0.902,0.242
						c0.784,3.412,7.648,0.194,5.059-2.599C31.181,29.445,30.321,29.779,30.569,30.047L30.569,30.047z"/>
				</g>
			</g>
			<g>
				<path fill="#330033" d="M27.76,28.303c1.159,2.439-0.615,3.59-1.982,3.853c-2.674,0.599-5.746-3.321-3.397-4.755"/>
				<g>
					<path d="M27.309,28.424c0.436,1.009,0.587,2.099-0.333,2.884c-0.704,0.601-1.688,0.702-2.539,0.431
						c-1.423-0.455-3.559-2.918-1.761-4.148c0.506-0.347-0.243-0.616-0.59-0.379c-2.411,1.65,0.076,4.549,2.047,5.18
						c1.103,0.353,2.312,0.014,3.261-0.579c1.319-0.824,1.383-2.32,0.818-3.63C28.046,27.8,27.153,28.063,27.309,28.424
						L27.309,28.424z"/>
				</g>
			</g>
			<g>
				<path fill="#330033" d="M22.906,26.949c2.665,3.069-0.548,5.17-3.76,2.196c-1.95-1.806-1.908-5.212,1.303-3.591"/>
				<g>
					<path d="M22.482,27.108c0.648,0.779,1.443,2.093,0.599,3.022c-0.908,1-2.99-0.643-3.633-1.262
						c-0.642-0.619-1.074-1.494-1.161-2.381c-0.033-0.332,0.029-0.656,0.19-0.946c0.279-0.503,1.196,0.002,1.548,0.172
						c0.248,0.119,0.985-0.252,0.848-0.318c-1.018-0.49-2.529-0.813-3.289,0.294c-0.736,1.073,0.282,2.731,1.017,3.498
						c1.134,1.184,3.11,2.103,4.71,1.301c1.65-0.828,0.96-2.566,0.019-3.698C23.175,26.604,22.32,26.913,22.482,27.108
						L22.482,27.108z"/>
				</g>
			</g>
			<g>
				<path fill="#330033" d="M16.085,16.197c-0.563-1.368,0.752-3.528,3.157-3.225c1.02,0.129,1.537,1.034,1.939,1.604"/>
				<g>
					<path d="M16.537,16.076c-0.333-0.961,0.087-1.918,0.855-2.534c1.385-1.11,2.622,0.123,3.368,1.199
						c0.145,0.208,1.018-0.079,0.844-0.33c-0.474-0.684-0.922-1.292-1.73-1.582c-0.746-0.267-1.667-0.07-2.385,0.183
						c-1.306,0.458-2.332,1.926-1.854,3.306C15.727,16.584,16.621,16.319,16.537,16.076L16.537,16.076z"/>
				</g>
			</g>
			<g>
				<path fill="#330033" d="M20.587,24.241c1.051,4.135-3.908,1.997-4.77,1.202c-1.971-1.782-1.14-5.386,2.07-3.765"/>
				<g>
					<path d="M20.136,24.362c0.194,0.832,0.352,2.204-0.856,2.136c-0.857-0.048-1.737-0.419-2.478-0.83
						c-0.778-0.432-1.287-1.145-1.514-2.002c-0.127-0.481-0.093-0.988,0.069-1.455c0.35-1.005,1.356-0.728,2.107-0.373
						c0.25,0.118,0.983-0.254,0.848-0.318c-1.263-0.596-3.014-0.712-3.786,0.697c-0.709,1.295,0.187,3.013,1.326,3.71
						c1.019,0.623,2.395,1.132,3.604,0.95c1.549-0.233,1.916-1.326,1.583-2.757C20.986,23.894,20.081,24.123,20.136,24.362
						L20.136,24.362z"/>
				</g>
			</g>
			<g>
				<path fill="#330033" d="M30.023,29.107c2.938,5.261,8.796-6.649,0.561-4.339"/>
				<g>
					<path d="M29.605,29.288c1.516,2.623,4.312,1.096,5.271-1.129c0.427-0.989,0.614-2.259-0.103-3.162
						c-0.96-1.209-3.002-0.811-4.256-0.471c-0.544,0.147-0.414,0.633,0.131,0.486c1.066-0.289,2.548-0.586,3.343,0.415
						c0.544,0.685,0.376,1.715,0.121,2.476c-0.281,0.84-0.843,1.68-1.614,2.139c-0.879,0.522-1.663-0.432-2.058-1.114
						C30.282,28.651,29.406,28.943,29.605,29.288L29.605,29.288z"/>
				</g>
			</g>
			<g>
				<path fill="#330033" d="M26.178,27.023c0.296,2.054,3.084,3.413,4.55,2.104c1.853-1.743,0.067-6.934-2.979-6.274
					C26.132,23.198,25.684,25.373,26.178,27.023"/>
				<g>
					<path d="M25.727,27.145c0.4,1.964,2.462,3.163,4.376,2.658c1.907-0.502,2.037-2.786,1.6-4.347
						c-0.475-1.688-1.834-3.055-3.653-2.938C25.75,22.665,25.254,25.333,25.727,27.145c0.098,0.373,1,0.133,0.902-0.242
						c-0.35-1.34-0.288-3.876,1.688-3.801c1.301,0.049,2.127,1.532,2.481,2.597c0.334,1.001,0.378,2.297-0.296,3.17
						c-1.296,1.68-3.607-0.656-3.874-1.966C26.554,26.53,25.649,26.761,25.727,27.145L25.727,27.145z"/>
				</g>
			</g>
			<g>
				<path fill="#330033" d="M22.53,28.425c1.707,1.287,4.229,0.07,4.026-2.072c-0.323-2.77-5.198-5.193-6.333-2.271
					C19.618,25.626,21.018,27.598,22.53,28.425"/>
				<g>
					<path d="M22.177,28.666c1.507,1.006,3.482,0.63,4.501-0.872c1.16-1.709-0.538-3.692-1.905-4.579
						c-1.196-0.776-3.253-1.22-4.378-0.058C18.579,25.031,20.377,27.586,22.177,28.666c0.3,0.181,1.114-0.237,0.705-0.482
						c-1.321-0.793-2.527-2.195-2.3-3.833c0.24-1.732,2.172-1.345,3.247-0.791c0.985,0.506,1.805,1.383,2.173,2.429
						c0.696,1.979-1.521,3.26-3.12,2.194C22.59,27.988,21.775,28.398,22.177,28.666L22.177,28.666z"/>
				</g>
			</g>
			<g>
				<path fill="#330033" d="M28.361,23.6c0.322,2.052,3.124,3.375,4.569,2.043c1.825-1.772-0.027-6.946-3.059-6.242
					C28.263,19.77,27.843,21.953,28.361,23.6"/>
				<g>
					<path d="M27.91,23.721c0.424,1.953,2.495,3.142,4.402,2.607c1.855-0.519,1.998-2.72,1.576-4.264
						c-0.47-1.718-1.862-3.157-3.724-3.003C27.871,19.252,27.41,21.909,27.91,23.721c0.103,0.373,1.005,0.13,0.902-0.242
						c-0.362-1.314-0.352-3.875,1.607-3.842c1.261,0.021,2.103,1.404,2.488,2.43s0.446,2.27-0.14,3.228
						c-1.163,1.9-3.672-0.507-3.956-1.815C28.731,23.106,27.827,23.339,27.91,23.721L27.91,23.721z"/>
				</g>
			</g>
			<g>
				<path fill="#330033" d="M25.561,18.905c-3.269-8.201,10.703,0.212,3.701,2.924C27.873,22.367,26.096,20.247,25.561,18.905z"/>
				<g>
					<path d="M26.012,18.784c-0.231-0.593-1.114-2.999,0.113-3.136c1.138-0.128,2.467,0.849,3.252,1.555
						c0.841,0.757,1.743,1.96,1.302,3.149c-0.229,0.619-1.009,1.193-1.645,1.315c-0.682,0.13-1.456-0.679-1.867-1.113
						C26.683,20.043,26.286,19.433,26.012,18.784c-0.127-0.3-1.013-0.021-0.902,0.242c0.529,1.253,1.555,2.603,2.894,3.037
						c0.98,0.318,2.064-0.238,2.822-0.839c1.224-0.971,0.981-2.413,0.145-3.546c-0.871-1.18-2.29-2.122-3.722-2.442
						c-1.222-0.273-2.612,0.209-2.641,1.62c-0.016,0.748,0.234,1.483,0.503,2.171C25.228,19.327,26.118,19.055,26.012,18.784z"/>
				</g>
			</g>
			<g>
				<path fill="#330033" d="M20.918,17.758c-3.151-4.928,6.502-4.376,5.423-0.122c-0.363,1.502-2.62,1.757-3.965,1.397"/>
				<g>
					<path d="M21.338,17.585c-0.494-0.804-0.985-1.991-0.123-2.73c0.689-0.591,1.931-0.383,2.71-0.132
						c0.887,0.286,1.688,0.887,1.971,1.801c0.63,2.032-1.684,2.64-3.242,2.274c-0.271-0.063-1.062,0.352-0.558,0.471
						c1.705,0.4,4.419,0.079,4.758-2.025c0.234-1.46-0.961-2.496-2.208-2.942c-1.227-0.44-2.721-0.423-3.869,0.23
						c-1.371,0.78-0.966,2.284-0.28,3.4C20.646,18.17,21.524,17.888,21.338,17.585L21.338,17.585z"/>
				</g>
			</g>
			<g>
				<path fill="#330033" d="M25.057,24.383c1.709,1.287,4.229,0.07,4.026-2.072c-0.322-2.771-5.197-5.193-6.332-2.271
					C22.146,21.584,23.546,23.555,25.057,24.383"/>
				<g>
					<path d="M24.705,24.625c1.508,1.004,3.483,0.63,4.502-0.873c1.159-1.709-0.538-3.692-1.905-4.58
						c-1.195-0.776-3.253-1.219-4.378-0.058C21.107,20.989,22.905,23.543,24.705,24.625c0.3,0.18,1.114-0.237,0.705-0.483
						c-1.32-0.793-2.526-2.195-2.299-3.832c0.24-1.731,2.171-1.345,3.247-0.792c0.985,0.507,1.804,1.383,2.172,2.43
						c0.696,1.979-1.52,3.26-3.12,2.194C25.118,23.946,24.303,24.357,24.705,24.625L24.705,24.625z"/>
				</g>
			</g>
			<g>
				<path fill="#330033" d="M17.923,21.805c0.296,2.054,3.084,3.414,4.55,2.104c1.854-1.743,0.068-6.934-2.979-6.273
					C17.877,17.98,17.429,20.154,17.923,21.805"/>
				<g>
					<path d="M17.472,21.926c0.4,1.964,2.462,3.164,4.376,2.659c1.907-0.503,2.038-2.787,1.6-4.348
						c-0.474-1.688-1.833-3.055-3.653-2.938C17.497,17.448,16.999,20.113,17.472,21.926c0.098,0.373,1,0.132,0.902-0.242
						c-0.35-1.341-0.287-3.875,1.689-3.8c1.301,0.048,2.127,1.531,2.482,2.596c0.333,1.001,0.376,2.297-0.297,3.17
						c-1.297,1.68-3.607-0.656-3.874-1.966C18.299,21.312,17.394,21.542,17.472,21.926L17.472,21.926z"/>
				</g>
			</g>
		</g>
	</g>
</g>
</svg>
