<?xml version="1.0" encoding="utf-8"?>
<!-- Generator: Adobe Illustrator 14.0.0, SVG Export Plug-In . SVG Version: 6.00 Build 43363)  -->
<!DOCTYPE svg PUBLIC "-//W3C//DTD SVG 1.0//EN" "http://www.w3.org/TR/2001/REC-SVG-20010904/DTD/svg10.dtd">
<svg version="1.0" id="svg2" xmlns:svg="http://www.w3.org/2000/svg"
	 xmlns="http://www.w3.org/2000/svg" xmlns:xlink="http://www.w3.org/1999/xlink" x="0px" y="0px" width="55.833px"
	 height="48.375px" viewBox="0 0 55.833 48.375" enable-background="new 0 0 55.833 48.375" xml:space="preserve">
<filter  id="AI_GaussianBlur_4">
	<feGaussianBlur  stdDeviation="1"></feGaussianBlur>
</filter>
<g>
	<g opacity="0.2" filter="url(#AI_GaussianBlur_4)">
		<path d="M21.799,47.538c4.805-3.298-1.272-5.531-3.75-10.971c-1.043-2.292,3.471-8.934,20.334-11.529
			C71.864,19.882,49.13,42.382,21.799,47.538"/>
	</g>
	<g>
		<g>
			<path fill="#CCFFCC" d="M21.799,47.548c2.198-6.595-7.978-11.063-17.353-21.938C0.493,21.025-1.532,7.743,16.549,2.547
				C52.448-7.765,50.01,37.235,21.799,47.548"/>
		</g>
		<g>
			<g>
				<path d="M22.775,47.462c1.317-5.144-3.465-8.864-6.855-11.931c-4.571-4.134-10.935-8.453-12.738-14.643
					C-1.091,6.242,20.308-0.308,31.198,2.303C40.8,4.604,43.303,14.844,41.718,23.39C39.71,34.208,31.496,43.144,21.386,47.022
					c-1.244,0.479-0.134,1.419,0.832,1.05c10.857-4.166,18.997-13.449,21.449-24.854c2.021-9.393-1.563-19.329-11.336-22.151
					C21.722-1.995,4.811,3.07,1.264,14.395c-1.501,4.79,0.372,9.457,3.524,13.013c3.459,3.9,7.515,7.227,11.333,10.758
					c2.701,2.499,5.726,5.495,4.704,9.47C20.598,48.512,22.57,48.259,22.775,47.462L22.775,47.462z"/>
			</g>
		</g>
	</g>
	<g>
		<g>
			<g>
				<path d="M28.639,44.56c0.599-6.908-1.394-14.043-3.065-20.688c-1.886-7.479-4.817-14.732-8.695-21.395
					c-0.348-0.597-2.188,0.077-1.932,0.52c3.396,5.836,5.912,12.029,7.883,18.479c2.219,7.257,4.548,15.729,3.888,23.355
					C26.656,45.533,28.589,45.14,28.639,44.56L28.639,44.56z"/>
			</g>
		</g>
		<g>
			<path fill="#33CC66" d="M22.897,20.421c-4.748-2.75-7.5,6-11.498,7.125c2.498-1.5,9.873-3.625,10.623-7.125"/>
			<g>
				<path d="M23.286,20.206c-5.486-2.818-7.883,5.751-12.067,7.178c0.156,0.091,0.313,0.181,0.473,0.271
					c3.324-1.895,9.598-3.071,10.813-7.306c0.083-0.29-0.878-0.147-0.962,0.144c-1.155,4.026-7.203,5.104-10.434,6.942
					c-0.542,0.311,0.216,0.359,0.472,0.271c3.688-1.258,6.646-9.272,10.929-7.072C22.751,20.76,23.644,20.391,23.286,20.206
					L23.286,20.206z"/>
			</g>
		</g>
		<g>
			<path fill="#33CC66" d="M23.899,20.24c-0.502-4.5,10.623-0.75,12.873-1.625c-3.123,3.125-8.5,1.25-12.498,1.125"/>
			<g>
				<path d="M24.382,20.109c-0.143-3.427,8.16-1.324,10.25-1.152c0.49,0.04,0.981,0.045,1.475,0.005
					c0.127-0.007,0.252-0.025,0.376-0.055c0.043-0.01,0.087-0.019,0.13-0.026c-1.162,0.162-2.256,0.556-3.282,1.181
					c-2.833,0.548-5.907-0.41-8.753-0.558c-0.256-0.014-1.122,0.441-0.604,0.47c4.392,0.229,9.487,1.963,13.182-1.308
					c0.331-0.293-0.248-0.312-0.436-0.254c-2.438,0.729-13.516-3.244-13.303,1.958C23.426,20.621,24.394,20.44,24.382,20.109
					L24.382,20.109z"/>
			</g>
		</g>
		<g>
			<path fill="#33CC66" d="M24.897,27.613c-3.5-2.875-6.623,3-9.623,4.125c0.123,0-0.375,0.125,0,0
				c2.873-1.625,8.873-1.625,10.248-4.875"/>
			<g>
				<path d="M25.349,27.443c-4.011-2.928-7.051,2.78-10.249,4.165c-0.235,0.104-0.7,0.683,0.347,0.264
					c0.534-0.214,1.041-0.483,1.587-0.677c1.374-0.482,2.82-0.768,4.215-1.187c1.875-0.563,3.835-1.384,4.751-3.223
					c0.092-0.183-0.826-0.102-0.954,0.156c-1.086,2.177-3.711,2.704-5.858,3.273c-1.474,0.391-2.818,0.885-4.224,1.447
					c-0.539,0.216-0.188,0.403,0.218,0.302c3.102-0.781,5.799-6.711,9.265-4.182C24.674,27.953,25.523,27.569,25.349,27.443
					L25.349,27.443z"/>
			</g>
		</g>
		<g>
			<path fill="#33CC66" d="M25.522,27.74c3.75-4.002,6.627,1.75,10.625,0.873c-3,1.875-8.123,2.502-9.375-1.75"/>
			<g>
				<path d="M25.906,27.808c3.125-3.043,6.59,1.619,10.171,1.059c-0.075-0.128-0.149-0.255-0.227-0.382
					c-2.975,1.756-7.257,2.101-8.597-1.75c-0.111-0.319-1.069-0.04-0.967,0.261c1.55,4.449,6.854,3.696,10.154,1.75
					c0.361-0.216,0.091-0.433-0.227-0.383c-2.569,0.402-4.254-1.657-6.594-2.167c-1.786-0.387-3.204,0.229-4.485,1.479
					C24.74,28.059,25.693,28.015,25.906,27.808L25.906,27.808z"/>
			</g>
		</g>
		<g>
			<path fill="#33CC66" d="M20.013,11.99c-7-1.625-8.5,4.625-13.75,7.25c4-2.5,10.627-2.5,13.375-6.375"/>
			<g>
				<path d="M20.175,11.617c-6.724-1.313-8.968,4.525-14.133,7.313c0.147,0.206,0.295,0.411,0.441,0.616
					c4.328-2.507,10.266-2.362,13.563-6.523c0.386-0.486-0.523-0.688-0.817-0.317c-3.136,3.957-9.029,3.817-13.188,6.227
					c-0.564,0.328-0.059,0.886,0.441,0.616c4.756-2.568,7.164-8.399,13.367-7.188C20.354,12.46,20.819,11.742,20.175,11.617
					L20.175,11.617z"/>
			</g>
		</g>
		<g>
			<path fill="#33CC66" d="M20.772,12.74c3.625-7,11.5-0.625,16.252-2.125l-0.127,0.125c-4.25,1.875-10.25,3.25-14.375,0.5"/>
			<g>
				<path d="M21.251,12.666c3.149-5.38,9-1.828,13.636-1.586c1.468,0.075,2.063-0.555,0.163,0.178
					c-3.884,1.494-8.373,1.986-12.075-0.195c-0.266-0.155-1.102,0.238-0.903,0.354c2.67,1.572,5.445,1.775,8.47,1.416
					c1.932-0.231,5.49-0.821,6.929-2.231c0.252-0.247-0.42-0.2-0.495-0.181c-5.94,1.458-12.565-4.633-16.681,2.393
					C20.178,13.005,21.095,12.932,21.251,12.666L21.251,12.666z"/>
			</g>
		</g>
	</g>
</g>
</svg>
