<?xml version="1.0" encoding="utf-8"?>
<!-- Generator: Adobe Illustrator 14.0.0, SVG Export Plug-In . SVG Version: 6.00 Build 43363)  -->
<!DOCTYPE svg PUBLIC "-//W3C//DTD SVG 1.0//EN" "http://www.w3.org/TR/2001/REC-SVG-20010904/DTD/svg10.dtd">
<svg version="1.0" id="svg2" xmlns:svg="http://www.w3.org/2000/svg"
	 xmlns="http://www.w3.org/2000/svg" xmlns:xlink="http://www.w3.org/1999/xlink" x="0px" y="0px" width="55.833px"
	 height="48.375px" viewBox="0 0 55.833 48.375" enable-background="new 0 0 55.833 48.375" xml:space="preserve">
<filter  id="AI_GaussianBlur_4">
	<feGaussianBlur  stdDeviation="1"></feGaussianBlur>
</filter>
<g>
	<g opacity="0.2" filter="url(#AI_GaussianBlur_4)">
		<path d="M21.799,47.538c4.805-3.298-1.272-5.531-3.75-10.972c-1.043-2.291,3.471-8.934,20.334-11.528
			C71.864,19.882,49.13,42.382,21.799,47.538"/>
	</g>
	<g>
		<g>
			<path fill="#FFCCFF" d="M21.799,47.548c2.198-6.595-7.979-11.063-17.354-21.938C0.493,21.025-1.532,7.743,16.549,2.547
				C52.448-7.765,50.01,37.234,21.799,47.548"/>
		</g>
		<g>
			<g>
				<path d="M22.775,47.462c1.317-5.144-3.465-8.864-6.854-11.931c-4.571-4.135-10.936-8.453-12.738-14.643
					C-1.091,6.242,20.308-0.308,31.198,2.303C40.8,4.604,43.303,14.844,41.718,23.39C39.71,34.208,31.496,43.145,21.386,47.021
					c-1.244,0.479-0.134,1.42,0.832,1.051c10.857-4.166,18.997-13.449,21.449-24.854c2.021-9.393-1.563-19.329-11.336-22.151
					C21.722-1.995,4.811,3.07,1.264,14.395c-1.501,4.79,0.372,9.457,3.524,13.013c3.459,3.9,7.515,7.227,11.333,10.758
					c2.7,2.499,5.726,5.495,4.704,9.47C20.598,48.512,22.57,48.259,22.775,47.462L22.775,47.462z"/>
			</g>
		</g>
		<g>
			<polygon fill="#FF0033" points="18.11,13.011 24.069,10.777 31.399,13.751 32.599,18.222 29.373,25.73 21.974,27.757 
				15.131,22.901 15.131,17.026 			"/>
			<g>
				<path fill="#FF0033" d="M15.332,19.238c-5.077,1.283,0.813,8.026,2.789,5.396"/>
				<g>
					<path d="M15.28,19.043c-5.815,1.623,0.591,8.865,3.285,5.578c0.236-0.289-0.718-0.183-0.888,0.024
						c-1.292,1.578-6.578-4.018-2.293-5.213C15.953,19.275,15.849,18.884,15.28,19.043L15.28,19.043z"/>
				</g>
			</g>
			<g>
				<path fill="#FF0033" d="M31.006,13.777c1.51-0.545,3.838,3.974,1.146,4.605"/>
				<g>
					<path d="M31.069,14.01c0.654-0.184,1.396,1.264,1.571,1.679c0.339,0.789,0.515,2.165-0.549,2.463
						c-0.574,0.161-0.452,0.626,0.125,0.465c1.48-0.415,1.92-1.619,1.449-3.025c-0.378-1.133-1.396-2.416-2.725-2.043
						C30.369,13.707,30.491,14.172,31.069,14.01L31.069,14.01z"/>
				</g>
			</g>
			<g>
				<g>
					<path d="M18.038,25.693c-1.713,3.009-3.502,5.963-5.511,8.783c-0.532,0.748,1.424,0.613,1.808,0.072
						c2.01-2.82,3.799-5.775,5.511-8.783C20.317,24.939,18.368,25.111,18.038,25.693L18.038,25.693z"/>
				</g>
			</g>
			<g>
				<g>
					<path d="M25.602,1.162c-0.642,3.083-1.371,6.146-2.137,9.198c-0.157,0.632,1.771,0.328,1.924-0.271
						c0.766-3.054,1.496-6.117,2.138-9.2C27.662,0.237,25.726,0.563,25.602,1.162L25.602,1.162z"/>
				</g>
			</g>
			<g>
				<path fill="#FF0033" d="M20.881,14.589c-0.817-1.025-1.8-1.495-2.771-1.578c-3.418-0.291-6.752,4.181-2.666,6.078
					c0.953,0.457,2.02,0.501,3.045,0.332"/>
				<g>
					<path d="M21.327,14.392c-2.014-2.323-5.718-2.175-7.535,0.384c-0.75,1.059-0.975,2.249-0.254,3.382
						c0.991,1.56,3.255,1.777,4.893,1.562c0.488-0.064,0.782-0.681,0.117-0.593c-2.303,0.306-5.565-1.125-4.132-3.87
						c1.276-2.442,4.351-2.396,6.02-0.468C20.676,15.065,21.601,14.708,21.327,14.392L21.327,14.392z"/>
				</g>
			</g>
			<g>
				<g>
					<path d="M15.338,15.16c-0.508,0.176-0.936,0.463-1.06,1.012c-0.054,0.229,0.896,0.081,0.953-0.166
						c0.061-0.262,0.162-0.514,0.441-0.611c0.051-0.017,0.436-0.181,0.284-0.285C15.801,15,15.494,15.104,15.338,15.16L15.338,15.16
						z"/>
				</g>
			</g>
			<g>
				<path fill="#FF0033" d="M24.699,14.399c-2-0.998-0.132-4.185,1.433-4.998c3.063-1.688,6.375,1.938,4.313,4.751
					c-0.882,1.175-2.478,1.797-3.909,1.816"/>
				<g>
					<path d="M25.155,14.234c-1.079-0.646-0.928-1.747-0.477-2.766c0.743-1.677,2.499-2.829,4.282-1.863
						c0.958,0.521,1.506,1.537,1.633,2.583c0.258,2.141-2.02,3.493-3.853,3.583c-0.259,0.014-1.059,0.425-0.419,0.396
						c1.953-0.097,3.993-0.884,4.946-2.689c0.892-1.683-0.259-3.912-1.988-4.481c-1.578-0.521-3.252-0.022-4.445,1.094
						c-1.144,1.065-2.342,3.429-0.592,4.477C24.485,14.709,25.286,14.313,25.155,14.234L25.155,14.234z"/>
				</g>
			</g>
			<g>
				<g>
					<path d="M27.71,10.094c0.027,0.43,0.256,0.711,0.604,0.942c0.313,0.205,1.187-0.232,0.756-0.518
						c-0.267-0.176-0.375-0.369-0.396-0.685C28.652,9.453,27.683,9.67,27.71,10.094L27.71,10.094z"/>
				</g>
			</g>
			<g>
				<path fill="#FF0033" d="M27.194,18.714c2.063-1.125,6.375-0.688,7.438,1.626c1.438,3.124-2.313,5.688-5.063,4.624
					c-1.938-0.813-2.847-2.922-2.847-4.858"/>
				<g>
					<path d="M27.467,18.758c2.686-1.321,7.731,0.161,6.893,3.863c-0.518,2.273-3.313,2.877-5.102,1.761
						c-1.458-0.91-1.998-2.8-2.053-4.406c-0.005-0.13-0.976,0.015-0.968,0.259c0.078,2.314,1.425,5.08,4.077,5.146
						c1.848,0.045,3.725-0.699,4.728-2.308c1.351-2.163-0.614-4.207-2.577-4.827c-1.764-0.56-3.889-0.392-5.546,0.426
						C26.35,18.951,27.26,18.859,27.467,18.758L27.467,18.758z"/>
				</g>
			</g>
			<g>
				<g>
					<path d="M33.02,22.271c-0.629,0.253-1.157,0.604-1.491,1.209c-0.093,0.166,0.813,0.098,0.955-0.159
						c0.204-0.368,0.488-0.631,0.884-0.787c0.059-0.023,0.435-0.187,0.279-0.302C33.494,22.117,33.175,22.211,33.02,22.271
						L33.02,22.271z"/>
				</g>
			</g>
			<g>
				<path fill="#FF0033" d="M19.631,21.714c-5.75,5.688,6.75,10.438,6.188,3.188c-0.063-1.125-0.433-2.069-0.993-3.07"/>
				<g>
					<path d="M19.242,21.628c-1.172,1.199-2.034,2.76-1.36,4.437c0.562,1.398,2.027,2.27,3.42,2.641
						c1.357,0.359,2.913,0.152,3.996-0.775c1.791-1.539,0.938-4.513,0.011-6.227c-0.184-0.34-1.118-0.023-0.967,0.259
						c0.862,1.598,1.594,3.875,0.431,5.521c-0.727,1.025-2.157,0.908-3.213,0.591c-1.145-0.345-2.209-1.175-2.712-2.267
						c-0.676-1.467,0.147-2.956,1.173-4.005C20.421,21.391,19.472,21.393,19.242,21.628L19.242,21.628z"/>
				</g>
			</g>
			<g>
				<g>
					<path d="M21.917,27.117c0.216-0.077,0.5,0.057,0.693,0.133c0.188,0.07,0.44-0.008,0.618-0.068
						c0.02-0.007,0.441-0.191,0.296-0.248c-0.656-0.258-1.271-0.229-1.932,0.006c-0.028,0.013-0.436,0.17-0.296,0.248
						C21.46,27.273,21.762,27.171,21.917,27.117L21.917,27.117z"/>
				</g>
			</g>
			<g>
				<path fill="#FF0033" d="M25.631,26.902c1.133,1.313,3.747-0.338,4.036-1.901"/>
				<g>
					<path d="M25.174,27.061c1.5,1.537,4.571-0.461,4.969-2.151c0.04-0.168-0.896-0.037-0.948,0.184
						c-0.286,1.224-1.945,2.841-3.104,1.654C25.926,26.58,25.056,26.939,25.174,27.061L25.174,27.061z"/>
				</g>
			</g>
			<g>
				<path fill="#FF0033" d="M18.5,12.998c-1.373-1.5,5.224-5.636,5.724-1.571"/>
				<g>
					<path d="M18.949,12.813c-0.978-1.236,4.199-5.005,4.789-1.257c0.05,0.306,1.021,0.08,0.968-0.259
						c-0.708-4.489-8.121,0.026-6.654,1.885C18.244,13.429,19.174,13.098,18.949,12.813L18.949,12.813z"/>
				</g>
			</g>
			<g>
				<path fill="#FF0033" d="M24.131,14.152c-2.375-1.001-6.125,3-5.625,5.374c0.872,4.751,9,2.752,8.747-1.624
					C27.255,16.027,25.836,14.809,24.131,14.152"/>
				<g>
					<path d="M24.525,13.954c-4.688-1.538-9.688,7.251-3.604,8.45c1.991,0.395,4.25-0.44,5.688-1.813
						C29.102,18.218,27.156,15.063,24.525,13.954c-0.229-0.098-1.108,0.262-0.787,0.396c2.114,0.896,3.655,2.749,2.785,5.117
						c-0.659,1.791-2.832,2.68-4.604,2.563c-1.659-0.109-2.76-1.354-2.973-2.938c-0.28-2.103,2.711-5.422,4.789-4.741
						C23.972,14.429,24.842,14.058,24.525,13.954L24.525,13.954z"/>
				</g>
			</g>
			<g>
				<g>
					<path d="M24.742,16.79c-0.672,0.254-1.11,0.753-0.907,1.489c0.106,0.389,1.073,0.127,0.968-0.259
						c-0.104-0.385-0.039-0.613,0.343-0.759c0.146-0.056,0.393-0.264,0.244-0.438C25.237,16.646,24.926,16.72,24.742,16.79
						L24.742,16.79z"/>
				</g>
			</g>
		</g>
	</g>
</g>
</svg>
