<?xml version="1.0" encoding="utf-8"?>
<!-- Generator: Adobe Illustrator 14.0.0, SVG Export Plug-In . SVG Version: 6.00 Build 43363)  -->
<!DOCTYPE svg PUBLIC "-//W3C//DTD SVG 1.0//EN" "http://www.w3.org/TR/2001/REC-SVG-20010904/DTD/svg10.dtd">
<svg version="1.0" id="svg2" xmlns:svg="http://www.w3.org/2000/svg"
	 xmlns="http://www.w3.org/2000/svg" xmlns:xlink="http://www.w3.org/1999/xlink" x="0px" y="0px" width="55.833px"
	 height="48.375px" viewBox="0 0 55.833 48.375" enable-background="new 0 0 55.833 48.375" xml:space="preserve">
<filter  id="AI_GaussianBlur_4">
	<feGaussianBlur  stdDeviation="1"></feGaussianBlur>
</filter>
<g>
	<g opacity="0.2" filter="url(#AI_GaussianBlur_4)">
		<path d="M21.799,47.538c4.805-3.298-1.272-5.531-3.75-10.972c-1.043-2.291,3.471-8.934,20.334-11.528
			C71.864,19.882,49.13,42.382,21.799,47.538"/>
	</g>
	<g>
		<g>
			<path fill="#FFCCFF" d="M21.799,47.548c2.198-6.595-7.979-11.063-17.354-21.938C0.493,21.025-1.532,7.743,16.549,2.547
				C52.448-7.765,50.01,37.234,21.799,47.548"/>
		</g>
		<g>
			<g>
				<path d="M22.775,47.462c1.317-5.144-3.465-8.864-6.854-11.931c-4.571-4.135-10.936-8.453-12.738-14.643
					C-1.091,6.242,20.308-0.308,31.198,2.303C40.8,4.604,43.303,14.844,41.718,23.39C39.71,34.208,31.496,43.145,21.386,47.021
					c-1.244,0.479-0.134,1.42,0.832,1.051c10.857-4.166,18.997-13.449,21.449-24.854c2.021-9.393-1.563-19.329-11.336-22.151
					C21.722-1.995,4.811,3.07,1.264,14.395c-1.501,4.79,0.372,9.457,3.524,13.013c3.459,3.9,7.515,7.227,11.333,10.758
					c2.7,2.499,5.726,5.495,4.704,9.47C20.598,48.512,22.57,48.259,22.775,47.462L22.775,47.462z"/>
			</g>
		</g>
	</g>
	<g>
		<polygon fill="#663366" points="31.685,17.104 33.502,21.908 35.334,22.519 36.717,22.405 38.64,21.31 39.505,18.581 
			38.647,16.083 36.797,14.934 34.49,14.98 32.713,15.856 		"/>
		
			<ellipse transform="matrix(0.549 -0.8358 0.8358 0.549 -4.2271 26.7296)" fill="#663366" cx="22.654" cy="17.281" rx="3.837" ry="4.563"/>
		<g>
			<g>
				<path d="M32.238,17.259c0.705-1.679,2.305-2.166,4.019-2.017c0.459,0.039,0.993-0.625,0.34-0.684
					c-2.144-0.185-4.385,0.473-5.275,2.602C31.106,17.664,32.078,17.639,32.238,17.259L32.238,17.259z"/>
			</g>
		</g>
		<g>
			<g>
				<path d="M36.255,15.246c4.59,0.312,3.101,9.527-2.577,6.386c-0.361-0.201-1.214,0.292-0.746,0.551
					c2.542,1.408,6.009,0.646,6.911-2.292c0.709-2.307-0.729-5.164-3.25-5.335C36.13,14.523,35.6,15.202,36.255,15.246
					L36.255,15.246z"/>
			</g>
		</g>
		<g>
			<g>
				<path d="M19.007,17.691c-0.199-1.001-0.134-1.985,0.302-2.917c0.659-1.413,2.095-1.575,3.464-1.233
					c0.269,0.064,1.131-0.347,0.604-0.478c-1.479-0.369-3.075-0.229-4.258,0.813c-1.139,1.004-1.359,2.66-1.079,4.075
					C18.097,18.237,19.069,18.001,19.007,17.691L19.007,17.691z"/>
			</g>
		</g>
		<g>
			<g>
				<path d="M23.751,21.144c-0.611,0.077-1.201,0.062-1.803-0.083c-0.284-0.065-1.137,0.37-0.602,0.497
					c0.747,0.177,1.502,0.178,2.261,0.083c0.177-0.021,0.494-0.114,0.554-0.313C24.219,21.121,23.858,21.131,23.751,21.144
					L23.751,21.144z"/>
			</g>
		</g>
		<g>
			<g>
				<path d="M22.777,13.556c1.732,0.302,2.974,1.557,3.429,3.233c0.088,0.322,1.055,0.063,0.968-0.261
					c-0.501-1.843-1.915-3.152-3.8-3.48C23.079,12.997,22.235,13.462,22.777,13.556L22.777,13.556z"/>
			</g>
		</g>
		<g>
			<path fill="#663366" d="M12.931,14.151c-0.357-2.216-3.778-3.526-5.332-2.777c-2.775,1.432-2.732,4.595-0.838,6.139"/>
			<g>
				<path d="M13.415,14.021c-0.519-2.353-3.744-3.675-5.897-2.791c-2.707,1.112-3.45,4.475-1.21,6.443
					c0.191,0.169,1.054-0.202,0.91-0.327c-1.599-1.405-1.738-3.688-0.267-5.242c1.716-1.81,5.035,0.079,5.497,2.175
					C12.494,14.485,13.464,14.248,13.415,14.021L13.415,14.021z"/>
			</g>
		</g>
		<g>
			<g>
				<path d="M24.577,1.013C22.946,4.96,21.75,9.033,20.829,13.2c-0.099,0.442,0.888,0.311,0.976-0.089
					c0.908-4.107,2.081-8.121,3.688-12.015C25.698,0.602,24.726,0.649,24.577,1.013L24.577,1.013z"/>
			</g>
		</g>
		<g>
			<g>
				<path d="M22.322,8.004c3.425,2.399,6.858,4.774,9.548,8.021c0.163,0.197,1.077-0.133,0.907-0.339
					c-2.688-3.247-6.124-5.622-9.548-8.021C22.996,7.501,22.155,7.887,22.322,8.004L22.322,8.004z"/>
			</g>
		</g>
		<g>
			<g>
				<path d="M22.362,7.692c-3.533,1.321-6.733,4.145-9.343,6.784c-0.394,0.397,0.56,0.354,0.771,0.141
					c2.509-2.539,5.556-5.283,8.946-6.553C23.371,7.827,22.787,7.533,22.362,7.692L22.362,7.692z"/>
			</g>
		</g>
		<g>
			<g>
				<path d="M28.08,11.893c-0.914,0.833-1.893,1.588-2.862,2.354c-0.168,0.132-0.091,0.318,0.099,0.362
					c0.24,0.058,0.494-0.033,0.685-0.183c0.972-0.764,1.948-1.521,2.862-2.354C29.283,11.688,28.327,11.668,28.08,11.893
					L28.08,11.893z"/>
			</g>
		</g>
		<g>
			<g>
				<path d="M16.57,11.595c-1.531,0.008-3.056,0.315-4.396,1.08c-0.564,0.323,0.296,0.425,0.592,0.256
					c1.047-0.597,2.227-0.813,3.418-0.818C16.526,12.11,17.22,11.592,16.57,11.595L16.57,11.595z"/>
			</g>
		</g>
		<g>
			<g>
				<path d="M16.139,11.832c0.896,0.857,1.742,1.762,2.561,2.693c0.188,0.218,1.01-0.209,0.967-0.259
					c-0.835-0.953-1.698-1.877-2.612-2.754C16.881,11.35,16.017,11.716,16.139,11.832L16.139,11.832z"/>
			</g>
		</g>
		<path fill="none" stroke="#000000" stroke-width="0.5" d="M33.304,21.908"/>
		<g>
			<path fill="#663366" d="M33.24,20.795c-0.988-8.103-9.682-4.245-9.396,0.341C23.924,26.199,34.278,26.979,33.24,20.795"/>
			<g>
				<path d="M33.723,20.666c-0.459-3.144-2.392-5.473-5.748-4.793c-2.594,0.522-4.755,2.931-4.604,5.604
					C23.692,27.037,34.573,27.025,33.723,20.666c-0.062-0.452-1.028-0.21-0.967,0.259c0.727,5.423-8.152,4.88-8.423,0.176
					c-0.122-2.13,1.627-3.869,3.539-4.481c2.975-0.956,4.52,1.807,4.884,4.307C32.823,21.377,33.792,21.134,33.723,20.666
					L33.723,20.666z"/>
			</g>
		</g>
		<g>
			<path fill="#663366" d="M15.261,17.314c-1.024-4.503-7.487-3.538-8.843,1.083c-1.181,4.063,2.319,5.875,5.302,5.218"/>
			<g>
				<path d="M15.745,17.186c-1.059-3.882-5.979-3.763-8.38-1.167c-1.367,1.479-2.383,4.112-1.146,5.979
					c1.196,1.81,3.405,2.248,5.434,1.876c0.448-0.083,0.804-0.643,0.138-0.521c-4.11,0.755-6.313-2.961-4.248-6.428
					c1.778-2.986,6.268-3.051,7.236,0.517C14.868,17.771,15.834,17.512,15.745,17.186L15.745,17.186z"/>
			</g>
		</g>
		<g>
			<path fill="#663366" d="M21.619,22.266c0.746-2.837-4.532-5.935-7.231-4.716c-5.215,2.167-3.062,9.144,1.992,9.819
				C19.174,27.891,21.255,25.266,21.619,22.266"/>
			<g>
				<path d="M22.104,22.211c0.502-2.854-3.135-5.021-5.59-5.195c-2.778-0.197-5.342,1.731-5.611,4.563
					c-0.275,2.897,2.112,5.327,4.747,5.991C19.211,28.473,21.598,25.398,22.104,22.211c0.063-0.408-0.913-0.245-0.97,0.107
					c-0.524,3.313-2.956,5.894-6.4,4.134c-1.813-0.929-2.895-2.994-2.861-4.983c0.043-2.623,2.597-4.271,5.03-3.719
					c1.964,0.442,4.637,2.272,4.231,4.569C21.064,22.725,22.041,22.564,22.104,22.211L22.104,22.211z"/>
			</g>
		</g>
	</g>
</g>
</svg>
