<?xml version="1.0" encoding="utf-8"?>
<!-- Generator: Adobe Illustrator 14.0.0, SVG Export Plug-In . SVG Version: 6.00 Build 43363)  -->
<!DOCTYPE svg PUBLIC "-//W3C//DTD SVG 1.0//EN" "http://www.w3.org/TR/2001/REC-SVG-20010904/DTD/svg10.dtd">
<svg version="1.0" id="svg2" xmlns:svg="http://www.w3.org/2000/svg"
	 xmlns="http://www.w3.org/2000/svg" xmlns:xlink="http://www.w3.org/1999/xlink" x="0px" y="0px" width="55.833px"
	 height="48.375px" viewBox="0 0 55.833 48.375" enable-background="new 0 0 55.833 48.375" xml:space="preserve">
<filter  id="AI_GaussianBlur_4">
	<feGaussianBlur  stdDeviation="1"></feGaussianBlur>
</filter>
<g>
	<g opacity="0.2" filter="url(#AI_GaussianBlur_4)">
		<path d="M21.799,47.538c4.805-3.298-1.272-5.531-3.75-10.971c-1.043-2.292,3.471-8.934,20.334-11.529
			C71.864,19.882,49.13,42.382,21.799,47.538"/>
	</g>
	<g>
		<g>
			<path fill="#FFCCCC" d="M21.799,47.548c2.198-6.595-7.978-11.063-17.353-21.938C0.493,21.025-1.532,7.743,16.549,2.547
				C52.448-7.765,50.01,37.235,21.799,47.548"/>
		</g>
		<g>
			<g>
				<path d="M22.775,47.462c1.317-5.144-3.465-8.864-6.855-11.931c-4.571-4.134-10.935-8.453-12.738-14.643
					C-1.091,6.242,20.308-0.308,31.198,2.303C40.8,4.604,43.303,14.844,41.718,23.39C39.71,34.208,31.496,43.144,21.386,47.022
					c-1.244,0.479-0.134,1.419,0.832,1.05c10.857-4.166,18.997-13.449,21.449-24.854c2.021-9.393-1.563-19.329-11.336-22.151
					C21.722-1.995,4.811,3.07,1.264,14.395c-1.501,4.79,0.372,9.457,3.524,13.013c3.459,3.9,7.515,7.227,11.333,10.758
					c2.701,2.499,5.726,5.495,4.704,9.47C20.598,48.512,22.57,48.259,22.775,47.462L22.775,47.462z"/>
			</g>
		</g>
	</g>
	<g>
		<g>
			<path fill="#FF6666" d="M21.476,16.231c-5.834-0.167-7.719,10.533,1.503,13.725c9.25,3.194,14.09-7.247,6.278-14.355
				C26.498,13.247,22.489,13.59,21.476,16.231"/>
			<g>
				<path d="M21.75,15.789c-4.104,0.087-6.265,3.631-5.807,7.494c0.612,5.172,7.05,8.641,11.862,7.534
					c5.231-1.2,7.171-6.345,5.307-11.136c-1.668-4.287-9.312-9.484-12.314-3.484c-0.33,0.659,1.127,0.531,1.358,0.067
					c2.08-4.152,6.433-0.604,8.086,1.412c1.155,1.407,1.817,3.118,2.119,4.893c0.684,4.026-2.177,7.587-6.273,7.521
					c-3.729-0.063-7.308-2.688-8.47-6.181c-0.896-2.69,0.132-7.161,3.585-7.234C21.783,16.663,22.727,15.768,21.75,15.789
					L21.75,15.789z"/>
			</g>
		</g>
		<g>
			<path fill="#FF6666" d="M19.627,14.938c-1.026-1.878-1.479-5.541,0.822-7.479l0,0l0,0C21.34,10.657,22.726,13.045,19.627,14.938"
				/>
			<g>
				<path d="M20.111,14.81c-1.199-2.347-1.27-5.494,0.775-7.386c-0.308,0.055-0.612,0.109-0.921,0.164
					c0.765,2.655,2.144,5.457-0.709,7.335c-0.405,0.267,0.565,0.146,0.739,0.033c3.023-1.992,1.771-4.712,0.937-7.627
					c-0.071-0.249-0.813,0.063-0.921,0.163c-2.102,1.942-2.109,5.144-0.868,7.575C19.267,15.311,20.191,14.967,20.111,14.81
					L20.111,14.81z"/>
			</g>
		</g>
	</g>
</g>
</svg>
